{"glyphs":{"0":{"ha":900,"x_min":200,"x_max":769,"o":"m 278 88 q 379 88 278 88 q 412 63 392 68 q 453 57 432 57 q 477 62 469 57 q 490 72 485 67 q 499 83 494 78 q 515 88 504 88 q 533 79 529 88 q 553 71 538 71 q 574 83 565 71 q 592 109 583 94 q 608 138 600 124 q 625 160 617 153 q 633 163 626 161 q 646 166 639 164 q 660 170 653 168 q 668 174 667 172 q 683 210 681 186 q 686 261 685 235 q 692 308 688 288 q 711 333 696 329 q 712 350 711 338 q 713 376 713 363 q 714 403 714 390 q 714 419 714 415 q 714 442 714 428 q 713 469 714 456 q 712 494 713 483 q 711 506 711 504 q 706 518 711 507 q 694 543 700 529 q 680 571 688 557 q 668 593 672 585 q 660 600 667 594 q 653 607 654 606 q 651 617 653 608 q 647 636 649 626 q 642 654 644 646 q 639 665 640 663 q 625 673 638 668 q 610 679 613 678 q 603 694 608 682 q 596 708 599 707 q 585 711 593 710 q 566 715 576 713 q 547 719 556 717 q 538 722 539 721 q 535 731 536 724 q 533 743 533 739 q 549 774 533 768 q 589 781 565 781 l 596 781 q 626 766 610 776 q 655 743 642 756 q 679 717 668 731 q 697 694 690 704 q 705 674 699 690 q 718 636 711 657 q 731 595 725 615 q 740 564 738 575 q 744 545 742 560 q 748 513 746 531 q 752 481 750 496 q 754 463 754 467 q 757 455 754 461 q 763 441 760 449 q 767 427 765 433 q 769 419 769 421 q 767 387 769 410 q 763 338 765 364 q 758 291 761 313 q 754 261 756 269 q 750 250 754 258 q 740 232 746 242 q 731 213 735 222 q 725 203 726 204 q 722 193 724 200 q 717 179 719 186 q 713 167 715 172 q 711 160 711 161 q 711 151 711 158 q 711 138 711 144 q 711 124 711 131 q 711 117 711 118 q 697 109 710 114 q 682 101 685 104 q 667 87 679 99 q 653 72 656 75 q 645 70 651 72 q 632 66 639 68 q 618 62 625 64 q 610 58 611 60 q 606 51 608 57 q 602 38 604 44 q 598 24 600 31 q 596 15 596 17 q 589 7 594 13 q 581 0 583 1 q 552 -4 572 -1 q 509 -9 532 -7 q 465 -12 486 -11 q 436 -14 444 -14 q 389 -5 411 -14 q 347 19 367 4 q 310 51 328 33 q 278 88 293 69 m 233 165 q 234 171 233 168 q 235 174 235 174 q 241 189 236 178 q 249 203 246 200 q 258 181 250 188 q 276 171 267 175 q 292 160 285 167 q 299 142 299 154 q 283 142 293 142 q 261 145 272 143 q 242 152 250 147 q 233 165 233 157 m 235 318 q 235 232 235 318 l 206 232 q 214 238 208 233 q 219 246 219 243 q 224 260 221 250 q 228 282 226 271 q 233 303 231 293 q 235 318 235 314 m 206 433 q 213 435 207 435 q 219 433 219 435 q 228 427 222 432 q 235 419 233 422 l 235 413 l 235 406 q 231 385 233 397 q 226 361 228 372 q 222 342 224 350 q 219 333 219 333 l 206 333 l 206 433 m 529 810 q 527 803 529 808 q 524 794 525 797 q 509 788 521 793 q 494 781 497 783 q 487 766 492 778 q 481 751 482 754 q 465 743 478 749 q 437 730 451 738 q 409 716 422 722 q 393 708 396 710 q 378 694 390 706 q 364 679 367 682 q 354 674 363 678 q 335 666 346 671 q 317 656 325 661 q 307 650 308 651 q 300 635 304 647 q 292 608 296 622 q 283 580 288 593 q 278 564 279 567 q 245 533 267 540 q 200 526 224 526 q 201 537 200 529 q 202 553 201 544 q 204 568 203 561 q 206 578 206 575 q 213 585 206 581 q 219 593 219 590 q 223 609 221 596 q 227 637 225 622 q 231 664 229 651 q 235 679 233 676 q 247 693 236 682 q 271 718 257 704 q 299 745 285 732 q 321 767 313 758 q 365 792 339 783 q 420 804 392 800 q 477 809 449 808 q 529 810 506 810 z "},"1":{"ha":900,"x_min":225,"x_max":721,"o":"m 258 -14 q 281 -6 272 -15 q 294 15 289 3 q 300 39 299 26 q 301 58 301 51 q 308 60 303 60 q 324 55 317 60 q 338 44 331 50 q 354 34 346 39 q 374 29 363 29 q 381 29 376 29 q 388 31 388 29 q 418 303 411 161 q 421 426 421 365 q 417 579 419 511 q 430 603 428 592 q 432 631 432 615 q 424 661 432 644 q 405 692 417 678 q 377 715 393 706 q 344 724 361 724 l 331 724 q 316 715 328 722 q 301 708 304 708 q 283 717 296 708 q 258 739 271 726 q 235 765 244 751 q 225 786 225 778 q 253 783 243 786 q 270 776 263 779 q 286 769 278 772 q 308 765 294 765 q 331 770 321 765 q 352 781 342 775 q 373 792 363 788 q 399 797 383 797 q 410 797 403 797 l 417 796 l 504 708 l 504 464 q 495 436 504 449 q 474 412 486 424 q 453 388 463 400 q 444 361 444 375 q 445 353 444 358 q 446 347 446 349 q 467 340 449 344 q 489 333 486 336 q 507 272 507 315 q 504 185 507 229 q 503 143 503 163 q 504 106 503 124 q 531 72 507 72 q 576 88 554 72 q 619 103 599 103 q 636 101 625 103 q 658 97 647 99 q 679 92 669 94 q 692 88 689 89 q 695 80 693 86 q 699 67 697 74 q 703 53 701 60 q 706 44 706 46 q 713 37 707 42 q 721 31 718 32 q 714 22 719 28 q 706 15 708 17 q 691 10 703 14 q 665 2 679 7 q 638 -8 651 -3 q 619 -14 625 -12 l 611 -14 l 604 -14 q 596 6 597 -3 q 594 21 594 15 q 591 29 594 26 q 576 32 588 32 q 558 25 564 32 q 547 9 551 18 q 535 -7 542 0 q 511 -14 528 -14 q 491 -11 499 -14 q 476 -6 483 -8 q 460 0 469 -3 q 436 3 451 3 q 399 1 417 3 q 374 -28 381 -1 l 258 -14 m 446 189 l 475 189 l 475 160 l 446 160 l 446 189 z "},"2":{"ha":904,"x_min":164,"x_max":731,"o":"m 164 81 q 165 84 164 82 q 165 86 165 86 q 176 94 168 89 q 188 101 185 100 l 188 231 q 193 238 188 232 q 207 250 199 243 q 224 264 215 257 q 238 275 232 271 q 253 281 240 276 q 267 289 265 286 q 271 300 268 292 q 276 317 274 308 q 279 335 278 326 q 281 347 281 343 l 288 347 q 305 339 300 347 q 324 331 310 331 q 345 338 335 331 q 365 353 356 344 q 384 369 375 363 q 404 376 393 376 q 408 376 406 376 q 411 375 411 376 q 426 361 415 372 q 440 347 438 350 q 441 343 440 346 q 442 339 442 340 q 416 317 442 326 q 360 294 390 308 q 305 253 331 279 q 279 179 279 226 q 296 116 279 146 q 353 86 313 86 l 700 86 q 708 81 703 86 q 714 72 714 75 q 715 56 714 68 q 718 32 717 44 q 720 8 719 19 q 721 -8 721 -4 q 684 -2 696 -8 q 665 11 672 4 q 650 24 657 18 q 626 31 643 31 q 606 25 614 31 q 599 0 597 19 q 576 -1 593 0 q 556 -1 560 -1 q 510 7 528 -1 q 468 15 492 15 q 460 15 465 15 q 454 14 454 15 q 447 7 453 14 q 440 0 442 0 q 422 -1 439 0 q 396 -1 406 -1 q 371 -1 388 -1 q 353 0 354 0 q 346 7 351 0 q 339 14 340 14 q 333 15 339 15 q 325 15 328 15 q 317 15 322 15 q 310 14 311 15 q 294 12 307 14 q 266 8 281 10 q 239 3 251 6 q 224 0 226 0 l 215 0 q 201 9 208 0 q 185 30 193 18 q 172 53 178 42 q 165 72 167 65 q 165 75 165 72 q 164 81 164 78 m 642 519 q 642 621 642 519 q 634 628 639 622 q 628 636 629 633 q 622 649 626 639 q 614 672 618 660 q 605 695 610 685 q 599 708 600 706 q 589 712 597 710 q 570 716 581 714 q 551 719 560 718 q 540 722 542 721 q 533 730 539 724 q 526 736 528 736 q 514 738 525 738 q 499 738 504 738 q 481 738 492 738 q 468 736 469 738 q 454 729 465 736 q 440 722 443 722 q 433 729 438 722 q 425 736 428 736 q 408 738 424 738 q 385 739 392 739 q 366 738 378 739 q 353 736 354 738 q 346 726 350 735 q 338 708 342 718 q 329 690 333 699 q 324 679 325 681 q 317 672 324 678 q 310 664 311 667 q 303 649 308 661 q 296 636 299 638 q 276 631 289 632 q 251 626 264 629 q 230 615 239 622 q 224 592 221 608 q 208 599 219 593 q 194 607 197 604 l 194 613 l 194 621 q 198 644 196 629 q 202 672 200 658 q 206 697 204 686 q 208 708 208 707 q 238 739 213 719 q 295 777 264 758 q 356 810 326 796 q 396 824 385 824 q 415 822 400 824 q 447 817 431 819 q 478 811 464 814 q 497 808 493 808 l 628 808 q 642 794 631 806 q 657 781 653 783 q 667 772 658 778 q 686 759 676 767 q 704 745 696 751 q 714 736 713 739 q 724 708 721 726 q 729 670 728 690 q 731 632 731 650 q 731 606 731 615 q 731 586 731 599 q 730 564 731 575 q 729 544 729 553 q 729 535 729 536 q 711 503 726 515 q 685 476 696 490 q 590 386 642 418 q 460 354 538 354 q 463 373 460 358 q 468 390 465 388 q 483 398 471 393 q 497 404 494 403 q 551 436 524 422 q 599 476 579 450 q 608 493 606 486 q 613 506 610 500 q 622 515 615 511 q 642 519 628 518 m 251 578 q 244 571 250 571 q 238 578 240 571 q 244 585 235 585 q 251 578 254 585 z "},"3":{"ha":904,"x_min":136,"x_max":772,"o":"m 513 -57 q 514 -44 513 -53 q 517 -27 515 -36 q 522 -10 519 -18 q 526 1 524 -1 q 540 8 528 4 q 556 15 553 13 q 553 21 557 18 q 549 25 549 24 q 528 29 538 25 q 513 15 518 33 l 396 15 l 411 44 q 431 47 417 44 q 462 51 446 49 q 492 55 478 53 q 513 58 507 57 q 550 78 529 63 q 588 113 571 93 q 617 153 606 132 q 629 189 629 174 q 617 220 629 200 q 599 247 606 240 q 583 253 596 249 q 569 261 571 258 q 564 274 568 264 q 556 297 560 285 q 547 320 551 310 q 540 333 542 331 q 531 337 539 335 q 513 341 522 339 q 494 345 503 343 q 483 347 485 347 q 475 354 481 349 q 468 363 469 360 l 367 363 q 349 391 361 379 q 338 419 338 403 q 338 428 338 422 q 339 435 338 433 q 345 442 339 436 q 353 449 351 447 q 358 459 354 450 q 367 478 363 468 q 376 497 372 489 q 382 507 381 506 q 390 510 383 508 q 403 515 396 513 q 417 519 410 517 q 425 521 424 521 q 443 548 429 522 q 473 605 457 574 q 501 663 489 636 q 514 696 514 690 q 508 715 514 710 q 483 724 503 721 q 458 724 478 724 q 417 723 439 724 q 376 722 396 722 q 353 724 357 722 q 344 728 350 724 q 331 738 338 732 q 317 747 324 743 q 310 753 311 751 q 303 753 308 753 q 296 754 299 754 q 274 748 292 754 q 238 734 257 742 q 201 719 218 726 q 179 708 183 711 l 179 731 q 195 781 179 767 q 251 796 211 796 l 599 796 q 605 790 600 796 q 613 782 610 785 q 637 712 635 750 q 642 636 639 674 q 574 628 611 636 q 513 593 536 621 q 512 578 513 589 q 511 557 511 568 q 511 535 511 546 q 511 521 511 525 q 511 463 511 494 q 526 406 511 431 q 549 409 536 407 q 572 411 561 411 q 595 407 585 411 q 613 392 606 403 q 628 362 618 381 q 647 325 638 343 q 664 292 657 307 q 671 275 671 278 q 672 256 672 271 q 672 225 672 242 q 671 193 671 208 q 671 175 671 179 q 678 160 671 172 q 685 146 685 149 q 678 92 685 121 q 661 35 672 64 q 634 -17 650 7 q 599 -57 618 -42 q 582 -43 592 -39 q 560 -47 572 -47 q 561 -69 560 -64 q 565 -78 563 -75 q 569 -83 567 -81 q 571 -93 571 -85 q 570 -97 571 -94 q 569 -100 569 -100 q 561 -109 567 -103 q 549 -122 556 -115 q 535 -135 542 -129 q 526 -143 529 -142 q 521 -128 526 -139 q 513 -115 515 -118 q 499 -118 508 -112 q 488 -124 490 -124 q 489 -143 488 -137 q 492 -151 490 -149 q 497 -155 494 -153 q 499 -165 499 -157 q 481 -184 499 -175 q 443 -203 464 -193 q 403 -226 422 -214 q 382 -251 385 -237 l 251 -251 l 238 -274 l 136 -274 l 136 -244 q 146 -232 136 -243 q 169 -207 156 -221 q 198 -179 183 -193 q 222 -158 213 -165 q 247 -147 235 -149 q 272 -144 260 -144 q 297 -145 285 -144 q 324 -143 310 -146 q 338 -137 326 -143 q 353 -129 349 -132 q 429 -87 389 -106 q 513 -57 469 -68 m 367 1 l 367 -43 l 324 -43 l 367 1 m 599 44 l 628 44 l 628 15 l 599 15 l 599 44 m 757 550 l 772 521 l 757 521 l 757 550 m 743 593 q 750 579 750 590 q 743 564 750 568 q 738 567 740 563 q 736 578 736 572 q 738 590 736 585 q 743 593 740 594 m 685 983 q 746 983 685 983 q 739 963 746 972 q 721 954 732 954 l 714 954 q 699 968 710 957 q 685 983 688 979 z "},"4":{"ha":900,"x_min":158,"x_max":783,"o":"m 535 224 q 537 196 535 215 q 541 155 539 176 q 545 114 543 133 q 549 86 547 94 q 556 53 551 75 q 563 29 561 32 q 584 11 568 22 q 607 0 600 0 q 621 11 610 0 q 636 29 632 22 l 636 43 q 628 65 636 58 q 619 86 619 71 q 628 106 619 101 q 636 122 636 111 l 636 131 q 633 141 636 132 q 628 159 631 150 q 624 176 626 168 q 621 188 621 185 q 620 195 621 189 q 619 204 619 201 q 625 219 619 214 q 638 228 631 224 q 653 237 646 232 q 664 253 661 242 l 783 253 q 783 261 783 253 q 781 275 782 269 q 752 309 772 301 q 709 320 732 317 q 665 330 686 324 q 636 361 644 336 q 632 377 635 365 q 627 403 629 389 q 623 429 625 417 q 621 449 621 442 q 620 500 621 463 q 619 578 619 538 q 620 656 619 619 q 621 708 621 693 q 617 728 624 721 q 599 740 610 736 q 576 746 588 744 q 560 747 565 747 q 563 730 560 736 q 569 719 565 724 q 576 708 574 714 q 579 693 579 703 q 574 669 579 678 q 549 650 568 660 q 574 633 568 642 q 579 608 579 624 q 576 593 579 599 q 571 583 574 588 q 565 572 568 578 q 563 557 563 567 q 563 535 563 547 q 578 521 564 524 l 578 404 q 570 398 575 403 q 563 390 565 393 q 558 379 561 388 q 549 360 554 371 q 540 342 544 350 q 535 332 536 333 q 525 330 533 332 q 505 326 517 328 q 481 322 493 324 q 463 318 469 319 l 449 318 l 433 318 q 410 320 426 318 q 375 325 393 322 q 340 330 357 328 q 318 332 324 332 q 292 353 296 342 q 288 382 288 365 q 288 404 288 392 q 303 419 289 417 l 303 767 l 289 810 q 256 775 268 797 q 244 729 244 753 q 249 718 244 721 q 260 713 254 715 q 272 708 267 711 q 276 694 276 704 q 276 686 276 692 q 274 679 275 681 q 269 674 274 678 q 259 665 264 669 q 249 656 254 660 q 244 650 244 651 q 244 639 244 647 q 244 621 244 631 q 244 603 244 613 q 244 593 244 594 q 238 585 244 590 q 231 578 231 581 q 238 564 231 575 q 244 550 244 553 q 246 543 246 549 q 246 535 246 538 q 240 491 246 515 q 225 440 233 467 q 210 386 217 414 q 201 332 203 358 l 172 318 l 172 228 q 194 238 188 228 q 217 247 200 247 q 233 245 225 247 q 244 232 242 243 l 346 232 q 358 245 350 243 q 376 247 367 247 q 395 244 388 247 q 404 224 403 240 l 535 224 m 158 1013 q 164 1000 160 1008 q 172 983 168 992 q 181 965 176 974 q 188 954 185 957 q 195 947 189 953 q 201 940 201 942 q 206 920 203 935 q 210 890 208 906 q 215 859 213 874 q 217 839 217 844 l 281 839 q 275 853 281 849 q 262 860 269 857 q 249 866 254 863 q 243 881 243 869 q 246 899 243 890 q 260 911 249 907 q 228 971 250 935 q 188 1026 207 1007 q 185 1027 188 1026 q 181 1028 182 1028 q 176 1027 179 1028 q 172 1026 174 1026 q 165 1020 169 1025 q 158 1013 160 1015 z "},"5":{"ha":900,"x_min":214,"x_max":739,"o":"m 243 -210 q 263 -241 243 -235 q 300 -247 283 -247 q 318 -247 307 -247 q 331 -246 329 -246 q 338 -239 333 -246 q 346 -232 343 -232 q 398 -215 371 -222 q 451 -199 425 -208 q 503 -178 478 -190 q 547 -144 528 -165 q 555 -131 550 -143 q 563 -115 560 -118 q 576 -108 564 -114 q 592 -101 589 -103 q 618 -78 608 -89 q 635 -57 628 -68 q 649 -33 643 -46 q 664 0 656 -19 q 666 8 664 1 q 670 22 668 14 q 674 35 672 29 q 678 43 676 42 q 692 58 679 46 q 707 72 704 69 q 708 78 707 72 q 708 88 708 85 q 703 102 708 97 q 692 111 699 107 q 677 119 685 115 q 664 131 669 122 l 642 115 l 642 0 q 628 -1 638 0 q 609 -6 619 -3 q 590 -11 599 -8 q 576 -15 581 -14 q 569 -28 574 -17 q 563 -43 564 -40 q 555 -51 561 -46 q 547 -58 549 -57 q 542 -67 546 -60 q 534 -81 539 -74 q 525 -94 529 -87 q 519 -101 521 -100 q 511 -102 518 -103 q 497 -101 504 -101 q 483 -101 490 -101 q 475 -101 476 -100 q 469 -109 474 -103 q 461 -123 465 -115 q 452 -137 457 -131 q 446 -144 447 -144 q 431 -148 443 -146 q 403 -152 418 -150 q 376 -156 389 -154 q 360 -160 363 -158 q 345 -174 357 -161 q 331 -187 333 -186 q 314 -192 326 -190 q 288 -197 301 -194 q 261 -201 274 -200 q 244 -203 249 -203 q 244 -206 244 -204 q 243 -210 243 -208 m 519 419 q 524 403 518 414 q 533 390 529 393 q 547 387 536 389 q 569 383 557 385 q 592 378 582 381 q 606 375 603 376 q 613 362 608 374 q 619 347 618 350 q 627 339 621 344 q 635 332 633 333 q 643 317 638 328 q 649 303 649 306 q 652 287 650 300 q 656 259 654 274 q 660 232 658 244 q 664 217 663 219 q 667 201 665 211 q 672 182 669 192 q 676 165 674 172 q 678 158 678 158 q 685 155 679 157 q 699 151 692 153 q 713 147 706 149 q 721 144 719 144 q 729 138 724 143 q 736 131 735 133 q 737 151 736 135 q 738 174 738 168 q 738 185 738 175 q 738 206 739 196 q 731 225 736 217 q 714 231 726 233 l 714 361 q 681 372 693 360 q 660 400 669 383 q 642 434 651 417 q 619 463 633 451 q 558 487 593 482 q 490 492 522 492 q 421 488 451 492 q 346 476 390 485 q 331 463 342 474 q 317 447 319 451 q 309 433 314 446 q 301 419 304 421 q 290 422 299 417 q 278 428 281 428 q 279 445 278 440 q 283 454 281 450 q 287 463 285 458 q 289 476 289 467 q 284 498 289 489 q 273 515 279 507 q 262 531 267 522 q 257 549 257 539 q 271 583 257 569 q 288 621 285 597 q 288 631 288 622 q 288 650 288 640 q 288 668 288 660 q 288 679 288 676 q 294 701 289 685 q 301 722 299 718 q 336 722 311 722 q 389 721 361 721 q 441 722 417 721 q 475 722 465 722 q 496 728 479 722 q 519 738 513 735 q 526 744 521 738 q 533 751 532 751 q 539 752 533 751 q 547 753 544 753 q 567 748 560 753 q 580 738 574 743 q 595 727 586 732 q 619 722 604 722 q 644 728 628 722 q 675 744 660 735 q 701 764 690 753 q 713 786 713 775 q 700 785 710 786 q 680 784 690 785 q 660 782 669 783 q 649 781 651 781 q 642 773 647 779 q 635 765 636 767 q 628 765 633 765 q 619 764 622 764 q 599 771 607 764 q 584 787 592 778 q 568 803 576 796 q 547 810 560 810 q 535 803 539 810 q 528 787 532 796 q 521 771 525 778 q 506 764 517 764 q 482 771 499 764 q 448 787 465 778 q 415 803 431 796 q 396 810 400 810 l 389 810 q 382 802 388 808 q 374 794 376 796 q 342 790 365 792 q 296 785 319 788 q 252 778 272 782 q 229 765 232 774 q 222 737 226 758 q 215 708 217 715 q 215 676 215 700 q 215 628 215 654 q 214 579 214 603 q 214 549 214 557 q 214 507 214 533 q 215 456 214 481 q 215 411 215 431 q 215 390 215 392 q 217 374 215 388 q 222 347 219 361 q 227 319 225 332 q 229 303 229 307 q 231 296 231 301 q 229 289 231 292 q 242 294 233 290 q 259 302 250 297 q 276 311 268 307 q 288 318 285 315 q 299 328 290 319 q 317 347 307 336 q 335 365 326 357 q 346 375 343 374 q 356 381 347 376 q 374 390 364 385 q 392 399 383 394 q 403 404 400 403 q 411 411 406 406 q 418 419 417 417 l 519 419 z "},"6":{"ha":904,"x_min":172,"x_max":743,"o":"m 189 581 q 194 621 193 607 l 196 631 q 203 656 199 640 q 210 678 206 665 q 215 703 215 694 q 219 729 215 715 q 228 753 228 751 q 239 776 228 758 q 250 803 247 790 q 268 832 251 804 q 293 871 276 846 q 319 909 307 892 q 364 955 332 926 q 433 1006 396 983 q 512 1043 471 1029 q 592 1057 553 1057 q 624 1042 619 1049 q 639 1021 628 1036 q 664 998 650 1006 q 678 978 678 990 l 543 978 q 438 929 465 949 q 383 896 411 910 q 340 847 358 883 q 317 805 328 824 q 292 755 307 786 q 264 703 276 724 q 260 685 260 693 q 269 658 260 671 q 275 625 285 639 l 256 610 l 251 601 q 233 556 239 569 q 228 513 228 543 q 240 509 231 513 q 251 507 249 506 q 258 515 253 508 q 265 522 264 521 q 285 525 267 524 q 317 528 300 525 q 347 533 333 532 q 367 536 357 533 q 383 542 372 539 q 401 546 394 544 q 440 542 415 543 q 506 534 465 542 q 587 514 547 526 q 642 478 626 501 q 626 473 638 479 q 613 464 615 467 q 616 452 610 461 q 622 440 622 443 q 642 442 636 440 q 649 445 647 443 q 653 449 651 447 q 664 450 656 450 l 671 450 q 703 397 690 421 q 717 340 717 372 q 716 328 717 336 q 714 319 715 319 q 700 311 711 319 q 685 304 692 307 q 689 292 681 303 q 694 279 694 282 q 704 277 697 279 q 714 276 711 275 q 729 282 718 278 q 743 290 738 285 q 731 223 739 258 q 711 154 724 188 q 678 92 699 121 q 628 44 658 64 q 604 33 624 42 q 563 15 585 25 q 521 -3 540 6 q 497 -14 501 -11 q 490 -21 496 -14 q 483 -28 485 -28 q 471 -28 482 -28 q 454 -29 460 -29 q 437 -28 447 -29 q 425 -28 426 -28 q 418 -21 424 -28 q 411 -14 413 -14 q 395 -10 408 -12 q 367 -6 382 -8 q 340 -2 353 -4 q 324 1 326 0 q 310 11 321 3 q 285 26 299 19 q 258 43 271 33 q 222 72 246 53 q 189 140 199 103 q 177 217 179 176 q 174 297 175 257 q 172 371 172 338 l 175 400 q 206 415 188 415 q 236 406 219 414 q 257 335 257 394 q 256 314 257 331 q 256 292 256 310 q 256 278 256 282 q 256 258 256 271 q 256 235 256 247 q 257 215 257 224 q 257 206 257 207 q 263 181 258 199 q 271 161 268 164 q 281 156 272 160 q 301 147 290 151 q 319 139 311 143 q 329 133 328 135 q 339 115 338 125 q 342 95 340 104 q 350 81 344 86 q 372 75 356 75 l 532 75 q 546 90 535 79 q 561 104 557 101 q 583 110 564 106 q 604 118 601 115 q 610 128 606 119 q 619 147 614 136 q 628 165 624 157 q 633 176 632 174 q 647 183 635 179 q 663 190 663 189 l 663 203 l 663 219 q 659 245 661 226 q 655 285 657 264 q 650 325 653 306 q 647 350 649 349 q 619 375 626 371 q 583 406 601 390 q 549 438 564 422 q 532 465 533 453 l 417 465 q 410 458 415 463 q 401 451 404 453 q 399 450 401 450 q 394 450 394 450 q 375 460 389 451 q 347 474 364 467 q 333 476 339 476 q 294 453 310 475 q 249 414 267 414 q 244 414 246 414 l 225 424 q 199 439 211 431 l 179 458 l 179 493 l 182 515 q 185 546 183 536 q 189 581 186 556 z "},"7":{"ha":900,"x_min":168,"x_max":704,"o":"m 371 -203 q 386 -217 374 -217 q 408 -218 399 -218 q 433 -215 425 -218 q 443 -187 440 -211 q 447 -157 444 -181 q 451 -106 449 -133 q 455 -52 453 -78 q 457 -14 457 -26 q 458 12 457 -7 q 458 51 458 31 q 458 91 458 72 q 457 117 457 110 q 469 132 465 118 q 476 165 474 146 q 479 202 478 183 q 486 232 481 221 q 494 239 488 233 q 501 246 500 244 q 519 286 514 264 q 527 331 525 308 q 529 376 529 354 q 531 421 529 400 q 553 427 546 418 q 564 449 561 436 q 568 474 567 461 q 574 493 569 486 q 581 501 575 494 q 595 514 588 507 q 609 527 603 521 q 617 536 615 533 q 622 549 618 539 q 631 572 626 560 q 640 595 636 585 q 646 608 644 606 q 653 616 647 610 q 667 630 660 622 q 681 643 675 638 q 689 651 688 649 q 691 663 689 653 q 695 688 693 674 q 700 716 697 701 q 704 739 703 731 l 704 747 q 686 765 704 758 q 660 782 668 771 l 240 782 l 168 710 q 242 691 207 699 q 313 667 278 683 q 315 666 313 667 q 319 665 318 665 q 344 675 333 665 q 363 696 354 685 q 381 717 372 707 q 400 726 389 726 q 408 726 403 726 q 414 724 414 725 q 422 710 417 722 q 429 696 426 697 q 454 687 442 688 q 476 684 467 686 q 492 676 486 682 q 501 651 499 669 q 502 631 501 646 q 503 600 503 617 q 502 570 503 585 q 501 550 501 556 q 522 601 515 569 q 531 651 528 632 l 531 536 q 510 513 518 528 q 495 480 501 497 q 483 447 489 463 q 472 421 478 431 q 458 403 465 408 q 446 393 451 397 q 435 383 440 389 q 429 363 431 376 q 429 351 429 360 q 429 333 429 343 q 429 314 429 324 q 429 304 429 306 q 424 292 428 300 q 416 274 421 283 q 406 257 411 265 q 400 246 401 249 q 413 235 411 243 q 415 218 415 226 q 402 183 415 199 q 385 146 389 168 q 374 81 378 108 q 370 29 371 54 q 369 -22 369 4 q 369 -86 369 -49 q 369 -110 369 -93 q 370 -144 369 -126 q 371 -179 371 -162 q 371 -203 371 -196 m 594 956 l 594 840 l 617 840 q 635 885 622 867 q 660 919 647 904 q 682 947 672 933 q 692 976 692 960 q 691 990 692 981 q 689 999 690 999 q 675 1017 686 1006 q 660 1028 664 1028 l 486 1028 l 486 999 q 499 997 490 999 q 516 992 507 994 q 533 988 525 990 q 544 985 542 986 q 551 977 546 983 q 558 971 557 971 q 576 963 563 968 q 594 956 590 957 m 299 1028 l 283 999 l 371 999 l 371 1028 l 299 1028 z "},"8":{"ha":904,"x_min":154,"x_max":707,"o":"m 338 31 q 353 -10 338 7 q 393 -28 368 -28 q 412 -22 401 -28 q 431 -8 422 -17 q 447 10 440 0 q 453 31 453 21 l 338 31 m 472 44 q 506 13 485 25 q 551 1 528 1 l 558 1 q 571 5 560 1 q 594 13 582 8 q 618 22 607 17 q 632 31 629 26 q 634 38 632 32 q 638 51 636 44 q 642 65 640 58 q 646 74 644 72 q 660 81 647 76 q 675 88 672 86 q 678 98 676 90 q 681 108 681 106 q 633 102 661 108 q 574 86 604 96 q 517 65 544 76 q 472 44 489 54 m 183 146 q 191 109 185 129 q 208 72 197 89 q 233 42 218 54 q 269 29 249 29 q 286 29 276 29 q 307 31 297 29 q 324 38 317 33 q 331 51 331 43 q 329 56 331 53 q 328 58 328 58 q 313 63 324 58 q 290 71 301 67 q 269 80 279 75 q 256 88 260 85 q 247 98 253 89 q 234 117 242 107 q 220 135 226 126 q 213 146 214 144 q 206 147 211 146 q 197 149 200 149 q 190 147 196 149 q 183 146 185 146 m 154 175 l 168 160 l 168 175 l 154 175 m 689 218 q 676 197 678 206 q 674 175 674 189 q 674 167 674 172 q 675 160 675 163 q 683 182 678 165 q 689 204 688 199 l 689 211 l 689 218 m 183 218 l 183 204 l 213 204 l 213 218 l 183 218 m 300 406 q 284 381 300 396 q 247 348 268 365 q 208 312 226 331 q 183 276 189 293 l 256 276 q 260 297 257 290 q 269 306 264 303 q 282 310 275 308 q 299 319 289 313 q 335 349 322 338 q 359 367 347 361 q 388 376 371 374 q 436 378 404 378 q 461 378 442 378 q 486 376 481 378 q 513 352 494 361 q 553 336 532 343 q 597 322 575 329 q 632 304 618 314 q 638 290 633 303 q 646 276 643 278 q 662 270 649 274 q 678 267 675 267 q 672 289 678 275 q 660 318 667 303 q 645 346 653 333 q 632 363 638 358 q 590 385 615 375 q 542 408 565 396 q 503 436 519 419 q 486 478 486 453 l 486 493 q 517 517 500 503 q 547 547 533 531 q 567 583 560 564 q 574 622 575 601 l 660 622 q 667 639 663 622 q 675 667 672 656 q 678 695 676 675 q 683 738 681 715 q 687 782 685 761 q 689 811 689 803 q 706 829 704 818 q 707 856 707 840 q 668 844 679 856 q 651 817 657 832 q 636 791 644 803 q 604 779 628 779 q 575 784 582 779 q 567 795 568 789 q 564 807 565 801 q 551 813 563 813 q 540 807 543 813 q 535 795 538 801 q 529 784 533 789 q 515 779 525 779 q 494 785 503 779 q 486 811 485 792 l 386 811 q 378 786 388 792 q 358 781 369 781 q 338 789 343 781 q 321 797 333 797 q 310 793 318 797 q 294 783 303 789 q 278 773 285 778 q 269 768 271 768 q 259 758 265 765 q 246 744 253 751 q 233 731 239 738 q 226 724 228 725 q 223 714 225 722 q 219 696 221 706 q 215 677 217 686 q 213 667 213 668 q 205 659 211 664 q 197 651 199 654 q 197 643 197 651 q 196 629 196 635 q 202 590 196 606 q 226 550 208 574 q 230 549 228 550 q 233 549 232 549 q 238 549 236 549 q 240 550 240 550 q 249 571 243 554 q 256 594 254 588 q 255 605 256 596 q 254 622 254 614 q 254 640 254 632 q 256 651 254 649 q 261 658 256 653 q 274 672 267 664 q 288 685 281 679 q 299 696 294 692 q 325 715 307 703 q 363 738 343 726 q 400 759 382 750 q 428 768 418 768 l 443 768 q 458 760 446 767 q 472 753 469 754 q 498 749 479 751 q 538 745 517 747 q 577 741 558 743 q 603 739 596 739 q 606 721 604 735 q 608 703 608 707 q 606 682 608 696 q 603 667 604 668 q 593 663 601 664 q 574 659 585 661 q 555 655 564 657 q 544 651 546 653 q 528 632 536 646 q 512 601 519 618 q 497 570 504 585 q 486 550 490 556 q 472 544 485 549 q 458 536 460 539 q 440 513 446 524 q 428 494 435 503 q 412 481 422 486 q 381 476 401 476 q 351 481 364 476 q 325 492 338 486 q 299 503 313 499 q 268 508 285 508 q 273 478 268 493 q 284 451 278 464 q 295 426 290 438 q 300 406 300 415 z "},"9":{"ha":904,"x_min":161,"x_max":690,"o":"m 213 -194 q 228 -216 213 -214 q 256 -218 243 -218 q 272 -217 261 -218 q 285 -217 283 -217 q 299 -210 288 -217 q 314 -203 311 -203 q 340 -197 321 -201 q 379 -187 358 -192 q 419 -178 400 -182 q 444 -174 438 -175 q 452 -167 447 -172 q 458 -158 457 -161 q 462 -150 460 -157 q 466 -136 464 -143 q 470 -123 468 -129 q 474 -115 472 -117 q 483 -112 475 -114 q 501 -109 492 -111 q 519 -105 511 -107 q 531 -101 528 -103 q 547 -77 533 -100 q 577 -27 561 -54 q 606 24 593 0 q 618 51 618 47 l 618 58 q 599 65 615 60 q 574 72 582 69 q 571 73 574 72 q 565 74 568 74 q 562 73 564 74 q 560 72 560 72 q 552 58 557 69 q 546 43 547 46 q 529 19 540 35 q 517 0 518 3 q 502 -8 514 -3 q 488 -14 490 -12 q 487 -17 488 -14 q 486 -21 486 -19 q 494 -38 486 -33 q 503 -58 503 -43 q 503 -64 503 -60 q 501 -72 503 -69 q 490 -74 499 -72 q 472 -77 482 -75 q 455 -82 463 -79 q 444 -86 447 -85 q 437 -101 442 -89 q 429 -115 432 -114 q 415 -123 428 -118 q 400 -131 403 -128 q 393 -137 399 -132 q 386 -144 388 -142 l 228 -174 q 220 -179 225 -174 q 213 -187 215 -185 l 213 -194 m 618 188 q 592 153 599 175 q 585 110 585 131 q 594 112 588 110 q 603 115 601 114 q 610 131 606 118 q 618 144 615 143 q 632 152 619 147 q 646 160 644 157 q 657 193 657 174 q 657 231 657 213 q 663 266 657 250 q 690 289 668 282 l 690 383 q 689 475 690 471 q 683 563 682 553 q 683 589 685 575 q 681 611 682 600 q 669 646 681 611 q 650 675 669 646 l 600 665 q 618 607 613 626 l 618 492 q 586 444 594 476 q 574 390 578 413 q 548 385 567 389 q 509 376 529 381 q 470 367 489 372 q 444 361 451 363 q 437 358 443 361 q 423 353 431 356 q 408 350 415 351 q 400 347 401 347 l 392 347 q 378 346 382 346 q 366 347 374 346 q 357 347 358 347 q 350 354 356 347 q 343 361 344 361 q 332 365 340 363 q 314 369 324 367 q 295 373 304 371 q 285 376 286 375 q 277 390 282 378 q 271 404 272 403 q 256 412 268 407 q 242 419 243 417 q 238 429 240 421 q 231 447 236 438 q 225 467 225 457 q 214 488 225 488 q 203 488 208 488 l 192 479 q 178 489 194 489 l 163 492 q 169 469 163 479 q 182 457 175 460 q 194 450 189 454 q 200 435 200 446 q 198 417 200 425 q 183 404 196 408 q 217 354 196 375 q 263 319 238 333 q 316 294 288 304 q 372 275 344 283 l 378 275 l 386 275 q 402 278 389 275 q 430 283 415 281 q 457 287 444 285 q 474 289 469 289 q 483 289 475 289 q 501 289 493 289 q 519 289 511 289 q 531 289 528 289 q 544 303 533 290 q 560 318 558 318 l 565 319 q 574 319 571 319 q 585 319 578 319 q 599 317 592 318 q 613 312 607 315 q 618 304 618 308 l 618 188 m 431 825 q 161 501 161 825 q 222 514 221 501 q 228 578 225 546 l 228 585 q 219 603 228 597 q 211 624 211 608 q 211 631 211 626 l 213 636 q 222 642 213 638 q 242 650 232 646 q 260 658 251 654 q 271 665 269 663 q 275 686 275 669 q 271 708 275 703 q 312 719 290 711 q 354 734 333 726 q 395 747 375 742 q 431 753 415 753 q 447 752 436 753 q 458 751 457 751 q 476 744 464 750 q 503 732 489 739 q 529 718 517 725 q 546 708 542 711 q 562 708 546 711 q 581 713 578 704 q 585 731 583 722 q 588 743 588 739 l 588 750 l 588 757 q 536 799 563 783 q 431 825 489 825 m 603 738 l 586 686 l 649 686 l 603 738 z "},"":{"ha":0,"x_min":0,"x_max":0,"o":""},"":{"ha":694,"x_min":0,"x_max":0,"o":""}," ":{"ha":900,"x_min":0,"x_max":0,"o":""},"!":{"ha":900,"x_min":343,"x_max":578,"o":"m 343 160 q 348 197 343 176 q 363 234 353 217 q 388 263 374 251 q 422 275 403 275 q 471 269 451 275 q 506 253 490 263 q 538 235 522 244 q 576 217 554 225 q 577 194 576 211 q 578 172 578 178 q 577 147 578 164 q 576 129 576 131 q 563 115 575 126 q 547 100 550 103 q 540 85 544 97 q 532 71 535 74 q 524 63 529 68 q 518 57 519 57 l 403 57 q 380 80 390 75 q 361 91 369 85 q 348 110 353 97 q 343 160 343 124 m 388 418 q 394 410 389 415 q 403 404 400 406 l 408 404 q 453 409 432 404 q 489 433 475 414 q 507 458 496 442 q 518 476 518 475 l 518 693 q 531 704 529 697 q 533 721 533 711 q 519 797 533 757 q 489 867 504 836 q 474 893 485 876 q 460 910 463 910 q 434 906 449 914 q 407 886 419 899 q 385 860 394 874 q 374 838 375 846 q 373 819 374 838 q 372 789 372 800 q 377 601 372 697 q 388 418 382 504 m 417 519 l 446 519 l 446 490 l 417 490 l 417 519 z "},"\"":{"ha":900,"x_min":275,"x_max":696,"o":"m 536 519 q 538 527 536 521 q 543 541 540 533 q 549 555 546 549 q 551 563 551 561 l 551 576 l 551 592 q 546 621 550 600 q 537 665 542 642 q 528 708 532 688 q 522 736 524 728 q 535 760 532 747 q 537 785 538 772 q 535 811 536 797 q 536 838 533 825 q 540 848 536 839 q 550 866 544 857 q 560 883 556 875 q 565 894 564 892 q 573 917 568 900 q 579 939 578 933 q 597 906 585 918 q 624 883 610 893 q 654 863 639 872 q 681 838 669 853 q 684 806 682 829 q 688 758 686 783 q 692 710 690 733 q 696 678 694 688 l 696 664 q 692 597 696 633 q 683 525 689 561 q 673 453 678 489 q 667 389 668 418 q 639 375 653 376 q 608 374 625 374 q 568 387 579 374 q 554 419 557 400 q 553 461 553 429 q 553 476 553 469 q 551 506 554 488 q 543 513 551 506 q 536 519 536 518 m 306 592 q 285 629 292 607 q 277 675 279 651 q 275 722 275 699 q 275 767 275 747 q 278 813 275 799 q 290 835 282 828 q 313 848 299 843 q 349 867 326 853 q 354 871 350 867 q 363 881 358 875 q 372 890 368 886 q 378 894 376 894 q 383 897 378 896 q 392 897 389 897 q 399 897 394 897 q 407 894 404 896 q 410 875 408 889 q 415 845 413 861 q 419 815 417 829 q 421 794 421 800 l 421 754 l 421 707 q 419 644 421 689 q 414 548 417 599 q 409 452 411 497 q 407 389 407 407 l 378 389 q 354 390 367 389 q 331 397 342 392 q 313 410 321 401 q 306 433 306 418 l 306 592 z "},"#":{"ha":904,"x_min":151,"x_max":790,"o":"m 425 44 q 426 13 425 33 q 433 -26 428 -7 q 448 -60 438 -46 q 478 -74 458 -74 q 488 -65 483 -74 q 497 -43 493 -56 q 506 -18 501 -31 q 514 0 510 -6 q 520 7 514 1 q 528 15 526 13 q 535 32 531 21 q 545 54 540 43 q 553 75 550 65 q 557 88 557 85 q 560 124 558 94 q 565 188 563 154 q 569 252 567 222 q 571 290 571 282 q 576 338 574 314 q 600 376 579 361 q 615 383 603 378 q 629 392 626 389 q 636 399 631 392 q 643 406 642 406 q 658 406 646 406 q 687 405 672 406 q 714 404 701 404 q 731 406 728 404 q 745 419 733 407 q 760 435 757 432 q 775 443 769 442 q 784 446 781 444 q 789 451 788 447 q 790 464 790 454 q 780 481 790 471 q 756 501 769 492 q 728 516 742 510 q 708 522 714 522 q 704 522 707 522 q 701 521 701 521 q 694 517 700 521 q 680 507 688 513 q 666 497 672 501 q 658 492 660 493 q 651 491 657 492 q 642 490 644 490 q 624 498 631 490 q 616 516 618 506 q 614 538 614 526 q 614 558 614 550 q 614 569 614 561 q 615 586 614 578 q 620 601 617 594 q 629 608 624 608 l 789 608 l 789 671 q 735 660 757 671 q 686 650 714 650 q 662 656 676 650 q 633 672 647 663 q 609 693 619 682 q 599 714 599 704 q 607 763 599 739 q 615 811 615 786 l 615 825 q 607 811 613 822 q 600 796 601 800 q 589 767 597 788 q 571 724 581 747 q 553 681 561 701 q 542 651 544 660 l 421 651 q 422 677 421 658 q 424 717 424 696 q 426 756 425 738 q 426 782 426 775 q 421 797 426 786 q 413 811 415 808 q 408 788 411 804 q 399 753 404 771 q 390 718 394 735 q 383 694 385 701 q 361 659 376 678 q 325 638 346 640 q 345 633 331 636 q 376 624 360 629 q 407 615 393 619 q 426 608 421 611 q 441 594 429 607 q 456 579 453 582 q 476 571 465 574 q 495 565 486 568 q 510 556 504 563 q 515 535 515 549 q 514 522 515 525 q 510 519 513 519 q 501 517 507 518 q 485 507 494 515 q 476 499 482 506 q 463 485 469 492 q 449 472 456 478 q 440 464 442 465 q 432 463 439 463 q 419 463 426 463 q 406 464 413 464 q 397 464 399 464 q 392 456 396 463 q 383 442 388 450 q 374 428 378 435 q 368 419 369 421 q 356 423 365 417 q 343 429 346 429 q 341 439 343 432 q 339 449 339 446 q 346 471 340 454 q 354 492 351 488 q 343 494 351 493 q 332 494 335 494 q 319 494 328 494 q 311 492 311 493 q 303 478 308 490 q 296 464 299 465 q 284 467 293 461 q 272 472 275 472 q 276 499 272 489 q 285 520 279 510 q 297 544 290 531 q 311 579 304 558 q 294 597 299 588 q 283 617 289 607 q 270 633 278 626 q 246 639 263 639 q 206 624 222 639 q 165 601 189 610 l 210 601 l 210 449 l 151 419 q 166 416 156 418 q 188 412 176 414 q 209 408 199 410 q 224 406 219 406 q 233 406 225 406 q 253 406 243 406 q 271 406 263 406 q 282 406 279 406 q 294 397 290 404 q 298 380 297 389 q 298 363 299 371 q 297 351 297 354 q 294 270 297 307 q 282 189 292 233 q 276 169 281 185 q 267 138 272 154 q 257 106 261 121 q 253 88 253 92 q 252 65 253 85 q 251 36 251 46 q 252 11 251 31 q 253 -14 253 -8 q 274 -22 258 -17 q 296 -29 290 -28 l 304 -29 l 311 -29 q 325 -15 314 -26 q 339 0 336 -4 l 290 0 q 289 9 290 3 q 285 22 288 15 q 282 35 283 29 q 282 43 281 40 q 297 63 288 56 q 316 75 306 69 q 337 85 326 81 q 354 101 347 90 q 355 127 354 108 q 356 153 356 146 q 351 201 356 178 q 340 247 346 224 q 328 293 333 269 q 324 340 324 317 q 326 370 324 361 q 337 383 329 379 q 356 387 344 386 q 383 392 367 388 q 398 398 386 392 q 413 406 410 404 l 426 406 q 454 403 443 406 q 485 392 465 400 q 485 369 485 386 q 486 347 486 353 q 476 272 486 310 q 456 196 467 233 q 435 120 444 158 q 425 44 425 82 m 615 926 l 615 897 l 629 897 l 615 926 m 629 1014 q 622 1006 622 1015 q 629 999 622 997 q 636 1006 636 1001 q 629 1014 636 1011 z "},"%":{"ha":900,"x_min":89,"x_max":785,"o":"m 283 15 l 206 15 q 199 4 204 15 q 192 -14 194 -7 q 184 -40 189 -22 q 175 -77 179 -58 q 167 -111 171 -96 q 163 -131 163 -126 q 161 -147 163 -135 q 159 -174 160 -160 q 158 -200 158 -187 q 157 -217 157 -212 l 192 -217 q 200 -203 193 -215 q 218 -173 207 -190 q 235 -144 229 -156 q 249 -115 246 -125 q 253 -81 253 -104 q 244 -83 250 -81 q 235 -86 238 -85 q 228 -101 232 -89 q 221 -115 224 -114 q 208 -112 218 -118 q 196 -107 199 -107 q 210 -60 196 -74 q 240 -40 224 -47 q 269 -22 256 -32 q 283 15 283 -12 m 353 258 q 352 251 353 256 q 350 246 351 246 q 342 242 349 244 q 329 238 336 240 q 315 234 322 236 q 307 232 308 232 q 279 201 290 224 q 260 152 268 179 q 249 99 253 125 q 246 56 246 72 q 311 76 293 56 q 336 125 329 97 q 349 183 343 153 q 379 232 356 213 q 389 231 382 233 q 403 226 396 229 q 417 219 410 222 q 426 217 424 217 q 439 155 426 183 q 473 105 451 126 q 524 71 494 83 q 589 58 554 58 q 683 90 644 58 q 743 167 721 121 q 775 265 765 213 q 785 361 785 318 l 785 433 q 761 460 775 444 q 732 488 747 475 q 700 511 717 501 q 668 521 683 521 q 622 515 640 521 q 588 501 604 508 q 551 487 571 493 q 503 481 532 481 q 501 498 503 486 q 498 523 500 510 q 495 548 496 536 q 494 564 494 560 q 499 579 494 567 q 509 606 504 592 q 519 634 514 621 q 524 650 524 647 q 519 665 525 654 q 510 679 513 676 q 504 681 510 681 q 496 681 499 681 q 474 678 483 681 q 451 665 464 675 q 465 653 464 661 q 467 638 467 646 q 463 615 467 631 q 452 583 458 600 q 438 553 446 567 q 422 535 429 539 q 411 538 419 532 q 399 544 403 544 q 397 556 399 549 q 394 571 394 564 q 396 584 393 578 q 408 593 399 590 q 383 600 389 592 q 378 621 378 608 q 383 643 378 633 q 394 663 388 653 q 405 685 400 674 q 410 711 410 696 q 409 726 410 717 q 408 738 408 736 q 394 744 407 740 q 379 751 381 749 q 377 760 379 753 q 372 777 375 768 q 367 795 369 786 q 365 810 365 804 q 365 817 365 811 q 364 825 364 822 q 378 861 364 850 q 410 881 393 872 q 441 901 426 889 q 456 942 456 914 q 406 937 432 942 q 365 911 379 932 q 358 896 363 908 q 350 882 353 883 q 340 881 349 881 q 321 882 332 882 q 303 883 311 882 q 293 882 294 883 q 286 874 290 881 q 278 860 282 868 q 269 847 274 853 q 264 839 265 840 q 256 835 263 838 q 242 831 250 833 q 228 827 235 829 q 221 824 222 825 q 206 814 217 822 q 192 803 194 806 l 322 803 q 328 789 322 803 q 336 767 333 775 q 344 744 342 751 q 349 731 347 736 q 351 719 350 725 q 351 701 351 713 q 339 635 351 674 q 307 578 326 597 q 274 560 297 568 q 225 542 250 551 q 181 520 200 532 q 163 492 163 508 q 172 476 163 482 q 195 467 182 471 q 222 463 208 464 q 242 463 235 463 q 282 465 261 463 q 322 478 303 468 q 336 492 325 479 q 350 506 347 504 q 358 503 353 508 q 367 499 364 499 q 369 474 367 492 q 375 438 372 457 q 379 401 378 418 q 379 376 381 383 q 372 358 378 371 q 360 331 367 344 q 347 305 353 317 q 336 289 340 293 q 350 277 347 286 q 353 258 353 268 m 508 254 q 518 303 508 276 q 544 352 528 329 q 584 391 561 375 q 632 407 607 407 q 660 401 646 407 q 685 385 674 394 q 705 361 697 375 q 713 333 713 347 q 680 239 713 276 q 589 201 647 201 q 534 211 560 201 q 508 254 508 221 m 379 304 l 408 304 l 408 260 l 379 260 l 379 304 m 89 607 q 95 567 89 589 q 119 535 101 544 l 119 542 l 119 550 q 115 565 118 556 q 110 585 113 575 q 106 601 108 594 q 104 607 104 607 l 89 607 m 176 781 l 163 738 q 166 737 164 738 q 169 736 168 736 q 174 737 172 736 q 176 738 176 738 q 186 745 181 740 q 192 751 192 750 q 186 767 192 756 q 176 781 181 778 m 524 767 q 535 753 528 756 q 553 751 543 751 q 570 753 563 751 q 582 767 578 756 q 613 867 601 819 q 640 968 625 915 q 653 988 643 981 q 673 1003 663 996 q 691 1016 683 1010 q 699 1033 699 1022 q 698 1038 699 1035 q 697 1042 697 1040 q 690 1065 694 1049 q 683 1085 685 1082 l 676 1085 l 668 1085 q 614 1074 640 1078 q 566 1061 588 1071 q 530 1034 544 1051 q 510 983 515 1017 q 514 968 508 979 q 524 954 519 957 q 531 979 522 974 q 553 985 540 985 q 584 972 571 985 q 597 942 597 960 q 594 912 597 924 q 582 882 590 900 q 571 858 579 875 q 553 824 563 842 q 536 789 544 806 q 524 767 528 772 z "},"&":{"ha":900,"x_min":114,"x_max":842,"o":"m 114 281 q 119 217 114 251 q 144 158 124 182 q 164 137 150 151 q 194 106 178 122 q 224 76 210 90 q 246 57 239 63 q 263 56 250 57 q 289 55 275 56 q 315 54 303 54 q 332 54 328 54 q 354 54 340 54 q 382 55 368 54 q 407 56 396 56 q 419 57 418 57 q 435 64 422 57 q 462 78 447 71 q 489 93 476 86 q 506 100 501 100 q 527 102 508 101 q 557 103 546 103 q 602 95 582 103 q 640 78 622 88 q 676 62 658 69 q 718 54 694 54 q 728 55 721 54 q 738 57 736 56 l 839 158 q 840 167 839 160 q 842 178 842 174 q 831 215 842 199 q 796 232 819 232 q 768 224 782 232 q 741 208 754 217 q 713 192 728 200 q 685 185 699 185 q 657 193 667 185 q 642 214 647 201 q 636 242 638 226 q 635 271 635 257 q 636 301 635 281 q 642 342 638 322 q 655 376 646 361 q 679 392 664 392 q 701 386 692 392 q 708 361 710 381 l 794 361 q 801 372 796 361 q 810 389 807 382 q 817 413 813 396 q 824 433 822 429 q 824 436 824 433 q 825 440 825 439 q 813 464 825 450 q 783 490 800 478 q 750 512 767 503 q 724 521 733 521 q 704 515 715 521 q 683 502 693 510 q 663 487 672 494 q 650 476 654 479 q 635 463 646 472 q 613 441 625 453 q 592 419 601 429 q 578 404 582 408 q 567 403 575 404 q 557 403 560 403 q 500 414 526 403 q 474 460 474 425 q 494 540 474 510 q 541 601 515 571 q 588 667 567 631 q 608 767 608 704 q 596 826 608 801 q 562 867 583 851 q 512 891 540 883 q 450 899 483 899 q 423 898 440 899 q 404 896 406 897 q 390 883 401 894 q 364 858 378 872 q 337 831 350 844 q 318 808 324 817 q 309 788 315 804 q 303 765 303 772 l 303 549 q 297 540 303 547 q 281 524 290 533 q 261 506 271 515 q 246 490 251 496 q 231 483 243 489 q 217 476 219 478 q 192 460 208 471 q 174 447 175 450 q 166 433 171 444 q 158 418 161 421 q 144 403 156 415 q 129 389 132 392 q 115 336 117 364 q 114 281 114 308 m 201 318 q 217 356 201 332 q 253 404 232 381 q 294 446 274 428 q 325 464 314 464 q 359 455 347 464 q 378 432 371 446 q 390 403 385 418 q 404 375 394 388 q 419 367 407 372 q 433 361 432 363 q 440 343 435 360 q 447 317 444 326 q 455 295 450 308 q 465 267 460 282 q 474 238 471 253 q 478 214 478 224 q 467 193 478 201 q 443 180 457 185 q 415 173 429 175 q 392 171 400 171 q 366 172 383 171 q 347 172 349 172 q 336 175 344 172 q 318 181 328 178 q 299 185 308 183 q 289 188 290 188 q 274 178 278 188 q 269 157 271 168 q 263 136 267 146 q 246 126 258 126 q 238 127 243 126 q 231 129 233 128 q 213 223 225 172 q 201 318 201 274 m 375 701 q 381 737 375 715 q 396 778 386 758 q 419 811 406 797 q 449 825 432 825 q 456 824 451 825 q 463 824 461 824 q 477 815 467 821 q 499 803 488 810 q 521 790 511 796 q 535 781 531 783 q 535 769 535 778 q 536 758 536 761 q 526 718 536 742 q 502 673 517 694 q 469 635 488 651 q 435 619 451 619 q 387 644 399 619 q 375 701 375 669 z "},"'":{"ha":900,"x_min":394,"x_max":554,"o":"m 408 433 q 405 494 407 450 q 401 585 403 538 q 397 677 399 633 q 394 738 394 721 l 394 796 q 397 834 394 814 q 408 872 400 854 q 429 900 415 889 q 467 911 443 911 q 510 890 493 911 q 536 840 526 869 q 550 780 546 811 q 554 728 554 749 q 552 713 554 718 q 547 703 550 707 q 541 694 543 699 q 539 681 539 689 l 539 665 q 542 651 539 663 q 547 628 544 640 q 552 606 550 617 q 554 592 554 594 q 552 572 554 588 q 548 538 550 556 q 543 502 546 519 q 539 476 540 485 q 523 451 536 464 q 494 426 510 438 q 462 408 478 415 q 438 404 446 401 q 422 417 432 406 q 408 433 411 428 z "},"(":{"ha":900,"x_min":343,"x_max":697,"o":"m 343 519 q 343 604 343 560 q 350 692 343 649 q 376 773 357 735 q 431 839 394 811 q 430 821 431 833 q 429 794 429 808 q 430 769 429 782 q 431 751 431 757 q 438 743 432 749 q 446 738 443 738 q 445 697 446 726 q 444 636 444 668 q 445 575 444 604 q 446 535 446 546 q 448 524 446 532 q 453 506 450 515 q 458 488 456 497 q 460 478 460 479 q 460 469 460 476 q 460 456 460 464 q 460 442 460 449 q 460 435 460 436 q 463 396 461 419 q 468 349 465 372 q 473 309 471 326 q 475 290 475 292 q 481 276 475 288 q 495 253 488 265 q 510 231 503 242 q 518 218 517 221 q 551 151 535 188 q 590 88 567 114 q 606 71 593 83 q 633 44 618 58 q 660 17 647 29 q 676 1 674 4 q 690 -24 686 -10 q 696 -54 694 -39 q 697 -85 697 -69 q 696 -110 696 -100 q 672 -112 692 -110 q 647 -115 653 -114 q 640 -122 646 -115 q 633 -129 635 -129 q 628 -130 633 -129 q 619 -131 622 -131 q 589 -123 604 -131 q 560 -104 574 -115 q 536 -81 547 -93 q 518 -57 525 -68 q 501 -26 514 -51 q 474 30 489 0 q 447 85 460 60 q 431 117 435 110 q 414 144 422 133 q 399 165 406 154 q 385 187 392 175 q 374 218 379 199 q 374 225 374 219 q 374 239 374 232 q 374 253 374 247 q 374 261 374 260 q 368 285 372 265 q 358 326 364 304 q 349 367 353 347 q 344 390 344 386 q 344 407 344 392 q 344 443 344 422 q 343 485 343 464 q 343 519 343 507 m 518 853 q 496 846 513 846 q 475 853 479 846 q 479 857 472 856 q 496 858 486 858 q 513 857 506 858 q 518 853 519 856 m 501 946 q 505 978 501 957 q 515 1019 508 999 q 529 1054 521 1039 q 547 1069 538 1069 q 576 1064 554 1069 q 604 1056 597 1058 q 607 1030 606 1049 q 608 1004 608 1011 q 607 976 608 994 q 604 954 606 957 q 597 944 604 951 q 581 928 590 938 q 563 909 572 918 q 547 896 553 900 l 540 896 q 510 913 519 896 q 501 946 501 929 z "},")":{"ha":904,"x_min":247,"x_max":581,"o":"m 260 -40 q 268 19 260 -6 q 290 63 276 43 q 323 101 304 82 q 363 146 342 121 q 370 158 365 147 q 378 175 375 169 q 399 219 386 197 q 421 261 411 240 q 468 448 457 349 q 479 639 479 547 q 472 665 479 654 q 464 689 464 675 q 472 705 464 700 q 479 725 479 710 q 473 745 479 738 q 458 758 467 753 q 438 769 449 764 q 421 782 428 775 q 403 801 414 789 q 383 828 393 814 q 363 858 372 843 q 349 883 353 872 q 347 892 349 885 q 342 906 344 899 q 337 919 339 913 q 335 926 335 925 q 324 938 332 929 q 305 956 315 946 q 286 974 294 965 q 276 985 278 982 q 269 996 274 988 q 260 1013 265 1004 q 252 1031 256 1022 q 247 1043 249 1039 l 261 1043 q 308 1038 289 1043 q 342 1022 326 1032 q 373 999 358 1013 q 407 971 388 986 q 421 963 408 968 q 435 956 433 958 q 440 946 436 954 q 449 927 444 938 q 458 908 454 917 q 464 899 463 900 q 472 890 465 896 q 486 876 479 883 q 500 863 493 869 q 508 854 507 856 q 548 766 533 814 q 569 668 563 718 q 578 567 576 618 q 581 471 581 517 q 559 265 581 367 q 493 74 538 164 q 491 65 493 72 q 486 51 489 58 q 481 38 483 44 q 479 31 479 32 q 453 -6 474 21 q 410 -60 433 -32 q 365 -109 386 -87 q 335 -131 343 -131 q 273 -107 286 -131 q 260 -40 260 -83 z "},"*":{"ha":900,"x_min":224,"x_max":704,"o":"m 371 521 q 325 512 347 521 q 283 492 303 503 q 270 512 272 503 q 268 535 268 521 q 270 547 268 543 q 276 556 272 551 q 281 565 279 560 q 283 576 283 569 q 276 636 283 601 q 254 693 268 671 q 239 708 251 696 q 225 722 226 719 q 224 731 225 724 q 224 743 224 739 q 228 767 224 760 q 240 778 232 775 q 258 785 247 782 q 283 794 269 788 q 290 802 285 796 q 297 810 296 808 q 316 813 301 811 q 348 816 331 814 q 381 819 365 818 q 399 824 396 821 q 410 836 403 826 q 425 857 418 846 q 437 879 432 868 q 442 896 442 890 q 449 897 444 897 q 457 897 454 897 q 483 885 469 897 q 508 857 496 874 q 530 823 521 840 q 543 794 539 806 q 561 794 547 794 q 579 793 575 793 q 603 796 594 793 q 618 802 611 799 q 633 808 625 806 q 653 811 640 811 q 674 805 667 811 q 685 789 682 799 q 689 767 689 779 q 689 744 689 756 q 688 726 689 740 q 688 708 688 713 q 672 703 683 710 q 658 693 661 697 l 658 675 q 665 627 658 647 q 681 590 672 607 q 697 558 690 574 q 704 526 704 543 q 690 490 704 504 q 651 476 675 476 q 617 485 632 476 q 579 493 603 493 q 536 480 547 493 q 519 447 525 467 q 509 403 514 426 q 485 361 504 381 q 482 360 485 361 q 478 360 479 360 q 474 360 476 360 q 471 361 471 361 q 463 376 468 364 q 457 390 458 388 q 449 398 456 392 q 434 411 442 404 q 420 424 426 418 q 413 433 414 431 q 410 460 408 444 q 410 488 411 475 q 401 511 408 501 q 371 521 393 521 z "},"+":{"ha":904,"x_min":213,"x_max":765,"o":"m 408 217 q 408 165 408 192 q 412 113 408 139 q 424 61 415 86 q 447 14 432 36 q 465 13 450 14 q 483 13 479 13 q 535 32 518 13 q 557 81 550 50 q 563 135 563 107 q 561 142 563 142 q 561 164 561 142 q 563 201 561 183 q 596 200 582 199 q 617 200 596 200 q 683 210 646 200 q 741 235 717 218 q 765 282 765 251 q 748 323 765 306 q 707 346 731 340 q 678 350 699 347 q 635 356 658 353 q 592 360 613 358 q 563 361 571 361 q 555 419 557 385 q 547 487 553 454 q 526 542 540 519 q 482 565 511 565 q 451 550 464 565 q 432 519 439 535 q 428 507 429 515 l 428 499 l 486 499 l 489 485 q 490 463 493 471 q 482 438 482 438 q 463 432 478 432 q 444 434 453 432 q 432 447 436 436 q 424 442 429 447 q 418 433 418 436 q 416 419 417 429 q 415 397 415 408 q 416 376 415 386 q 418 361 417 365 q 395 354 411 358 q 360 345 379 350 q 325 337 342 340 q 301 332 308 333 q 270 331 286 329 q 242 330 254 332 q 221 319 229 328 q 213 289 213 311 q 228 242 213 261 q 274 224 243 224 l 274 274 l 339 274 q 343 260 339 271 q 346 246 347 249 q 332 230 343 240 q 317 217 321 219 l 408 217 m 447 115 l 475 115 l 475 86 l 447 86 l 447 115 m 664 274 l 693 274 l 693 246 l 664 246 l 664 274 z "},",":{"ha":904,"x_min":382,"x_max":543,"o":"m 413 -43 q 419 -49 419 -44 q 413 -57 419 -54 q 406 -50 406 -60 q 413 -43 406 -40 m 382 158 q 382 176 382 164 q 384 203 382 190 q 390 225 386 215 q 404 235 394 235 q 415 229 413 235 q 421 217 418 224 q 427 206 424 211 q 442 201 431 201 q 457 209 454 201 q 461 225 460 217 q 465 241 463 233 q 476 249 467 249 q 482 248 479 249 q 485 247 485 247 q 492 233 488 244 q 499 218 497 221 q 522 185 513 199 q 535 159 531 172 q 542 129 540 146 q 543 86 543 113 q 536 49 543 67 q 520 13 529 31 q 501 -22 511 -4 q 485 -57 490 -39 q 479 -42 485 -53 q 471 -28 474 -31 q 463 -25 469 -26 q 448 -22 456 -24 q 434 -17 440 -19 q 426 -14 428 -15 q 425 -3 425 -12 q 426 15 425 6 q 426 33 426 25 q 426 44 426 42 q 419 61 425 49 q 405 88 413 74 q 391 115 397 103 q 383 131 385 128 q 383 142 383 132 q 382 158 382 153 z "},"-":{"ha":904,"x_min":207,"x_max":760,"o":"m 321 368 q 323 376 321 374 q 327 382 325 379 q 331 390 329 385 q 333 404 333 394 q 323 408 331 404 q 307 414 315 411 q 291 419 299 417 q 281 419 283 421 q 274 398 278 417 q 267 376 269 379 q 253 367 264 374 q 238 361 242 361 q 218 394 229 383 q 207 428 207 404 q 211 458 207 444 q 238 478 215 471 q 247 478 239 478 q 265 478 257 478 q 283 478 275 478 q 294 478 292 478 q 314 480 299 478 q 346 485 329 482 q 377 490 363 488 q 396 492 392 492 q 415 492 397 492 q 456 492 433 492 q 503 493 479 493 q 540 493 526 493 q 569 493 549 493 q 613 492 590 493 q 657 492 636 492 q 686 492 678 492 q 718 479 704 485 q 741 466 732 474 q 755 447 750 458 q 760 417 760 436 q 745 383 760 396 q 710 361 731 369 q 666 350 689 353 q 628 347 643 347 q 617 349 625 347 q 599 354 608 351 q 581 359 589 357 q 569 361 572 361 q 520 363 556 363 q 445 365 485 364 q 370 367 406 367 q 321 368 335 368 m 657 419 l 686 419 l 686 390 l 657 390 l 657 419 z "},".":{"ha":904,"x_min":301,"x_max":547,"o":"m 301 136 q 308 178 301 154 q 326 223 314 201 q 354 260 338 244 q 393 275 371 275 q 449 268 421 275 q 498 247 476 261 q 533 210 519 233 q 547 157 547 188 l 547 143 q 533 119 542 133 q 515 90 524 104 q 498 67 506 76 q 489 57 490 57 l 374 57 q 356 74 368 65 q 332 91 344 82 q 310 111 319 100 q 301 136 301 122 z "},"/":{"ha":904,"x_min":218,"x_max":697,"o":"m 218 -175 q 222 -108 218 -143 q 233 -43 226 -72 q 238 -34 233 -42 q 246 -17 242 -26 q 255 1 250 -8 q 263 15 260 10 q 268 23 264 17 q 278 37 272 29 q 288 51 283 44 q 292 58 292 57 q 296 77 293 64 q 301 105 299 90 q 304 133 303 119 q 306 153 306 147 l 364 153 l 364 196 l 300 196 l 301 204 q 306 218 303 213 q 321 232 308 221 q 335 246 333 243 q 337 254 335 247 q 341 270 339 261 q 346 289 343 279 q 350 304 349 299 q 353 331 353 318 q 356 354 354 343 q 363 374 358 365 q 379 392 368 383 q 393 398 381 393 q 407 406 406 403 q 413 440 411 415 q 417 492 414 465 q 428 536 421 518 q 451 550 435 554 q 453 568 451 556 q 456 594 454 581 q 461 619 458 607 q 465 638 464 632 q 472 644 465 639 q 479 651 479 650 q 493 690 488 665 q 507 740 499 715 q 528 784 515 764 q 560 810 540 804 l 560 940 q 589 969 572 946 q 621 1019 606 993 q 647 1065 636 1044 q 660 1086 658 1086 q 664 1085 661 1086 q 668 1085 667 1085 q 686 1077 675 1082 q 697 1071 697 1072 l 697 969 q 689 963 694 968 q 682 956 683 958 q 676 944 681 953 q 667 926 672 936 q 658 908 663 917 q 653 897 654 899 q 646 890 653 896 q 639 883 639 885 q 639 869 639 881 q 639 846 639 858 q 639 824 639 835 q 639 810 639 813 q 633 797 639 807 q 625 782 628 786 q 611 745 617 769 q 599 695 606 721 q 585 648 593 669 q 567 622 578 626 l 508 406 q 491 383 496 403 q 483 339 486 364 q 477 288 481 314 q 465 246 474 263 q 454 227 463 242 q 435 196 446 213 q 417 165 425 179 q 407 146 408 150 q 406 134 407 144 q 406 118 406 124 q 406 92 406 110 q 422 72 407 75 q 406 60 417 71 q 393 44 396 49 q 393 33 393 42 q 393 15 393 25 q 393 -3 393 6 q 393 -14 393 -12 q 378 -21 392 -17 q 364 -28 365 -25 q 364 -36 364 -29 q 364 -50 364 -43 q 364 -64 364 -57 q 364 -72 364 -71 q 362 -92 364 -79 q 357 -118 360 -104 q 352 -144 354 -132 q 350 -158 350 -156 q 342 -166 349 -161 q 335 -174 336 -171 q 326 -190 332 -178 q 313 -216 319 -203 q 299 -242 306 -229 q 292 -260 293 -254 q 285 -260 290 -260 q 278 -261 279 -261 q 251 -252 263 -261 q 232 -231 239 -243 q 222 -203 225 -218 q 218 -175 218 -187 m 379 318 l 407 318 l 407 290 l 379 290 l 379 318 z "},":":{"ha":904,"x_min":367,"x_max":556,"o":"m 367 196 l 367 188 q 370 168 368 181 q 374 144 372 156 q 378 124 376 133 q 381 115 381 115 q 395 108 382 113 q 410 100 408 103 q 417 85 413 99 q 425 71 422 72 q 434 69 425 71 q 454 65 443 67 q 478 60 465 63 q 497 57 490 58 l 506 57 q 526 70 517 57 q 542 101 535 83 q 552 138 549 119 q 556 165 556 156 q 552 203 556 183 q 540 238 549 222 q 518 265 532 254 q 485 275 504 275 q 442 273 460 275 q 410 263 424 271 q 387 241 397 256 q 367 201 376 226 l 367 196 m 367 571 l 367 564 q 374 545 369 557 q 383 522 378 533 q 391 501 388 510 q 396 492 394 493 q 406 485 397 489 q 424 476 414 481 q 443 467 435 471 q 454 463 451 464 q 462 456 457 461 q 468 449 467 451 q 483 479 471 471 q 509 494 496 488 q 533 516 522 501 q 543 565 543 531 q 535 610 543 593 q 514 636 528 626 q 481 652 500 646 q 439 665 461 658 q 424 673 436 667 q 410 679 413 679 q 402 674 407 679 q 396 665 397 668 q 390 651 394 663 q 382 625 386 639 q 373 598 378 611 q 367 578 368 585 l 367 571 z "},";":{"ha":900,"x_min":382,"x_max":600,"o":"m 413 -28 q 423 -41 414 -37 q 443 -45 432 -44 q 463 -45 454 -46 q 474 -44 472 -44 q 517 -37 501 -44 q 542 -15 533 -29 q 557 17 551 -1 q 571 58 563 36 q 575 69 571 60 q 585 88 579 78 q 594 106 590 97 q 600 117 599 114 l 600 122 q 596 184 600 156 q 579 233 592 213 q 544 266 567 254 q 485 278 521 278 q 463 276 479 278 q 442 275 446 275 q 430 251 439 258 q 410 237 421 243 q 392 222 400 231 q 383 196 383 214 q 392 160 383 175 q 413 133 401 146 q 433 106 424 119 q 442 74 442 92 l 442 58 q 436 42 440 54 q 428 15 432 29 q 419 -11 424 1 q 413 -28 414 -24 m 382 561 q 392 537 382 547 q 415 517 401 526 q 444 502 429 508 q 469 490 460 496 l 476 490 l 485 490 q 492 498 486 492 q 499 506 497 504 q 509 510 500 507 q 528 519 518 514 q 547 528 539 524 q 557 535 556 532 q 558 551 557 535 q 560 575 560 567 q 557 608 560 592 q 547 636 554 624 q 526 657 539 649 q 494 665 514 665 q 412 642 442 665 q 382 561 382 618 z "},"<":{"ha":904,"x_min":229,"x_max":679,"o":"m 317 275 q 347 242 325 265 q 395 194 369 219 q 444 146 421 168 q 476 115 467 124 q 486 110 478 114 q 505 101 494 106 q 524 92 515 96 q 535 86 532 88 q 541 72 536 85 q 549 57 546 60 q 557 55 550 57 q 573 51 564 53 q 592 47 582 49 q 607 43 601 44 q 613 42 607 43 q 622 42 619 42 q 640 47 631 42 q 659 62 650 53 q 674 81 668 71 q 679 101 679 92 q 672 108 679 103 q 664 115 665 114 q 633 153 644 142 q 610 172 621 165 q 587 188 600 179 q 549 217 574 196 l 506 260 q 466 283 493 269 q 412 311 439 296 q 365 343 385 326 q 344 376 344 360 q 366 425 344 401 q 420 472 388 449 q 490 519 453 496 q 560 567 528 543 q 615 618 593 592 q 636 672 636 644 q 626 703 636 697 q 593 708 617 708 q 545 699 572 708 q 491 674 518 689 q 440 642 464 660 q 404 607 417 624 q 397 592 401 604 q 389 578 392 581 q 376 565 386 575 q 353 542 365 554 q 330 519 340 531 q 317 506 319 508 q 312 494 315 503 q 303 476 308 486 q 294 458 299 467 q 289 447 290 449 q 266 426 276 433 q 247 413 256 419 q 234 397 239 407 q 229 365 229 386 q 230 355 229 363 q 231 347 231 347 q 238 340 232 344 q 252 331 244 336 q 266 323 260 326 q 274 318 272 319 q 281 303 276 315 q 289 289 286 292 q 303 281 292 286 q 317 275 314 275 z "},"=":{"ha":900,"x_min":206,"x_max":760,"o":"m 238 147 q 281 144 250 146 q 346 140 311 142 q 411 135 381 138 q 454 133 442 133 q 468 133 456 133 q 497 133 481 133 q 528 132 513 132 q 553 132 544 132 q 575 132 561 132 q 605 133 590 132 q 629 133 619 133 q 642 133 640 133 q 673 138 653 133 q 713 149 693 142 q 746 168 732 157 q 760 196 760 179 q 751 240 760 219 q 714 264 742 260 q 676 264 703 264 q 620 265 650 264 q 563 265 590 265 q 526 265 544 265 q 450 267 486 265 q 426 267 438 267 q 379 265 404 267 q 310 261 329 263 q 238 249 275 257 q 220 242 231 247 q 208 235 210 238 q 206 223 207 233 q 206 206 206 213 q 210 172 206 188 q 238 147 214 156 m 267 206 l 310 206 l 310 163 l 267 163 l 267 206 m 238 393 q 283 390 250 392 q 353 385 317 388 q 422 381 389 383 q 468 379 456 379 q 481 379 469 379 q 508 378 493 379 q 536 378 522 378 q 560 378 551 378 q 612 378 578 378 q 678 385 646 379 q 735 406 711 392 q 760 449 760 421 q 751 488 760 476 q 714 510 742 500 q 676 514 703 511 q 620 519 650 517 q 563 522 590 521 q 526 524 536 524 q 491 522 519 524 q 428 519 463 521 q 360 514 393 517 q 310 510 326 511 q 290 508 303 510 q 264 503 278 506 q 238 498 250 500 q 222 494 226 496 q 214 488 219 493 q 208 481 208 483 q 208 467 208 479 q 207 450 207 456 q 210 416 207 431 q 238 393 214 401 m 261 451 l 310 451 l 310 403 q 261 451 261 403 m 642 451 l 686 451 l 686 422 l 642 422 l 642 451 z "},">":{"ha":897,"x_min":225,"x_max":675,"o":"m 225 93 q 226 97 225 94 q 226 101 226 100 q 236 119 229 107 q 250 142 243 131 q 263 163 257 154 q 269 174 268 172 q 278 176 271 175 q 292 180 285 178 q 305 184 299 182 q 313 188 311 186 q 329 201 317 190 q 356 224 342 211 q 383 247 371 236 q 400 260 396 257 q 421 274 404 263 q 458 297 438 285 q 494 319 478 308 q 515 332 511 329 q 540 351 533 344 q 546 375 546 358 q 524 426 546 401 q 470 474 503 450 q 400 522 438 499 q 330 570 363 546 q 276 619 297 594 q 254 672 254 644 q 271 701 254 693 q 304 708 288 708 q 347 706 324 708 q 385 693 369 703 q 393 685 386 692 q 407 672 400 679 q 420 658 414 665 q 429 650 426 651 q 443 643 431 649 q 458 636 456 638 q 484 611 467 628 q 519 576 501 594 q 553 541 538 557 q 574 519 569 525 q 579 510 575 518 q 588 491 583 501 q 597 472 593 481 q 603 463 601 464 q 613 451 604 460 q 631 433 621 443 q 649 415 640 424 q 660 404 657 407 q 669 389 663 400 q 675 375 675 378 q 663 342 675 356 q 635 316 651 328 q 602 294 619 304 q 574 275 585 285 q 556 258 568 271 q 529 232 543 246 q 503 206 515 218 q 486 188 490 193 q 479 173 485 185 q 472 158 474 161 q 435 123 460 143 q 381 85 410 103 q 324 56 353 68 q 276 43 296 43 l 269 43 q 260 51 267 44 q 247 64 254 57 q 234 77 240 71 q 226 86 228 83 q 226 89 226 86 q 225 93 225 92 z "},"?":{"ha":768,"x_min":238,"x_max":600,"o":"m 353 181 q 355 152 353 168 q 363 121 357 136 q 378 95 368 106 q 403 85 388 85 q 425 85 413 85 q 440 100 438 86 q 444 120 442 106 q 449 151 447 135 q 453 181 451 167 q 454 201 454 196 q 426 227 429 208 q 424 265 424 246 q 423 276 424 268 q 424 293 422 285 q 428 309 425 301 q 440 318 432 317 q 442 353 440 328 q 447 405 444 378 q 451 457 449 432 q 454 492 453 482 q 483 547 460 525 q 532 592 506 569 q 579 643 558 615 q 600 715 600 671 q 598 764 600 735 q 585 810 596 793 q 574 822 583 813 q 553 843 565 832 q 530 865 542 854 q 513 882 518 876 q 499 890 510 885 q 483 897 488 896 q 468 897 479 897 q 444 898 457 897 q 419 899 431 899 q 404 899 408 899 q 361 899 379 899 q 329 896 344 899 q 299 887 314 893 q 267 868 285 881 q 252 860 264 865 q 238 853 240 856 l 238 718 q 266 724 257 718 q 280 738 275 729 q 291 758 285 747 q 310 781 297 769 q 323 790 313 783 q 344 804 333 797 q 367 817 356 811 q 382 825 378 822 l 396 825 l 411 825 q 426 817 414 824 q 440 810 438 811 q 451 808 442 810 q 469 803 460 806 q 488 799 479 801 q 499 796 496 797 q 508 772 503 792 q 515 729 513 753 q 520 685 518 706 q 522 656 522 664 q 500 657 506 656 q 492 660 494 658 q 487 664 489 663 q 476 665 485 665 q 419 648 438 665 q 394 604 401 631 q 385 548 386 578 q 382 492 385 518 q 380 481 382 489 q 375 463 378 472 q 370 444 372 453 q 368 433 368 435 q 367 418 368 432 q 367 397 367 404 q 375 335 367 365 q 383 274 383 306 q 378 248 383 260 q 368 226 374 236 q 358 204 363 215 q 353 181 353 193 m 397 188 l 425 188 l 425 158 l 397 158 l 397 188 z "},"A":{"ha":904,"x_min":86,"x_max":839,"o":"m 86 15 q 94 22 89 17 q 101 29 99 26 q 107 40 103 31 q 115 58 111 49 q 124 76 119 68 q 129 88 128 85 q 156 114 140 104 q 185 133 171 124 q 212 154 200 142 q 231 189 224 167 q 234 208 232 193 q 238 240 236 222 q 242 272 240 257 q 246 290 244 286 q 253 297 246 292 q 260 304 260 303 q 271 347 265 321 q 286 398 276 374 q 312 440 296 422 q 354 458 328 458 l 354 304 q 367 303 358 304 q 387 299 376 301 q 406 294 397 297 q 419 290 415 292 q 426 276 422 289 q 433 261 431 263 q 440 259 435 260 q 447 258 444 258 q 460 260 458 258 q 463 265 463 261 q 465 274 464 268 q 476 290 467 281 q 492 297 479 292 q 506 304 504 301 q 518 330 515 318 q 520 353 521 342 q 519 378 519 365 q 521 406 518 390 q 527 413 521 407 q 535 419 533 418 q 541 434 536 424 q 550 456 546 444 q 558 477 554 467 q 564 492 563 488 l 586 492 q 587 478 586 488 q 588 456 588 468 q 590 434 589 444 q 593 419 592 424 q 599 413 593 418 q 607 406 606 407 q 615 390 610 401 q 621 376 621 379 q 624 363 622 374 q 628 340 626 353 q 633 317 631 328 q 636 304 635 307 q 643 297 636 303 q 650 290 650 292 q 656 278 651 286 q 666 260 661 269 q 674 243 671 251 q 679 232 678 235 q 684 216 681 229 q 692 188 688 203 q 701 160 697 174 q 708 146 706 147 q 719 139 708 144 q 743 126 729 133 q 772 113 757 119 q 794 101 786 106 q 803 99 796 101 q 817 95 810 97 q 831 91 824 93 q 839 88 838 89 l 839 81 q 835 67 839 78 q 825 44 831 57 q 815 19 819 32 q 810 0 810 7 q 768 1 789 1 q 758 1 763 1 q 751 1 754 1 q 746 1 749 1 q 742 1 744 1 q 738 1 739 1 q 733 1 736 1 q 731 1 732 1 q 689 -6 719 1 q 569 -15 647 -15 q 538 -15 553 -15 q 510 -14 524 -15 q 481 -9 496 -12 q 447 0 465 -6 l 447 8 l 447 15 q 470 40 460 32 q 488 54 481 47 q 499 71 494 61 q 506 101 503 81 q 506 119 506 107 q 504 145 506 132 q 502 171 503 158 q 501 188 501 183 q 489 188 499 188 q 476 189 479 189 q 448 185 468 188 q 405 181 428 183 q 361 177 382 179 q 332 174 340 175 q 326 160 331 171 q 318 146 321 149 q 310 138 317 143 q 303 131 304 133 q 304 108 300 122 l 308 94 l 408 94 l 408 86 q 404 72 407 78 q 397 65 403 69 q 390 58 390 60 q 388 47 389 56 q 384 28 386 39 q 379 10 382 18 q 375 0 376 1 q 365 -3 374 -1 q 344 -8 356 -6 q 322 -12 333 -10 q 303 -14 310 -14 q 288 -15 300 -14 q 258 -15 275 -15 q 226 -16 242 -15 q 200 -17 210 -17 q 182 -16 193 -17 q 158 -15 171 -15 q 139 -15 147 -15 q 129 -14 131 -14 l 86 15 m 372 778 q 396 774 378 778 q 419 767 414 769 q 426 753 422 765 q 433 738 431 740 q 448 731 436 736 q 463 724 460 726 q 470 709 465 721 q 476 694 475 697 q 492 688 479 692 q 506 681 504 683 q 509 669 507 678 q 513 651 511 661 q 517 633 515 642 q 521 622 519 624 q 527 615 521 621 q 535 608 533 610 q 542 588 538 606 q 549 564 547 571 q 549 561 549 564 q 550 557 550 558 q 549 553 550 556 q 549 550 549 550 q 547 540 549 546 q 542 526 544 533 q 537 514 539 519 q 535 507 535 508 q 532 505 535 506 q 528 504 529 504 q 524 505 526 504 q 521 507 521 506 q 519 522 521 511 q 515 543 518 532 q 510 565 513 554 q 506 579 507 575 q 492 586 504 582 q 476 593 479 590 q 473 603 475 594 q 469 622 471 613 q 465 640 467 632 q 463 651 463 649 q 454 678 460 661 q 447 694 449 694 q 440 698 446 696 q 426 702 433 700 q 413 706 419 704 q 404 710 406 708 q 394 722 400 713 q 384 741 389 731 q 376 761 379 751 q 372 778 372 771 m 375 694 l 375 608 l 356 608 q 356 622 356 613 q 358 644 357 632 q 360 666 358 656 q 361 681 361 676 q 368 689 361 683 q 375 694 368 689 z "},"B":{"ha":904,"x_min":85,"x_max":825,"o":"m 289 -174 q 317 -177 297 -175 q 360 -181 338 -179 q 404 -185 383 -183 q 433 -187 425 -187 q 458 -188 436 -187 q 490 -189 479 -189 q 563 -189 526 -189 q 635 -183 600 -189 q 703 -166 671 -178 q 765 -129 736 -154 q 798 -103 785 -112 q 811 -72 811 -94 q 810 -65 811 -69 q 808 -57 810 -60 q 783 -73 799 -61 q 750 -97 767 -85 q 717 -119 733 -110 q 693 -129 701 -129 l 494 -129 l 461 -14 q 528 -9 493 -12 q 597 6 564 -6 q 660 36 631 17 q 707 88 689 56 q 710 97 708 89 q 715 116 713 106 q 719 135 717 126 q 722 144 721 143 q 733 151 725 147 q 749 156 740 154 q 767 160 758 158 q 779 160 775 161 l 765 304 l 736 261 q 722 308 732 286 q 703 350 713 329 q 685 393 693 371 q 678 442 678 415 q 678 470 678 457 q 685 494 679 483 q 701 510 690 504 q 731 515 711 515 q 718 539 731 528 q 693 550 706 550 q 696 583 696 571 q 686 636 694 615 q 650 708 686 636 q 644 719 647 714 q 636 738 640 728 q 627 757 632 749 q 621 767 622 765 q 608 770 618 768 q 585 774 597 772 q 562 778 572 776 q 549 781 551 781 q 533 784 543 782 q 515 788 524 786 q 499 792 506 790 q 490 794 492 794 q 483 802 489 796 q 476 810 478 808 l 469 810 l 461 810 q 454 802 460 808 q 447 794 449 796 q 431 791 443 793 q 404 787 418 789 q 378 783 390 785 q 361 781 365 781 q 331 781 354 781 q 281 781 308 781 q 231 781 254 781 q 201 781 207 781 q 181 778 193 781 q 158 774 169 776 q 138 770 146 772 q 129 767 129 768 l 129 715 l 260 715 q 263 706 261 715 q 267 685 265 697 q 272 658 269 672 q 274 636 274 644 q 274 613 274 633 q 275 565 275 593 q 275 511 275 539 q 275 467 275 483 q 275 375 275 418 q 274 290 275 332 q 270 206 274 249 q 260 115 267 163 q 216 94 238 97 q 173 90 194 92 q 130 81 151 89 q 86 43 108 72 q 85 40 86 43 q 85 36 85 38 q 91 24 85 28 q 106 15 97 19 q 121 5 114 11 q 129 -14 128 -1 q 188 -12 169 -12 q 275 -15 239 -14 q 418 -29 333 -18 l 418 -115 q 407 -123 418 -118 q 389 -129 396 -128 q 369 -133 383 -131 q 340 -138 356 -136 q 309 -142 324 -140 q 289 -144 294 -144 l 289 -174 m 808 101 l 808 115 q 824 77 824 100 q 825 36 825 54 q 824 11 825 31 q 824 -14 824 -8 q 820 6 822 -8 q 815 37 818 21 q 810 67 813 53 q 808 88 808 82 l 808 101 m 346 217 l 346 361 l 563 361 q 576 347 565 357 q 592 333 588 336 q 600 330 593 332 q 615 326 607 328 q 628 322 622 324 q 635 318 635 319 q 640 304 638 314 q 645 283 643 294 q 649 260 647 271 q 650 246 650 250 l 476 246 q 469 261 475 250 q 461 275 464 272 q 455 273 460 276 q 447 269 450 269 l 447 196 l 650 196 q 636 175 646 185 q 615 157 626 165 q 594 142 604 149 q 578 131 583 135 q 553 113 564 119 q 533 104 543 107 q 510 101 522 101 q 476 100 497 100 q 461 99 474 100 q 435 99 449 99 q 408 103 421 100 q 389 115 394 107 q 383 131 388 118 q 374 159 379 144 q 366 187 369 174 q 361 203 363 200 q 354 210 360 206 q 346 217 349 215 m 344 535 q 347 551 344 544 q 353 562 350 557 q 360 574 357 567 q 363 593 363 581 q 360 613 363 606 q 353 624 357 619 q 347 635 350 629 q 344 651 344 642 q 351 669 344 664 q 365 678 357 674 q 379 688 372 682 q 389 708 386 693 q 415 710 396 708 q 440 711 433 711 q 488 704 458 711 q 548 685 518 697 q 603 657 578 674 q 635 622 628 640 q 642 597 639 613 q 646 569 644 581 q 647 557 647 558 l 535 557 l 592 535 q 592 533 592 535 q 593 529 593 531 q 583 497 593 508 q 556 482 572 486 q 522 477 540 478 q 489 476 504 476 q 478 476 485 476 q 466 476 472 475 q 454 481 460 478 q 447 492 449 485 q 463 497 451 492 q 476 506 475 503 q 474 511 479 510 q 468 517 471 515 q 460 520 465 517 q 450 528 456 524 q 440 535 444 532 q 433 535 435 538 q 430 525 432 533 q 426 506 428 517 q 422 488 424 496 q 418 478 419 479 q 410 475 418 476 q 399 474 403 474 q 379 480 389 474 q 362 495 369 486 q 349 515 354 504 q 344 535 344 525 z "},"C":{"ha":903,"x_min":185,"x_max":693,"o":"m 200 247 q 223 240 217 251 q 231 212 229 229 q 235 176 233 194 q 244 146 236 157 q 251 138 244 143 q 258 131 257 132 q 264 117 260 128 q 273 94 268 107 q 282 72 278 82 q 288 58 286 61 q 306 34 297 42 q 322 22 315 26 q 335 10 329 17 q 346 -14 342 3 l 547 -14 q 569 1 553 -11 q 592 15 586 13 q 606 22 594 17 q 621 29 618 26 q 628 42 622 31 q 640 67 633 53 q 653 94 647 81 q 664 117 660 108 q 673 148 669 129 q 693 174 676 167 l 693 319 q 676 328 693 322 q 649 333 660 333 q 628 305 638 333 q 606 239 619 276 q 573 166 593 201 q 519 117 553 131 q 501 115 518 115 q 475 114 485 114 q 450 116 468 114 q 411 121 432 118 q 372 126 390 124 q 346 131 353 129 q 331 148 339 132 q 314 184 322 164 q 299 222 306 204 q 288 247 292 240 q 272 261 285 250 q 258 275 260 272 q 258 285 258 276 q 258 304 258 294 q 258 322 258 314 q 258 333 258 331 q 256 349 258 338 q 252 371 254 360 q 248 392 250 382 q 244 406 246 403 q 237 413 243 407 q 229 421 231 418 q 228 426 229 421 q 228 435 228 432 q 228 443 228 438 q 229 449 229 449 q 237 456 231 451 q 244 464 243 461 q 278 564 264 511 q 301 667 292 617 l 317 667 q 335 658 331 667 q 353 650 340 650 q 357 651 354 650 q 360 651 360 651 q 368 665 363 654 q 374 681 374 676 q 399 681 381 681 q 425 682 418 682 q 523 663 475 682 q 592 594 571 644 q 594 583 592 592 q 598 565 596 575 q 602 546 600 554 q 606 536 604 538 q 615 528 607 533 q 632 518 622 524 q 651 509 642 513 q 664 506 660 506 q 671 506 665 506 q 678 507 676 507 q 682 522 679 511 q 687 543 685 532 q 691 565 689 554 q 693 579 693 575 q 686 594 693 582 q 678 608 679 606 q 671 640 675 617 q 663 688 667 663 q 654 735 658 713 q 649 768 650 758 q 623 770 642 768 q 584 774 604 772 q 545 778 564 776 q 519 782 526 781 q 503 784 514 782 q 480 789 492 786 q 458 794 468 792 q 447 796 449 796 q 440 804 444 797 q 432 811 435 811 q 417 804 429 811 q 403 796 406 797 q 392 797 400 796 q 374 797 383 797 q 356 797 364 797 q 346 796 347 797 q 332 785 343 796 q 317 768 321 774 q 309 753 314 765 q 301 739 304 740 q 288 731 300 736 q 274 724 275 726 q 233 655 250 694 q 205 572 215 615 q 190 486 194 529 q 185 407 185 443 q 185 365 185 383 q 188 330 186 347 q 192 293 189 313 q 200 247 196 274 z "},"D":{"ha":903,"x_min":114,"x_max":765,"o":"m 114 15 q 132 35 125 22 q 143 58 139 47 q 163 60 149 58 q 194 63 178 61 q 224 67 210 65 q 244 72 239 69 q 258 81 250 75 q 275 94 267 88 q 289 108 283 101 q 294 117 294 114 l 294 304 l 338 304 l 338 189 q 356 178 350 188 q 366 156 363 168 q 370 133 369 144 q 374 117 371 121 q 389 109 376 114 q 403 101 401 104 q 417 84 410 94 q 433 65 425 74 q 453 49 442 56 q 476 42 464 42 q 485 42 479 42 q 490 44 490 43 q 497 66 493 47 q 504 88 501 85 q 515 88 506 89 q 533 88 524 88 q 551 87 543 88 q 563 88 560 86 q 574 97 565 89 q 592 116 582 106 q 609 135 601 126 q 619 146 617 143 q 635 152 622 147 q 649 160 647 157 q 656 174 651 163 q 664 189 661 186 q 670 197 665 192 q 678 203 675 201 l 707 347 q 720 359 718 351 q 722 376 722 367 q 714 403 722 396 q 706 435 706 411 q 708 454 706 447 q 714 466 711 461 q 719 476 717 471 q 722 492 722 482 q 722 500 722 494 q 721 507 722 506 q 714 514 721 508 q 707 521 707 519 q 703 534 706 524 q 699 557 701 544 q 696 580 697 569 q 693 593 694 590 q 679 603 690 597 q 664 608 668 610 l 619 717 l 497 717 l 499 725 q 504 738 500 733 q 519 745 507 740 q 533 753 531 750 q 540 768 536 756 q 547 782 544 781 q 559 783 549 782 q 576 783 569 783 q 606 777 594 783 q 626 763 617 771 q 647 747 636 754 q 678 738 658 739 q 678 717 676 732 q 682 687 679 703 q 688 657 685 671 q 693 638 690 643 q 702 624 694 633 q 719 606 710 615 q 737 588 728 596 q 750 579 746 581 q 753 533 751 567 q 758 463 756 500 q 762 393 760 426 q 765 347 764 360 l 765 332 l 765 318 q 762 301 764 313 q 758 279 760 290 q 753 258 756 268 q 750 246 751 249 q 743 239 750 244 q 736 232 736 233 q 724 184 729 213 q 710 128 718 156 q 687 77 701 100 q 649 44 672 54 q 635 41 646 43 q 613 37 625 39 q 590 33 600 35 q 576 29 579 31 q 569 22 575 29 q 563 15 563 15 q 514 -6 563 4 q 461 -12 494 -10 q 426 -14 444 -14 q 408 -12 417 -14 q 392 -12 408 -12 q 360 -14 375 -12 l 353 -14 l 346 -14 q 288 -10 322 -12 q 222 -5 254 -7 q 166 -1 189 -3 q 143 0 143 0 l 114 15 m 301 507 l 301 363 l 331 363 l 331 507 l 301 507 m 294 681 l 294 554 q 303 556 294 554 q 317 565 311 558 q 324 584 319 568 q 331 608 329 600 q 334 629 332 614 q 339 662 336 644 q 344 694 342 679 q 346 717 346 710 l 403 717 l 403 738 q 374 744 396 739 q 346 753 353 750 q 338 760 343 753 q 331 767 333 767 q 259 783 297 781 q 186 786 221 786 l 186 758 q 235 753 219 758 q 257 741 251 749 q 263 724 263 733 q 263 706 263 715 q 270 690 264 697 q 294 681 276 683 m 490 785 q 460 781 475 785 q 432 767 444 778 l 490 767 l 490 785 z "},"E":{"ha":900,"x_min":110,"x_max":908,"o":"m 539 3 q 567 -2 557 3 q 585 -12 578 -7 q 601 -23 593 -18 q 625 -28 610 -28 l 632 -28 q 639 -20 633 -26 q 646 -14 644 -14 q 654 -10 647 -12 q 668 -6 661 -8 q 682 -2 675 -4 q 690 1 689 0 q 703 13 694 4 q 721 30 711 21 q 738 47 731 39 q 747 60 744 56 q 751 70 749 61 q 755 89 753 79 q 758 107 757 99 q 763 117 760 115 q 775 118 764 118 q 799 117 786 118 q 822 116 811 117 q 835 117 832 115 q 848 126 839 118 q 867 143 857 133 q 883 162 876 153 q 893 175 890 171 q 897 190 894 179 q 902 211 900 200 q 906 233 904 222 q 908 247 908 243 l 878 247 q 876 235 878 243 q 872 217 874 226 q 867 200 869 208 q 864 189 865 192 q 849 175 860 181 q 828 167 839 169 q 806 163 817 164 q 792 160 796 161 q 784 153 789 160 q 776 146 779 147 q 764 147 772 143 q 756 150 756 150 l 756 268 q 747 266 756 268 q 733 261 739 264 q 719 249 731 260 q 704 233 708 238 q 697 218 703 231 q 690 204 692 206 q 675 197 688 201 q 661 189 663 192 q 660 172 658 182 q 663 151 661 161 q 661 131 664 140 q 646 117 658 121 q 636 115 644 117 q 618 110 628 113 q 599 105 608 107 q 589 103 590 103 q 555 84 571 96 q 515 72 539 72 q 495 77 504 72 q 486 96 486 82 q 487 100 486 97 q 488 103 488 103 q 495 110 489 104 q 501 117 501 115 q 502 119 501 117 q 503 124 503 122 q 494 144 503 139 q 486 169 486 150 q 495 192 486 182 q 516 210 504 201 q 537 229 528 219 q 546 254 546 239 l 546 261 q 539 269 544 264 q 531 276 533 275 l 531 446 q 545 447 535 446 q 567 449 556 447 q 588 450 578 450 q 603 450 599 450 q 610 447 604 450 q 624 442 617 444 q 638 438 632 440 q 646 435 644 435 q 653 434 649 435 q 661 433 658 433 l 661 522 q 633 508 644 519 q 618 479 621 496 l 524 479 l 524 550 q 510 547 524 550 q 488 536 496 543 q 481 526 485 535 q 472 508 476 518 q 464 489 468 497 q 458 479 460 481 q 448 465 456 475 q 432 444 440 454 q 416 427 424 435 q 403 419 408 419 q 355 428 369 419 q 335 450 340 438 q 330 478 329 463 q 329 507 331 494 q 320 528 328 519 q 292 538 313 538 q 288 537 290 538 q 285 536 285 536 q 276 529 282 535 q 271 522 271 524 l 271 290 q 281 279 276 286 q 288 265 285 272 q 296 251 292 257 q 307 246 300 246 q 310 247 307 246 q 314 247 313 247 q 319 278 317 263 q 326 307 321 294 q 342 328 332 319 q 369 336 351 336 q 388 335 376 336 q 400 333 399 335 q 417 328 407 332 q 436 319 426 324 q 452 311 446 315 q 458 306 458 307 l 458 146 l 444 132 q 452 125 447 131 q 458 117 457 119 q 459 114 458 117 q 460 110 460 111 q 452 91 460 103 q 434 68 444 79 q 412 49 424 57 q 393 42 400 42 q 361 57 376 42 q 343 88 346 72 q 339 108 342 93 q 334 138 336 122 q 330 169 332 154 q 328 189 328 183 q 301 208 317 193 q 274 222 285 222 q 274 172 274 201 q 267 119 274 144 q 245 76 261 93 q 199 58 229 58 q 178 66 183 58 q 163 74 174 74 q 125 58 140 74 q 110 22 110 43 q 117 14 110 19 q 132 2 124 8 q 149 -9 140 -4 q 161 -14 157 -14 q 174 -11 171 -14 q 182 -6 178 -8 q 194 0 186 -3 q 219 3 201 3 q 244 0 235 3 q 260 -6 253 -3 q 275 -11 267 -8 q 299 -14 283 -14 q 358 -6 331 -14 q 417 3 385 3 q 441 2 425 3 q 458 1 457 1 q 465 -6 460 1 q 472 -14 471 -14 q 487 -6 475 -14 q 501 1 499 1 q 517 2 503 1 q 539 3 532 3 m 704 306 l 704 290 l 719 290 l 719 306 l 704 306 m 676 608 q 674 592 676 599 q 667 581 671 586 q 660 568 663 575 q 657 549 657 561 q 681 553 671 549 q 704 565 692 557 q 708 597 706 574 q 712 645 710 619 q 716 694 714 671 q 719 725 718 717 l 719 742 q 715 761 719 753 q 697 769 710 769 q 685 764 686 769 q 683 752 685 758 q 674 741 681 746 q 647 736 668 736 q 619 744 631 736 q 599 760 608 751 q 580 776 590 768 q 553 783 569 783 q 546 782 546 783 q 531 776 542 781 q 517 768 519 771 l 226 768 q 213 763 224 768 q 199 754 201 757 q 197 747 197 753 q 205 728 197 736 q 223 713 213 719 q 244 701 233 706 q 263 696 256 697 l 263 594 l 317 594 q 316 602 317 597 q 314 608 315 607 q 306 616 313 611 q 299 624 300 621 q 299 654 297 635 q 303 688 301 674 q 306 703 306 701 l 400 703 q 406 722 400 708 q 415 739 411 736 q 421 741 415 740 q 429 742 426 742 q 438 741 432 742 q 444 739 443 740 q 458 724 447 738 q 472 710 469 711 q 487 717 475 710 q 501 725 499 724 l 517 725 l 531 725 q 538 717 533 724 q 546 710 543 711 q 586 696 571 700 q 613 686 601 692 q 635 670 625 681 q 661 638 646 660 q 669 631 663 636 q 675 624 675 625 q 676 617 676 622 q 676 608 676 611 m 154 725 l 169 710 l 169 725 l 154 725 m 444 826 q 436 833 446 833 q 429 826 428 833 q 436 819 432 819 q 444 826 442 819 z "},"F":{"ha":904,"x_min":118,"x_max":726,"o":"m 118 58 l 118 -3 q 132 0 126 -3 q 142 6 138 3 q 153 13 147 10 q 168 15 158 15 q 190 13 183 15 q 203 7 197 10 q 219 1 210 4 q 249 -1 228 -1 q 274 -1 257 -1 q 292 0 290 0 q 299 7 293 0 q 306 14 304 14 q 313 15 307 15 q 321 15 318 15 q 338 13 331 15 q 350 0 346 11 l 504 0 q 497 33 504 22 q 480 52 490 44 q 458 68 469 60 q 436 94 446 76 l 314 94 q 308 108 314 94 q 306 131 303 122 q 317 139 308 133 q 328 144 325 144 l 328 318 q 335 327 328 319 q 353 344 343 335 q 375 363 364 354 q 393 376 386 372 q 399 377 394 376 q 407 378 404 378 q 415 377 410 378 q 422 376 419 376 q 442 356 429 368 q 466 328 454 343 q 487 298 478 314 q 496 268 496 282 q 494 247 496 258 q 479 232 493 235 l 524 188 q 539 288 539 239 q 539 390 539 338 q 539 414 539 397 q 538 449 539 431 q 538 483 538 467 q 538 507 538 500 q 532 529 538 513 q 524 550 526 546 q 520 551 522 550 q 517 553 518 553 q 513 551 515 553 q 508 550 510 550 q 503 518 508 536 q 490 485 499 500 q 467 458 481 469 q 436 447 453 447 q 411 453 421 447 q 393 478 401 460 l 292 478 l 278 463 q 291 451 289 460 q 293 433 293 443 q 289 410 293 419 q 269 390 285 401 l 269 131 q 259 114 269 124 q 235 96 249 104 q 208 81 221 88 q 190 72 194 74 q 176 69 186 71 q 154 65 165 67 q 133 60 143 63 q 118 58 122 58 m 682 681 q 694 592 689 638 q 699 503 699 547 q 706 504 701 503 q 711 507 710 506 q 720 514 714 508 q 726 521 726 519 l 726 782 l 292 782 q 249 763 274 769 q 206 753 225 756 q 203 749 204 751 q 203 746 203 746 q 206 738 203 740 q 216 735 207 736 q 234 730 225 733 q 251 722 243 726 q 263 710 260 717 q 267 692 264 704 q 272 666 269 679 q 276 640 274 653 q 278 622 278 628 q 292 615 281 619 q 306 608 303 610 q 314 607 307 607 q 317 607 314 607 q 321 608 319 607 q 325 619 322 611 q 330 636 328 626 q 333 654 332 646 q 335 665 335 663 q 328 673 335 668 q 321 681 321 678 q 320 686 321 681 q 319 694 319 692 q 322 712 319 704 q 335 724 324 719 q 366 727 343 725 q 415 731 389 729 q 463 735 440 733 q 494 738 486 738 q 501 738 496 738 q 510 739 507 739 q 553 737 528 739 q 603 728 578 735 q 649 710 628 722 q 682 681 671 699 m 278 550 q 284 542 279 547 q 292 535 289 538 l 299 535 l 306 535 q 314 542 308 538 q 321 550 319 547 l 278 550 z "},"G":{"ha":904,"x_min":151,"x_max":806,"o":"m 181 232 q 194 156 181 188 q 226 88 208 124 q 230 80 228 86 q 234 66 232 74 q 238 52 236 58 q 240 44 240 46 q 271 13 251 26 q 313 -10 290 -1 q 358 -24 335 -19 q 400 -28 381 -28 q 460 -22 428 -28 q 515 1 492 -17 q 530 16 518 4 q 544 31 542 28 q 551 31 546 31 q 558 32 556 32 q 581 23 575 32 q 604 14 588 14 q 617 20 610 14 q 631 35 625 26 q 642 52 638 43 q 647 67 647 61 q 639 83 647 78 q 631 103 631 88 q 643 138 631 119 q 660 175 656 157 q 663 188 661 178 q 667 211 665 199 q 672 234 669 224 q 675 247 674 244 q 683 251 676 249 q 696 255 689 253 q 710 259 703 257 q 718 261 717 261 q 733 269 721 263 q 747 276 744 275 q 758 280 750 278 q 776 284 767 282 q 793 288 785 286 q 806 290 801 290 l 806 304 q 794 331 806 325 q 765 338 782 338 q 733 335 750 338 q 704 333 715 332 q 697 341 701 335 q 689 349 692 347 q 678 349 689 349 q 660 350 667 350 q 643 349 654 350 q 632 349 632 349 q 624 341 629 347 q 617 333 619 335 q 597 330 611 332 q 566 326 582 328 q 535 322 550 324 q 515 319 521 319 l 515 283 l 585 283 q 586 271 585 282 q 588 244 588 260 q 588 218 589 228 q 586 208 588 215 q 583 190 585 200 q 578 172 581 181 q 574 160 575 164 q 567 141 571 153 q 558 118 563 129 q 549 98 553 107 q 544 88 546 89 q 537 84 543 86 q 524 80 531 82 q 510 76 517 78 q 501 74 503 74 q 476 58 489 68 q 450 39 463 49 q 424 22 438 29 q 399 14 411 14 q 391 15 396 14 q 386 15 386 15 q 378 30 383 18 q 371 44 374 42 q 340 64 357 58 q 307 75 324 69 q 277 89 290 81 q 256 117 264 97 q 253 124 256 118 q 249 138 251 131 q 244 152 246 146 q 240 160 242 158 q 234 167 240 163 q 226 175 228 172 q 218 203 224 182 q 213 232 213 225 l 181 232 m 632 1 l 632 -14 l 646 -14 l 646 1 l 632 1 m 472 44 l 501 44 l 501 15 l 472 15 l 472 44 m 151 319 q 167 293 151 300 q 197 286 182 286 l 197 319 l 151 319 m 486 349 q 479 340 479 350 q 486 333 479 332 q 493 340 493 336 q 486 349 493 346 m 168 392 q 161 385 161 394 q 168 378 161 375 q 175 383 175 379 q 168 392 175 389 m 558 667 q 569 627 558 644 q 592 591 579 610 q 617 549 606 572 q 632 493 629 526 l 646 493 l 646 786 q 624 776 631 786 q 603 767 618 767 q 572 774 586 767 q 543 789 557 781 q 517 804 529 797 q 494 811 506 811 l 486 811 q 472 803 483 810 q 458 797 461 797 q 438 795 453 796 q 407 794 424 794 q 377 795 392 794 q 357 797 363 796 q 350 773 358 781 q 329 763 342 765 q 303 759 317 760 q 285 753 290 758 q 278 743 282 751 q 269 725 274 735 q 260 706 264 715 q 256 696 257 697 q 235 662 244 678 q 225 624 225 646 l 240 624 q 262 669 247 646 q 295 710 276 692 q 337 742 314 729 q 385 754 360 754 q 408 751 393 754 q 438 742 422 747 q 466 733 453 738 q 486 724 479 728 q 492 719 488 724 q 501 710 496 715 q 510 700 506 704 q 515 696 514 696 q 524 694 517 694 q 528 694 525 694 q 531 696 531 694 q 537 710 532 697 q 544 724 542 722 q 556 721 547 726 q 569 715 565 715 q 567 698 569 703 q 563 689 565 693 q 560 681 561 685 q 558 667 558 676 z "},"H":{"ha":900,"x_min":143,"x_max":796,"o":"m 143 0 q 154 -12 144 -8 q 174 -18 164 -17 q 194 -19 185 -19 q 207 -19 204 -19 q 194 7 207 -1 q 164 15 181 15 l 157 15 q 149 8 154 14 q 143 0 144 3 m 258 72 l 258 -14 l 404 -14 q 392 22 404 6 q 363 49 381 38 q 324 67 344 61 q 288 74 304 74 q 272 74 285 74 q 258 72 261 74 m 504 0 l 504 -14 l 750 -14 q 762 -4 754 -8 q 777 3 769 0 q 790 11 785 7 q 796 22 796 15 q 780 51 796 38 q 744 78 764 64 q 708 108 724 92 q 692 146 692 124 q 700 167 692 161 q 708 189 708 172 q 706 206 708 199 q 693 218 704 214 q 677 449 681 331 q 674 681 674 568 l 664 681 q 662 666 664 676 q 658 644 660 656 q 653 622 656 632 q 649 608 650 613 q 643 600 649 606 q 635 593 638 594 l 635 449 q 601 447 621 447 q 582 447 582 447 q 575 449 581 449 q 519 442 547 449 q 468 419 489 435 q 446 369 446 403 l 606 369 l 635 333 l 635 101 q 633 92 635 99 q 630 78 632 85 q 625 65 628 71 q 621 58 622 60 q 613 55 619 57 q 599 51 606 53 q 585 47 592 49 q 576 44 578 46 q 570 29 575 42 q 563 15 565 17 q 551 10 560 13 q 534 6 543 8 q 517 1 525 3 q 504 0 508 0 m 244 246 q 261 197 254 222 q 274 146 268 171 q 277 165 275 151 q 281 195 279 179 q 285 226 283 211 q 288 246 288 240 q 288 263 288 250 q 288 289 288 275 q 288 317 288 304 q 288 333 288 331 q 294 356 289 342 q 303 369 300 369 l 413 369 q 410 383 413 369 q 403 406 408 397 q 376 427 394 422 q 338 435 357 432 q 304 447 319 439 q 288 478 289 456 q 288 485 288 478 q 287 503 288 493 q 286 524 286 514 q 286 540 286 533 q 287 588 286 567 q 289 629 288 608 q 294 673 290 650 q 303 724 297 696 q 347 733 322 726 q 389 753 371 740 l 360 796 l 201 796 q 181 763 201 774 q 143 753 161 753 q 169 742 154 749 q 199 725 185 735 q 226 704 214 715 q 244 681 238 693 q 244 672 244 679 q 244 658 244 667 q 244 644 244 651 q 244 638 244 639 q 251 623 244 635 q 258 608 258 611 q 259 601 258 608 q 260 589 260 593 q 259 576 260 586 q 258 565 258 567 q 256 502 258 547 q 252 406 254 457 q 248 309 250 354 q 244 246 246 264 m 533 738 q 560 736 544 738 q 590 731 575 735 q 617 717 604 726 q 635 694 629 708 l 649 731 l 772 731 q 771 739 772 731 q 765 753 769 747 q 751 765 761 757 q 728 781 740 774 q 703 793 715 788 q 685 799 690 799 q 666 793 671 799 q 658 781 661 788 q 651 770 656 775 q 635 765 647 765 q 621 770 625 765 q 615 781 617 775 q 610 792 613 788 q 599 797 607 797 q 587 790 597 797 q 564 774 576 783 q 542 756 551 764 q 532 746 532 747 q 533 742 532 744 q 533 738 533 739 m 794 782 q 786 789 796 789 q 779 782 778 789 q 786 775 782 775 q 794 782 792 775 z "},"I":{"ha":911,"x_min":200,"x_max":722,"o":"m 564 -21 q 563 -33 564 -25 q 563 -43 563 -42 q 556 -50 563 -44 q 549 -57 549 -56 q 545 -70 547 -60 q 541 -93 543 -81 q 537 -117 539 -106 q 533 -129 535 -128 q 519 -137 532 -132 q 506 -144 507 -143 q 497 -151 503 -146 q 490 -158 492 -157 q 479 -165 488 -161 q 462 -174 471 -169 q 444 -182 453 -178 q 432 -187 436 -186 q 446 -187 436 -187 q 469 -188 457 -187 q 490 -189 481 -189 q 506 -189 501 -189 q 584 -187 550 -189 q 664 -174 618 -186 q 649 -148 661 -157 q 625 -133 638 -139 q 602 -120 613 -126 q 592 -101 592 -114 l 592 29 l 621 58 q 603 60 615 58 q 576 63 590 61 q 550 68 563 65 q 533 72 538 71 q 519 86 531 74 q 506 101 508 99 q 492 109 501 106 q 472 118 482 113 q 455 130 463 124 q 447 144 447 136 l 447 679 q 453 681 447 679 q 469 685 460 683 q 489 690 479 688 q 506 694 499 693 q 519 697 508 694 q 542 701 529 699 q 565 705 554 703 q 578 708 575 707 q 606 726 589 713 q 622 751 622 739 q 619 768 622 760 q 606 781 617 776 q 572 787 596 782 q 519 796 547 792 q 467 804 492 800 q 432 810 442 808 l 426 810 l 418 810 q 394 807 414 810 q 353 802 375 804 q 313 798 332 800 q 288 796 293 796 q 265 796 276 794 q 242 797 253 797 q 222 793 232 796 q 201 781 211 790 q 209 774 204 779 q 215 767 214 769 q 223 752 218 764 q 231 738 228 740 q 263 717 243 725 q 302 700 282 708 q 338 681 322 692 q 360 651 354 669 q 361 640 361 649 q 361 622 361 632 q 360 603 361 613 q 360 593 360 594 q 363 569 361 583 q 368 540 365 554 q 373 516 371 526 q 375 506 375 506 l 404 492 l 404 318 l 375 304 q 373 284 375 299 q 369 253 371 269 q 364 223 367 238 q 360 203 361 208 q 353 196 360 201 q 346 189 347 190 q 342 176 344 186 q 338 153 340 165 q 335 129 336 140 q 332 117 333 118 q 306 96 326 106 q 261 75 285 86 q 219 51 238 64 q 200 22 200 39 q 201 18 200 21 q 201 15 201 15 q 217 -3 206 8 q 231 -14 228 -14 l 432 -14 q 440 -2 433 -6 q 456 2 447 1 q 472 2 464 3 q 483 1 481 1 q 509 -1 501 1 q 521 -7 517 -4 q 528 -12 525 -10 q 542 -15 532 -15 q 545 -15 543 -15 q 549 -14 547 -14 q 556 -8 551 -12 q 563 0 561 -3 q 563 -10 563 -3 q 564 -21 564 -18 m 476 521 q 488 516 479 519 q 505 508 496 513 q 522 498 514 503 q 533 492 531 493 q 551 476 540 488 q 563 463 563 465 l 585 318 l 585 492 l 722 521 l 722 535 q 715 539 722 536 q 699 544 708 542 q 680 548 690 546 q 664 550 669 550 q 653 550 663 550 q 631 551 643 550 q 606 551 618 551 q 585 551 593 551 q 568 551 581 551 q 544 551 557 551 q 521 550 532 550 q 506 550 510 550 q 490 543 501 549 q 476 535 479 538 q 475 532 475 535 q 475 528 475 529 q 476 521 475 522 z "},"J":{"ha":900,"x_min":164,"x_max":860,"o":"m 164 174 q 213 29 164 74 q 358 -15 261 -15 q 390 -15 369 -15 q 411 -14 410 -14 q 427 -7 415 -12 q 453 6 439 -1 q 479 19 467 13 q 497 29 492 25 q 516 45 504 35 q 539 67 528 56 q 559 89 550 79 q 569 101 568 99 q 574 125 571 106 q 578 167 576 144 q 582 208 581 189 q 585 232 583 228 q 592 247 585 235 q 599 261 599 258 q 598 285 600 269 q 596 317 596 300 q 599 349 596 333 q 614 376 603 365 q 597 364 603 367 q 586 361 592 361 q 576 363 582 361 q 560 365 571 365 q 557 378 560 368 q 556 390 554 388 q 563 399 556 393 q 569 406 569 404 q 577 415 572 408 q 586 429 582 422 q 594 442 590 436 q 599 449 599 447 q 599 451 599 449 q 600 456 600 454 q 592 473 600 468 q 583 492 583 478 q 586 508 583 501 q 592 519 589 514 q 597 531 594 524 q 600 549 600 538 q 592 592 600 572 q 583 636 583 613 q 584 644 583 639 q 585 651 585 650 q 591 674 586 657 q 599 694 596 690 q 688 702 639 694 q 772 738 738 710 l 715 796 q 695 800 713 797 q 655 805 678 803 q 608 808 632 807 q 569 810 585 810 q 538 808 561 810 q 490 805 515 807 q 442 800 465 803 q 411 796 419 797 q 408 781 410 793 q 407 767 407 769 q 418 738 407 749 q 446 721 429 728 q 481 708 463 714 q 513 694 499 703 q 515 674 513 689 q 519 644 517 660 q 523 613 521 628 q 526 593 525 599 q 533 585 528 590 q 542 579 539 579 q 542 553 542 572 q 543 528 543 535 q 542 499 543 518 q 542 478 542 479 q 533 463 540 475 q 526 449 526 451 q 526 429 526 444 q 526 397 526 415 q 526 365 526 381 q 526 347 526 351 q 519 317 525 336 q 513 297 514 297 l 425 297 q 443 273 428 282 q 477 259 458 264 q 514 251 496 254 q 542 246 532 247 q 533 240 539 246 q 526 232 528 235 q 524 219 526 229 q 520 196 522 208 q 516 173 518 183 q 513 160 514 163 q 498 152 511 157 q 483 144 485 147 q 480 137 482 143 q 476 124 478 131 q 472 110 474 117 q 469 101 469 103 q 462 93 467 99 q 454 88 457 88 l 296 88 q 286 91 293 88 q 272 99 279 94 q 259 108 265 103 q 251 117 253 113 q 251 124 251 117 q 250 136 250 132 q 250 154 250 150 q 251 159 250 158 q 256 162 253 160 q 267 174 260 164 q 278 190 269 178 q 296 217 286 203 q 313 243 306 231 q 324 261 321 256 q 314 279 324 267 q 292 304 304 292 q 268 326 279 317 q 253 335 257 335 q 203 318 221 335 q 176 276 185 301 q 166 224 168 251 q 164 174 164 196 m 353 419 q 355 383 353 397 q 368 347 357 368 q 369 365 368 353 q 373 391 371 378 q 378 417 375 404 q 382 435 381 429 q 390 442 383 436 q 397 449 396 447 q 403 458 399 451 q 413 472 408 465 q 421 485 417 479 q 425 492 425 490 q 426 496 426 493 q 426 500 426 499 q 426 504 426 501 q 425 507 426 507 q 413 514 424 508 q 397 521 401 519 q 393 522 396 521 q 389 522 390 522 q 367 510 374 522 q 356 481 360 497 q 353 446 353 464 q 353 419 353 429 m 671 363 l 671 347 l 686 363 l 671 363 m 831 724 q 824 715 824 725 q 831 708 824 707 q 838 715 838 711 q 831 724 838 721 m 599 1013 q 631 1004 611 1010 q 669 990 650 999 q 701 970 688 982 q 715 940 714 958 l 729 976 l 844 976 l 860 999 l 844 1013 l 599 1013 z "},"K":{"ha":904,"x_min":140,"x_max":789,"o":"m 549 189 q 551 169 549 183 q 555 138 553 154 q 559 108 557 122 q 563 88 561 93 q 570 81 564 86 q 578 74 576 75 q 576 51 581 65 q 572 36 572 36 l 511 36 q 513 28 511 36 q 519 15 515 21 q 533 6 522 11 q 557 -3 544 1 q 580 -10 569 -7 q 592 -14 590 -14 l 599 -14 q 658 -6 629 -14 q 717 1 686 1 q 737 1 726 1 q 751 -14 747 0 q 781 17 774 -6 q 789 58 789 39 l 693 58 q 660 111 682 88 q 621 160 638 135 q 549 304 576 226 q 538 330 546 310 q 533 363 531 350 l 476 333 q 474 331 475 333 q 474 326 474 328 q 478 315 474 318 q 490 308 483 311 q 501 301 496 306 q 507 285 507 297 q 506 263 507 275 q 490 247 504 250 q 505 231 500 240 q 515 213 510 221 q 526 197 519 204 q 549 189 533 190 m 251 117 q 231 105 244 115 q 215 88 218 94 q 212 71 214 83 q 208 44 210 58 q 204 18 206 31 q 203 0 203 6 l 389 0 l 418 15 q 389 44 396 29 q 377 74 382 60 q 360 99 372 88 q 317 117 349 110 q 316 142 317 122 q 315 167 315 161 q 319 208 315 183 q 333 258 324 233 q 356 304 343 283 q 389 333 369 325 q 402 337 392 335 q 425 341 413 339 q 448 345 438 343 q 461 349 458 347 q 469 362 464 350 q 476 376 474 374 q 483 385 478 379 q 490 392 489 390 q 491 394 490 392 q 492 399 492 397 q 483 415 492 411 q 475 435 475 419 q 482 459 475 447 q 499 481 489 471 q 518 502 508 492 q 533 522 528 513 q 541 544 536 525 q 549 565 546 563 q 570 572 551 568 q 592 579 589 576 q 597 590 593 581 q 606 608 601 599 q 615 626 611 618 q 621 638 619 635 q 635 645 622 640 q 650 651 647 650 q 656 667 651 654 q 664 681 661 679 q 706 698 686 694 q 742 708 726 701 q 767 731 757 715 q 776 782 776 746 l 563 782 q 553 777 560 782 q 539 765 546 772 q 526 751 532 758 q 519 739 521 743 q 514 701 513 718 q 517 670 515 685 q 519 641 519 656 q 506 608 518 626 q 494 597 503 606 q 476 579 486 589 q 457 561 465 569 q 447 550 449 553 q 444 542 446 549 q 440 529 442 536 q 436 515 438 522 q 432 507 435 511 q 364 428 389 443 q 271 406 328 406 q 258 406 265 406 l 258 399 q 267 382 258 386 q 275 363 275 378 q 271 339 275 347 q 251 319 267 331 l 251 117 m 157 15 q 150 22 160 22 q 143 15 140 22 q 150 8 146 8 q 157 15 156 8 m 258 499 q 269 467 258 475 q 306 460 281 460 q 303 474 306 468 q 296 484 300 479 q 289 494 292 489 q 286 507 286 499 q 287 515 286 510 q 288 522 288 521 q 295 529 289 524 q 303 536 301 535 q 305 555 303 540 q 310 587 307 569 q 315 619 313 604 q 317 638 317 633 q 324 663 319 646 q 331 681 329 679 q 339 684 332 682 q 353 688 346 686 q 367 692 360 690 q 375 696 374 694 q 383 710 378 697 q 389 725 388 722 q 397 731 390 726 q 404 739 404 736 q 398 765 404 749 q 389 782 392 782 l 215 782 l 186 739 q 215 713 199 728 q 244 682 231 699 q 266 647 257 665 q 275 610 275 628 q 267 554 275 581 q 258 499 258 528 z "},"L":{"ha":904,"x_min":147,"x_max":743,"o":"m 147 58 l 147 14 q 156 10 147 13 q 175 6 164 8 q 199 2 186 4 q 219 0 211 0 q 238 0 221 0 q 277 -1 254 0 q 322 -1 300 -1 q 360 -1 346 -1 q 447 -1 407 -1 q 526 0 488 -1 q 606 5 565 1 q 696 14 647 8 q 707 24 700 17 q 721 42 714 32 q 733 60 728 51 q 740 72 739 68 q 741 81 740 74 q 742 99 742 89 q 742 119 742 110 q 743 136 743 129 q 742 153 743 142 q 742 174 742 164 q 741 193 742 185 q 740 203 740 201 q 733 221 739 208 q 721 247 728 233 q 707 273 714 261 q 696 289 700 285 q 679 259 685 286 q 665 198 674 232 q 642 132 657 164 q 596 86 626 100 q 585 86 593 86 q 567 86 576 86 q 547 86 557 86 q 538 86 539 86 q 523 80 535 86 q 508 72 511 74 q 503 72 508 72 q 494 71 497 71 q 463 80 482 71 q 426 103 444 89 q 394 132 408 117 q 378 158 381 147 q 374 178 376 164 q 370 209 372 193 q 366 240 368 225 q 364 260 364 254 q 339 276 354 263 q 314 290 324 290 q 310 290 313 290 q 306 289 307 289 q 303 263 306 282 q 299 224 301 244 q 295 184 297 203 q 292 158 293 165 q 282 127 288 138 q 268 110 276 117 q 248 99 260 104 q 219 86 236 94 q 205 81 215 85 q 183 72 194 76 q 162 63 172 67 q 147 58 151 60 m 639 72 l 668 72 l 668 43 l 639 43 l 639 72 m 306 347 q 335 328 321 342 q 364 314 349 314 l 364 483 q 347 481 357 483 q 328 474 338 479 q 313 463 319 469 q 306 449 306 457 l 306 347 m 369 556 q 324 542 347 556 q 301 503 301 529 q 322 508 310 503 q 344 520 333 513 q 362 538 354 528 q 369 556 369 547 m 306 636 l 306 572 q 319 580 311 572 q 335 598 328 588 q 348 619 343 608 q 353 636 353 629 l 306 636 m 161 765 q 206 751 185 763 q 247 727 226 740 q 287 703 267 714 q 328 693 307 693 q 349 697 340 693 q 365 706 357 701 q 383 716 374 711 q 407 722 392 721 q 422 722 410 722 q 450 722 436 722 q 478 722 465 722 q 494 722 492 722 q 506 732 503 724 q 512 751 510 740 q 514 769 514 761 q 514 781 514 779 l 190 781 l 161 765 z "},"M":{"ha":900,"x_min":107,"x_max":875,"o":"m 108 43 q 134 17 118 26 q 167 3 150 8 q 203 -3 185 -1 q 239 -4 222 -4 q 263 -3 246 -4 q 282 0 279 -1 l 296 14 l 426 14 q 433 6 428 11 q 440 0 438 1 q 444 -1 442 0 q 449 -1 446 -1 q 468 8 463 -1 q 476 31 474 18 q 483 55 479 43 q 499 72 488 67 q 503 113 500 83 q 512 174 507 142 q 521 235 517 206 q 528 275 525 264 q 530 283 528 276 q 534 297 532 289 q 539 310 536 304 q 542 318 542 317 q 544 331 542 321 q 548 354 546 342 q 552 377 550 367 q 557 390 554 388 q 567 397 560 393 q 584 402 575 400 q 601 405 593 404 q 614 404 610 406 q 615 393 615 401 q 615 383 615 386 q 613 369 615 374 q 607 360 610 364 q 601 351 604 356 q 599 340 599 347 q 607 323 599 328 q 615 304 615 318 q 608 284 615 289 q 600 268 600 279 l 600 260 q 603 249 600 257 q 608 231 606 240 q 612 213 610 222 q 614 203 614 204 q 615 196 614 201 q 615 188 615 190 q 602 158 615 181 q 574 111 589 136 q 544 65 558 86 q 528 43 529 44 q 562 26 550 35 q 584 12 574 18 q 607 2 594 6 q 642 -1 619 -1 q 678 -1 656 -1 q 723 5 701 0 q 760 20 744 10 q 775 50 775 31 q 774 63 775 54 q 774 72 774 71 q 759 87 772 75 q 744 101 746 99 q 717 165 729 128 q 701 232 704 203 q 697 269 700 242 q 692 326 694 296 q 688 382 690 356 q 686 419 686 408 q 673 431 675 424 q 671 449 671 439 q 679 470 671 464 q 688 492 688 476 q 685 508 688 501 q 679 519 682 514 q 674 531 676 524 q 671 549 671 538 q 672 565 671 554 q 672 578 672 576 q 679 592 672 581 q 686 607 686 604 q 690 629 688 613 q 695 665 693 646 q 699 699 697 683 q 701 722 701 715 q 685 710 690 713 q 675 708 679 707 q 665 710 671 708 q 647 713 660 713 q 649 735 647 728 q 654 748 651 742 q 659 762 657 754 q 661 788 661 769 q 646 785 657 788 q 623 780 635 783 q 600 773 611 776 q 585 767 589 769 q 581 757 583 765 q 577 738 579 749 q 573 719 575 728 q 571 708 571 710 q 565 694 569 706 q 557 679 560 682 q 549 672 556 678 q 542 665 542 667 q 542 651 542 663 q 542 629 542 642 q 542 606 542 617 q 542 593 542 596 q 535 585 542 590 q 528 578 528 581 q 527 567 528 578 q 526 549 526 556 q 529 531 526 538 q 535 519 532 524 q 540 508 538 514 q 543 492 543 501 q 519 442 543 465 q 468 418 494 418 q 460 419 465 418 q 456 419 456 419 q 401 491 417 450 q 383 578 386 532 q 374 554 378 568 q 366 527 371 540 q 353 503 361 514 q 332 492 346 493 l 332 361 q 321 355 329 360 q 311 347 313 350 q 310 344 310 347 q 310 340 310 342 q 317 321 310 329 q 333 303 324 313 q 349 283 342 293 q 356 261 356 274 q 355 252 356 258 q 354 246 354 246 q 347 239 353 244 q 340 232 340 233 q 347 217 340 229 q 354 203 354 206 q 353 184 354 197 q 352 157 353 171 q 350 130 351 143 q 349 111 349 117 q 337 105 346 111 q 325 101 328 99 q 316 111 322 103 q 303 129 310 119 q 290 147 296 139 q 282 158 283 156 q 274 166 281 161 q 267 174 268 171 q 267 189 267 176 q 267 215 267 201 q 267 243 267 231 q 267 260 267 257 q 260 267 267 263 q 253 275 253 272 q 252 283 253 275 q 251 296 251 292 q 252 308 251 300 q 253 318 253 317 q 256 326 253 319 q 260 340 258 332 q 265 353 263 347 q 267 361 267 360 q 265 374 267 364 q 260 397 263 385 q 256 420 258 410 q 253 433 253 431 q 252 453 253 436 q 251 476 251 469 q 252 494 251 483 q 253 506 253 506 q 267 513 257 510 q 288 519 276 517 q 310 522 299 522 q 325 521 321 522 l 325 586 l 264 586 q 260 598 264 588 q 253 624 256 608 q 253 650 250 640 q 267 658 254 653 q 282 665 281 663 q 285 677 283 668 q 288 696 286 686 q 292 715 290 706 q 293 726 293 724 q 272 724 278 726 q 263 719 267 722 q 252 715 258 717 q 229 713 246 713 q 231 735 229 729 q 234 743 232 740 q 238 748 236 746 q 239 758 239 750 l 239 767 q 219 768 233 767 q 188 772 204 769 q 158 776 172 774 q 138 781 143 779 q 129 787 135 782 q 122 794 124 792 l 122 749 q 169 735 147 749 q 194 694 192 722 q 195 680 194 690 q 196 657 196 669 q 196 636 196 646 q 196 622 196 626 q 194 397 196 510 q 167 174 193 283 q 158 149 164 165 q 151 131 153 132 q 144 127 150 129 q 131 123 138 125 q 117 119 124 121 q 108 115 110 117 q 108 113 108 115 q 107 108 107 111 q 112 97 107 100 q 123 92 117 94 q 134 86 129 90 q 139 72 139 82 q 133 51 139 60 q 108 43 128 42 m 488 401 q 476 367 488 374 q 440 360 465 360 q 426 360 438 360 q 413 361 415 361 q 416 377 410 367 q 426 390 422 388 q 438 393 429 392 q 457 397 447 394 q 476 400 467 399 q 488 401 485 401 m 757 418 q 769 388 757 400 q 800 375 782 375 q 808 375 803 375 q 817 376 815 375 q 828 378 819 376 q 845 383 836 381 q 863 387 854 385 q 875 390 871 389 l 875 397 q 869 435 875 417 q 855 471 863 453 q 840 508 847 489 q 831 549 833 528 q 827 586 829 560 q 823 643 825 613 q 819 700 821 674 q 817 738 817 726 q 803 615 804 650 q 801 547 801 581 q 801 531 801 540 q 803 492 800 521 q 788 478 796 488 q 774 458 781 469 q 762 437 767 447 q 757 418 757 426 m 629 433 q 621 426 626 426 q 614 433 617 426 q 621 440 613 440 q 629 433 631 440 m 383 738 q 378 734 379 739 q 376 722 376 729 q 378 712 376 717 q 383 708 379 707 q 390 722 390 711 q 383 738 390 735 m 715 767 l 715 751 l 744 751 l 744 767 l 715 767 m 686 810 q 681 806 683 811 q 679 794 679 801 q 681 784 679 789 q 686 781 683 779 q 693 794 693 783 q 686 810 693 807 m 456 896 q 449 901 458 900 q 426 903 439 903 q 404 901 414 903 q 397 896 394 900 q 426 889 404 889 q 456 896 449 889 m 774 1013 q 779 990 774 1006 q 788 968 785 974 q 790 967 788 968 q 794 967 793 967 q 816 983 811 967 q 821 1013 821 999 l 774 1013 z "},"N":{"ha":903,"x_min":131,"x_max":774,"o":"m 306 631 q 320 635 308 631 q 335 638 332 640 q 358 611 347 631 q 378 565 369 592 q 396 509 388 539 q 410 451 404 479 q 423 399 417 422 q 436 363 429 375 q 444 356 438 361 q 450 349 450 350 q 453 333 451 346 q 458 305 456 319 q 462 277 460 290 q 465 261 464 264 q 479 247 467 258 q 494 232 492 235 q 508 190 504 213 q 516 145 513 168 q 524 99 519 122 q 538 58 528 76 q 551 51 539 56 q 567 44 564 46 q 576 33 569 42 q 589 16 582 25 q 601 -1 596 7 q 610 -14 607 -10 q 664 38 646 15 q 682 104 682 61 q 674 324 682 215 q 667 543 667 433 q 667 564 667 549 q 667 597 667 581 q 667 631 667 615 q 668 651 668 646 q 675 667 669 656 q 688 690 681 678 q 702 713 696 703 q 711 725 708 722 q 722 728 713 726 q 741 731 731 729 q 760 735 751 733 q 769 739 768 738 q 772 749 771 740 q 774 761 774 757 q 772 772 774 764 q 769 782 771 779 q 740 785 761 783 q 697 790 719 788 q 653 794 674 792 q 624 797 632 796 l 601 797 l 581 797 q 558 795 574 797 q 523 790 542 793 q 488 785 504 788 q 465 782 471 783 q 522 722 489 751 q 596 681 556 692 l 596 349 q 591 343 596 347 q 579 334 586 339 q 565 325 572 329 q 551 319 557 321 q 546 318 551 318 q 538 318 540 318 q 529 318 535 318 q 522 319 525 318 q 511 386 521 351 q 487 456 501 421 q 455 522 472 490 q 421 579 438 554 q 413 594 418 582 q 407 608 408 606 q 405 619 407 610 q 400 638 403 628 q 395 656 397 647 q 393 667 393 664 q 372 701 383 688 q 348 726 360 714 q 328 755 336 739 q 319 797 321 771 l 146 782 l 146 775 l 146 768 q 160 753 149 765 q 175 739 171 742 q 192 726 179 735 q 218 709 204 718 q 244 692 232 700 q 263 681 257 683 q 263 674 263 679 q 264 667 264 668 q 256 647 264 651 q 247 631 247 643 l 247 624 q 254 615 249 621 q 263 608 260 610 l 263 275 l 247 261 l 219 131 q 197 128 211 131 q 167 119 182 125 q 142 103 153 113 q 131 81 131 94 q 135 67 131 78 q 146 42 140 56 q 156 17 151 29 q 161 0 161 6 q 182 13 174 11 q 204 15 190 15 q 246 8 228 15 q 290 0 264 0 l 335 0 q 342 3 336 0 q 356 8 349 6 q 370 13 364 10 q 378 15 376 15 q 388 17 379 15 q 408 22 397 19 q 426 26 418 24 q 436 29 435 28 q 440 44 438 31 q 442 65 442 58 q 440 84 442 69 q 436 101 438 99 q 422 110 433 104 q 407 117 410 115 q 396 119 404 117 q 377 123 388 121 q 358 127 367 125 q 349 131 350 129 q 347 138 349 131 q 342 154 344 144 q 338 174 340 164 q 335 189 336 183 q 331 226 332 206 q 326 267 329 246 q 319 310 324 289 q 306 349 314 331 l 306 631 z "},"O":{"ha":904,"x_min":165,"x_max":765,"o":"m 324 31 q 347 8 324 19 q 399 -11 369 -3 q 457 -24 429 -19 q 496 -29 485 -29 q 590 -6 556 -29 q 647 44 625 17 q 683 94 669 71 q 714 117 697 117 l 714 189 l 743 203 q 745 226 743 203 q 750 282 747 250 q 755 349 753 314 q 758 406 757 383 l 758 460 q 750 545 758 501 q 714 622 742 589 q 700 630 713 625 q 686 638 688 635 q 677 662 679 647 q 672 691 675 676 q 662 718 668 706 q 642 738 656 731 q 634 741 640 739 q 620 745 628 743 q 606 749 613 747 q 599 753 600 751 q 591 767 596 754 q 585 782 586 779 q 581 783 583 782 q 576 783 579 783 q 573 783 575 783 q 569 782 571 782 q 563 763 568 779 q 556 738 558 746 q 555 735 556 738 q 554 729 554 732 q 555 726 554 728 q 556 724 556 724 q 564 720 557 722 q 578 716 571 718 q 591 713 585 714 q 599 710 597 711 q 606 695 601 707 q 614 681 611 683 q 663 568 650 624 q 686 449 675 513 q 692 428 688 438 q 702 411 697 419 q 711 394 707 403 q 715 376 715 386 q 710 361 715 367 q 700 351 706 356 q 690 340 694 346 q 685 326 685 335 q 690 315 685 318 q 701 310 694 313 q 712 303 707 307 q 717 289 717 299 q 708 272 717 276 q 690 265 700 268 q 669 255 679 261 q 657 232 660 249 q 653 209 656 225 q 648 175 650 193 q 644 140 646 157 q 642 117 642 124 q 614 119 626 119 q 582 114 593 118 q 542 93 560 106 q 506 69 525 81 q 454 58 486 58 l 440 58 q 433 67 438 60 q 425 74 428 74 q 407 74 424 74 q 382 75 390 75 q 360 74 376 75 q 339 74 344 74 q 330 53 336 69 q 324 31 324 36 m 165 290 q 192 183 165 235 q 251 88 219 131 q 260 79 254 85 q 267 74 265 74 q 278 75 269 74 q 296 78 286 76 q 313 83 306 81 q 324 88 321 86 q 325 92 325 89 q 325 94 325 94 q 324 103 325 101 q 316 128 321 111 q 310 146 311 144 q 299 149 308 147 q 281 153 290 151 q 262 156 271 154 q 251 160 253 158 q 248 172 250 161 q 244 196 246 183 q 240 219 242 208 q 238 232 238 229 q 219 262 232 251 q 207 290 207 272 q 215 309 207 304 q 224 326 224 314 q 219 339 224 331 q 208 356 214 347 q 195 372 201 365 q 188 379 189 379 q 179 376 182 379 q 175 360 178 372 q 170 334 172 347 q 167 308 168 321 q 165 290 165 296 m 642 290 q 603 281 618 290 q 569 261 588 271 q 548 253 563 257 q 518 244 533 249 q 489 237 503 240 q 469 232 475 233 q 498 231 476 232 q 526 231 519 231 q 600 242 571 231 q 657 290 629 254 l 642 290 m 396 261 l 425 247 l 425 261 l 396 261 m 165 507 l 165 475 q 188 484 179 475 q 197 507 197 493 l 165 507 m 224 665 q 222 651 224 661 q 218 629 221 640 q 213 608 215 618 q 208 593 210 597 q 194 586 207 590 q 179 579 182 582 q 176 564 178 576 q 174 549 174 551 q 185 551 176 549 q 205 555 194 553 q 225 560 215 557 q 238 565 235 563 q 245 583 240 567 q 251 608 250 600 q 254 637 253 615 q 256 665 256 658 l 224 665 m 758 694 q 753 690 754 697 q 751 672 751 682 q 753 656 751 664 q 758 651 754 649 q 765 674 765 657 q 758 694 765 690 m 296 738 l 296 724 l 310 724 l 310 738 l 296 738 m 368 782 l 368 767 l 440 767 l 440 782 l 368 782 m 483 796 q 493 771 483 781 q 517 761 503 761 q 515 789 517 772 q 497 810 513 806 q 489 804 494 810 q 483 796 483 799 z "},"P":{"ha":904,"x_min":135,"x_max":758,"o":"m 135 26 q 138 40 135 35 q 143 50 140 46 q 149 59 146 54 q 151 72 151 64 q 149 92 151 83 q 136 108 147 100 l 238 108 l 267 160 q 269 197 267 169 q 273 253 271 224 q 277 310 275 283 q 281 347 279 336 q 283 363 281 353 q 287 385 285 374 q 292 407 289 397 q 296 419 294 417 q 302 427 296 422 q 310 435 308 432 q 317 449 311 438 q 324 464 322 461 q 327 465 325 464 q 332 465 329 465 q 335 465 333 465 q 339 464 338 464 q 347 449 342 461 q 353 435 353 438 l 497 435 l 513 471 l 693 471 l 693 536 l 724 536 q 697 425 724 463 q 626 372 669 388 q 526 353 582 356 q 411 347 469 351 l 353 347 q 340 292 342 313 q 338 239 338 271 q 338 213 338 228 q 340 181 339 197 q 344 150 342 164 q 353 131 347 136 q 363 127 354 129 q 381 123 371 125 q 400 119 392 121 q 411 117 408 118 q 419 101 414 114 q 425 88 424 89 q 439 79 428 85 q 454 72 450 74 l 454 -15 q 431 -10 442 -15 q 409 0 419 -6 q 388 10 399 6 q 368 15 378 15 q 322 6 344 15 q 281 -14 300 -3 l 136 15 l 136 19 q 135 26 135 24 m 281 564 q 285 584 279 567 q 296 608 290 601 q 298 609 296 608 q 301 610 300 610 q 327 599 318 610 q 340 572 336 588 q 346 540 344 556 q 347 517 347 525 q 307 531 326 517 q 281 564 288 544 m 743 579 l 743 550 l 758 550 l 758 579 l 743 579 m 475 710 q 540 707 500 710 q 616 693 579 704 q 678 658 653 682 q 700 604 700 638 q 700 593 700 600 l 714 593 q 715 606 714 596 q 720 629 717 617 q 729 652 724 642 q 743 665 735 663 q 735 673 740 668 q 729 681 731 678 q 718 694 726 683 q 700 717 710 704 q 682 740 690 729 q 671 753 674 750 q 656 757 667 756 q 635 760 646 758 q 613 767 624 763 q 599 782 603 772 l 454 782 l 440 796 l 425 767 l 324 767 l 310 738 l 238 738 q 222 767 235 761 q 188 772 210 772 q 190 760 188 769 q 195 741 192 751 q 202 722 199 731 q 208 708 206 713 q 218 705 210 707 q 237 701 226 703 q 256 697 247 699 q 267 694 264 696 q 274 680 269 693 q 281 665 278 667 q 292 664 282 665 q 310 663 303 663 q 326 664 315 663 q 339 665 338 665 q 349 679 343 668 q 353 694 354 690 q 373 698 358 696 q 403 702 388 700 q 434 706 419 704 q 454 708 449 708 q 464 710 456 710 q 475 710 472 710 m 136 753 l 136 738 l 150 738 l 150 753 l 136 753 m 296 796 q 289 788 289 797 q 296 782 289 779 q 303 788 303 783 q 296 796 303 793 z "},"Q":{"ha":904,"x_min":108,"x_max":810,"o":"m 492 -21 q 494 -45 492 -28 q 498 -82 496 -62 q 502 -119 500 -101 q 506 -143 504 -136 q 515 -173 507 -151 q 533 -217 522 -194 q 556 -256 544 -239 q 578 -274 568 -274 l 708 -274 q 744 -230 726 -249 q 777 -191 763 -211 q 801 -148 792 -171 q 810 -92 810 -125 q 803 -79 810 -83 q 787 -73 796 -75 q 767 -71 778 -71 q 750 -71 757 -71 q 731 -80 738 -71 q 717 -101 724 -89 q 700 -122 710 -112 q 674 -131 690 -131 q 644 -130 661 -131 q 613 -125 628 -129 q 587 -112 597 -121 q 576 -86 576 -103 q 578 -69 576 -76 q 592 -57 581 -61 q 586 3 589 -29 q 585 29 585 17 q 586 61 585 54 q 604 111 592 90 q 650 146 617 135 l 650 247 q 658 253 653 247 q 665 261 664 258 q 669 276 667 265 q 673 298 671 286 q 677 319 675 310 q 679 333 679 329 q 681 369 679 343 q 683 422 682 394 q 684 475 683 450 q 685 510 685 500 q 647 496 663 510 q 607 478 631 482 l 607 290 q 599 284 604 289 q 592 276 594 279 l 592 268 q 600 252 592 257 q 608 232 608 247 q 608 225 608 231 q 607 218 607 219 q 592 211 603 215 q 571 202 582 207 q 549 194 560 197 q 535 189 539 190 q 528 188 533 189 q 519 188 522 188 q 492 198 511 188 q 455 223 474 208 q 421 252 436 238 q 404 276 406 267 q 390 261 401 272 q 375 247 379 250 q 361 240 374 244 q 347 232 349 235 q 336 222 344 231 q 318 203 328 213 q 300 185 308 193 q 289 175 292 176 q 277 173 288 174 q 261 172 267 172 q 243 173 254 172 q 231 175 232 174 q 223 189 228 176 q 217 203 218 201 q 201 210 214 206 q 188 218 189 215 q 185 228 186 219 q 181 248 183 238 q 177 267 179 258 q 174 276 175 275 q 160 283 169 279 q 141 289 151 286 q 121 294 131 292 q 108 296 111 296 q 120 227 108 257 q 149 171 132 197 q 185 117 167 144 q 217 58 204 90 q 219 50 217 57 q 223 36 221 43 q 227 23 225 29 q 231 15 229 17 q 244 12 233 14 q 267 8 254 10 q 290 4 279 6 q 303 1 300 3 q 312 -9 306 -1 q 318 -21 318 -17 l 492 -21 m 339 99 q 356 144 339 126 q 399 163 372 163 q 410 162 403 163 q 419 160 418 161 q 423 150 421 158 q 427 132 425 142 q 431 113 429 122 q 433 103 432 104 q 441 95 435 100 q 447 88 447 90 q 451 69 449 85 q 453 50 453 53 q 436 53 450 50 q 419 58 422 56 q 412 74 417 61 q 404 88 407 86 q 392 91 401 89 q 372 94 382 93 q 351 97 361 96 q 339 99 342 99 m 115 507 l 115 333 l 129 333 q 131 348 129 333 q 135 383 133 363 q 140 426 138 404 q 144 464 143 449 q 145 485 144 468 q 146 507 146 501 l 115 507 m 144 565 q 150 550 144 561 q 158 536 156 539 l 158 593 q 150 580 156 590 q 144 565 144 569 m 608 579 q 606 563 608 569 q 599 552 603 557 q 592 540 594 547 q 589 521 589 533 q 637 538 624 521 q 650 586 650 554 q 631 626 650 613 q 588 639 611 639 q 591 619 588 626 q 598 607 594 613 q 605 595 601 601 q 608 579 608 589 m 519 638 q 513 629 513 639 q 519 622 513 621 q 526 629 526 625 q 519 638 526 635 m 435 754 q 442 753 438 754 q 447 753 447 753 q 455 739 450 751 q 463 724 460 726 q 498 702 475 710 q 535 681 521 694 q 542 666 536 678 q 549 651 547 654 q 567 648 551 650 q 583 646 582 646 q 569 719 583 692 q 530 763 554 747 q 473 784 506 778 q 404 796 440 790 q 397 797 403 796 q 390 797 392 797 l 390 735 q 412 744 406 735 q 435 754 418 754 m 246 739 q 269 724 258 726 q 296 722 281 722 q 321 726 308 722 q 333 746 333 729 q 333 750 333 747 q 332 753 332 753 q 325 769 331 758 q 318 782 319 779 q 315 783 317 782 q 311 783 313 783 q 306 783 308 783 q 303 782 304 782 q 297 767 301 779 q 289 753 292 754 q 268 744 285 750 q 246 739 251 739 z "},"R":{"ha":904,"x_min":139,"x_max":821,"o":"m 140 0 q 160 -1 146 0 q 191 -5 175 -3 q 222 -10 207 -7 q 242 -14 236 -12 q 256 -28 244 -15 q 271 -43 268 -40 q 274 -44 271 -43 q 278 -44 276 -44 q 282 -44 279 -44 q 285 -43 285 -43 q 292 -35 286 -42 q 300 -29 297 -29 q 315 -20 304 -26 q 328 -14 326 -14 q 362 -14 343 -12 q 400 -15 381 -15 q 439 -12 419 -15 q 474 0 458 -10 l 474 7 l 474 15 q 466 22 472 17 q 458 29 460 28 q 452 44 457 32 q 444 58 447 57 q 433 62 442 60 q 415 66 425 64 q 397 70 406 68 q 386 72 388 72 q 370 85 378 76 q 356 106 363 94 q 343 128 350 118 q 328 144 336 139 l 328 333 q 350 336 331 333 q 399 342 369 339 q 444 347 428 346 q 451 348 446 347 q 460 349 457 349 q 467 348 463 349 q 474 347 472 347 q 496 341 479 346 q 517 333 513 336 q 543 317 526 328 q 560 304 560 307 l 589 160 q 602 148 600 156 q 604 131 604 140 q 596 105 604 115 q 588 79 588 94 q 588 76 588 78 q 589 72 589 74 q 597 65 590 71 q 603 58 603 60 q 609 47 604 56 q 619 30 614 39 q 627 13 624 21 q 632 0 631 4 l 792 0 q 805 11 794 0 q 821 29 815 22 l 821 36 q 808 62 821 46 q 792 88 794 78 q 774 90 786 88 q 747 94 761 92 q 721 98 733 96 q 704 101 708 100 q 697 108 701 103 q 690 117 692 114 q 685 142 689 124 q 676 181 681 161 q 667 220 671 201 q 661 246 663 239 q 644 285 654 275 q 624 298 633 294 q 607 303 614 301 q 600 318 600 306 q 601 326 600 321 q 603 333 603 332 q 618 340 606 336 q 632 347 631 344 q 633 357 633 349 q 633 376 633 367 q 632 394 632 386 q 632 406 632 403 q 647 420 633 408 q 661 435 660 432 q 665 445 663 436 q 669 464 667 454 q 673 482 671 474 q 675 492 675 490 q 681 497 676 493 q 690 506 685 501 q 700 515 696 511 q 704 521 704 519 q 708 539 706 526 q 711 565 710 551 q 714 590 713 578 q 715 608 715 603 l 690 608 q 691 593 692 604 q 688 571 690 582 q 681 550 685 560 q 675 536 678 540 q 665 532 674 533 q 647 528 657 531 q 628 524 638 526 q 618 521 619 522 q 615 511 617 519 q 610 492 613 503 q 606 474 608 482 q 603 464 604 465 q 590 457 600 461 q 567 448 579 453 q 544 440 554 443 q 531 435 533 436 q 523 428 528 433 q 517 419 518 422 l 415 419 q 409 428 414 422 q 401 435 404 433 q 378 439 393 438 l 364 439 l 364 386 l 350 379 q 328 376 336 372 q 321 391 325 378 q 314 406 317 404 q 286 413 307 408 q 258 417 265 417 q 253 237 258 329 q 242 58 249 144 q 189 44 221 56 q 140 15 157 32 q 140 12 140 14 q 139 7 139 10 q 140 4 139 7 q 140 0 140 1 m 560 406 l 589 406 l 589 376 l 560 376 l 560 406 m 271 492 q 265 488 267 493 q 264 476 264 483 q 265 466 264 471 q 271 464 267 461 q 278 478 278 467 q 271 492 278 489 m 271 608 l 271 550 l 285 550 l 271 608 m 617 672 q 626 663 617 671 q 646 644 635 654 q 669 625 657 633 q 685 617 681 617 q 684 640 685 626 q 680 668 683 654 q 669 694 676 682 q 647 710 661 706 q 632 696 643 707 q 618 681 621 685 q 617 672 617 679 m 210 753 q 211 745 210 750 q 213 739 213 740 q 220 718 215 731 q 229 694 225 706 q 238 674 233 682 q 242 665 242 665 l 285 665 l 285 753 l 210 753 m 572 753 q 573 745 572 750 q 575 739 574 740 q 581 724 576 735 q 589 710 586 713 l 589 753 l 572 753 m 140 767 l 140 753 l 154 753 l 154 767 l 140 767 m 458 796 l 458 743 q 481 744 468 743 q 507 750 494 746 q 531 762 519 754 q 546 782 542 769 q 511 779 531 779 q 500 781 506 779 q 458 796 471 785 z "},"S":{"ha":907,"x_min":168,"x_max":718,"o":"m 240 44 q 260 42 246 44 q 291 38 275 40 q 322 34 307 36 q 342 31 336 32 q 349 23 343 29 q 356 15 354 17 q 372 8 361 13 q 394 -1 383 3 q 415 -10 406 -6 q 428 -14 425 -14 q 459 -18 436 -15 q 508 -23 482 -21 q 556 -26 533 -25 q 588 -28 579 -28 q 601 -12 590 -24 q 617 1 613 -1 q 631 8 619 3 q 646 15 643 14 q 688 70 674 38 q 718 132 703 103 l 718 139 q 710 155 718 150 q 701 175 701 160 q 704 190 701 185 q 710 201 707 196 q 715 213 713 206 q 718 232 718 219 q 711 302 718 272 q 689 376 704 332 q 676 382 685 378 q 659 391 668 386 q 642 400 650 396 q 631 406 633 404 q 624 413 629 407 q 617 421 618 419 q 602 427 614 422 q 588 435 590 432 q 580 450 585 438 q 572 464 575 463 q 561 466 572 465 q 544 467 550 467 q 517 461 524 467 q 509 449 511 456 q 503 438 507 443 q 486 433 500 433 q 465 439 474 433 q 457 464 456 444 l 328 464 l 328 450 q 336 443 328 449 q 356 431 344 438 q 379 417 367 424 q 400 406 392 410 q 422 398 406 403 q 443 392 438 393 q 453 392 444 392 q 471 392 463 392 q 489 392 481 392 q 500 392 497 392 q 508 385 503 392 q 515 376 513 378 q 526 374 517 376 q 544 370 535 372 q 563 366 554 368 q 572 363 571 364 q 578 358 574 363 q 587 349 582 354 q 596 339 592 343 q 601 333 600 335 q 610 331 603 333 q 624 327 617 329 q 638 323 631 325 q 646 319 644 321 q 651 308 646 318 q 660 290 657 297 q 662 283 660 289 q 667 269 664 276 q 672 255 669 261 q 674 247 674 249 q 681 240 675 244 q 689 232 688 235 q 690 226 689 232 q 690 218 690 221 q 690 210 690 215 q 689 204 689 204 q 681 197 688 201 q 674 189 675 192 q 672 178 674 186 q 667 160 669 169 q 663 142 665 150 q 660 132 661 133 q 650 125 658 129 q 631 116 642 121 q 612 108 621 111 q 601 103 603 104 q 596 97 600 101 q 587 88 592 93 q 578 78 582 82 q 572 74 574 74 q 518 53 553 63 q 460 43 483 43 q 441 44 453 43 q 428 44 429 44 q 422 54 425 46 q 414 73 418 63 q 406 92 410 83 q 400 103 401 100 q 392 106 399 104 q 378 109 385 107 q 364 113 371 111 q 356 117 357 115 q 348 125 354 118 q 335 139 342 132 q 321 152 328 146 q 313 160 314 158 q 304 161 311 161 q 291 160 299 161 q 276 160 283 160 q 269 160 271 160 q 262 174 267 161 q 254 189 257 188 q 239 194 251 192 q 224 197 226 197 q 228 121 224 157 q 240 44 233 85 m 443 204 l 443 189 l 472 189 l 472 204 l 443 204 m 529 247 l 529 232 l 544 247 l 529 247 m 168 290 l 168 247 l 269 247 q 243 256 254 249 q 223 271 232 263 q 204 285 214 279 q 182 292 194 292 q 176 291 181 292 q 168 290 171 290 m 229 585 q 233 549 229 568 q 246 513 238 529 q 269 485 254 496 q 304 474 283 474 q 303 491 304 478 q 302 519 303 504 q 300 547 301 533 q 299 565 299 560 q 292 574 297 568 q 283 579 286 579 q 273 581 281 579 q 256 583 265 582 q 239 584 247 583 q 229 585 231 585 m 443 608 q 438 605 440 610 q 436 593 436 600 q 438 583 436 588 q 443 579 440 578 q 450 593 450 582 q 443 608 450 606 m 426 754 q 460 750 439 754 q 502 740 481 746 q 543 725 524 733 q 572 710 563 717 q 580 696 575 708 q 588 681 585 683 q 602 673 590 678 q 617 667 614 668 q 635 647 626 658 q 654 624 644 635 q 676 607 664 614 q 704 600 689 600 q 703 611 704 601 q 703 622 703 621 q 701 657 703 632 q 696 710 699 682 q 691 762 693 738 q 689 796 689 786 q 663 783 675 785 q 636 781 651 781 q 619 785 624 781 q 613 797 615 790 q 606 808 610 803 q 594 813 603 813 q 581 810 585 813 q 574 803 578 807 q 562 797 569 800 q 536 794 554 794 q 513 797 521 794 q 499 803 506 800 q 485 810 492 807 q 465 813 478 813 q 440 808 458 813 q 398 795 422 803 q 347 778 374 788 q 297 758 319 768 q 258 740 274 749 q 240 724 242 731 q 239 713 240 721 q 237 697 238 706 q 235 681 236 689 q 235 671 235 672 q 260 674 240 671 q 283 681 279 678 q 291 695 286 682 q 299 710 296 708 q 308 713 300 711 q 326 717 317 715 q 344 722 336 719 q 356 724 353 724 q 364 729 357 725 q 378 739 371 733 q 391 749 385 744 q 400 753 397 753 q 410 753 400 753 q 426 754 421 754 m 503 913 q 520 878 503 890 q 558 868 538 865 l 558 913 l 503 913 m 472 926 q 464 933 474 933 q 457 926 456 933 q 464 919 460 919 q 472 926 469 919 z "},"T":{"ha":904,"x_min":175,"x_max":754,"o":"m 260 28 q 265 8 260 15 q 290 0 271 0 l 594 0 q 604 3 597 0 q 618 12 611 7 q 631 22 625 17 q 638 29 636 26 q 640 37 639 29 q 640 49 640 44 q 625 86 640 78 q 589 96 610 94 q 546 94 568 97 q 508 101 525 93 q 481 136 482 115 q 479 169 479 153 q 479 183 479 175 q 481 225 481 207 q 464 246 481 243 l 464 463 q 479 469 468 464 q 493 478 490 475 q 494 481 493 478 q 494 485 494 483 q 494 489 494 486 q 493 492 493 492 q 479 500 490 494 q 464 507 468 506 q 463 524 464 510 q 463 543 463 539 q 462 553 463 546 q 463 569 461 561 q 467 585 464 578 q 479 593 471 592 q 467 601 471 594 q 463 617 464 608 q 462 633 461 625 q 463 643 463 640 q 463 662 463 647 q 464 679 464 676 q 488 683 471 681 q 522 688 504 685 q 557 692 540 690 q 581 694 574 694 l 596 694 l 608 694 q 623 691 614 693 q 640 687 632 689 q 654 683 649 685 q 660 679 660 681 l 660 550 q 682 535 681 551 q 683 508 683 518 q 683 490 683 501 q 682 478 682 479 q 674 463 681 475 q 667 449 667 451 q 672 440 667 446 q 682 433 678 433 q 710 440 689 433 q 739 449 732 446 q 714 456 719 447 q 708 476 708 464 q 713 492 708 486 q 724 503 718 499 q 735 514 731 508 q 740 528 740 519 q 738 540 740 536 q 732 547 735 543 q 726 558 729 551 q 724 581 724 565 q 727 614 724 599 q 754 636 731 629 l 718 651 l 718 781 l 290 781 q 258 777 278 781 q 219 765 238 774 q 188 743 201 757 q 175 708 175 729 l 175 401 q 216 422 197 401 q 235 461 235 442 q 234 478 235 467 q 233 492 233 490 q 226 499 232 494 q 218 507 219 504 q 206 575 208 543 q 203 643 203 607 q 203 662 203 647 q 204 679 204 676 q 272 700 238 690 q 343 710 307 710 q 378 697 367 710 q 395 667 390 685 q 401 630 400 650 q 407 593 403 610 q 413 578 407 590 q 421 564 419 567 q 422 558 421 564 q 422 550 422 553 q 414 517 422 532 q 406 483 406 501 q 406 480 406 482 q 407 478 407 478 q 413 469 408 475 q 421 463 418 464 q 422 438 421 457 q 422 413 422 418 q 416 328 422 369 q 407 246 410 288 q 405 220 407 239 q 400 181 403 201 q 395 141 397 160 q 392 115 393 122 q 352 99 375 103 q 308 90 329 96 q 274 72 288 85 q 260 28 260 60 z "},"U":{"ha":904,"x_min":163,"x_max":775,"o":"m 219 254 q 225 190 219 222 q 249 131 231 158 q 256 124 250 129 q 264 117 263 118 q 266 106 264 114 q 270 88 268 97 q 274 69 272 78 q 278 58 276 60 q 301 41 282 53 q 342 17 319 29 q 387 -5 365 4 q 415 -14 408 -14 q 432 -6 428 -14 q 451 1 436 1 q 460 1 454 1 q 465 0 465 1 q 473 -7 468 0 q 481 -14 478 -14 q 495 -7 483 -14 q 510 0 507 0 q 523 3 513 1 q 546 8 533 6 q 569 12 558 10 q 582 15 579 14 q 588 22 582 15 q 600 38 593 29 q 614 57 607 47 q 625 72 621 67 q 651 122 638 92 q 668 174 665 153 q 672 203 669 182 q 677 247 675 224 q 681 290 679 269 q 683 318 683 310 q 684 390 683 339 q 685 499 685 442 q 684 608 685 557 q 683 681 683 660 q 686 703 681 686 q 697 724 692 719 q 708 727 699 725 q 726 731 717 729 q 745 734 736 732 q 756 738 754 736 q 762 750 758 742 q 768 767 765 758 q 773 785 771 776 q 775 796 775 793 l 740 796 q 703 792 729 794 q 647 788 676 790 q 590 784 617 786 q 553 782 563 782 q 538 767 549 779 q 524 753 526 756 q 523 749 524 751 q 522 744 522 747 q 536 715 522 725 q 568 698 550 706 q 603 680 586 690 q 625 651 619 669 q 627 638 625 649 q 632 615 629 628 q 637 592 635 603 q 639 579 639 582 q 647 572 640 576 q 654 564 653 567 q 655 558 654 564 q 656 550 656 553 q 653 533 656 540 q 639 521 651 525 q 631 444 632 482 q 628 368 629 406 q 624 293 628 331 q 611 218 621 256 q 608 207 610 215 q 603 189 606 199 q 598 170 600 179 q 596 160 596 161 q 588 135 593 151 q 582 117 582 118 q 567 109 579 114 q 553 101 556 104 q 545 95 550 100 q 538 88 540 90 l 350 88 q 338 99 349 88 q 321 117 328 110 q 312 128 318 119 q 299 145 306 136 q 285 163 292 154 q 278 174 279 171 q 264 369 268 272 q 260 564 260 465 l 217 564 q 235 536 217 544 l 235 275 q 226 269 232 274 q 219 261 221 264 l 219 254 m 163 753 q 184 729 171 746 q 210 693 197 713 q 234 654 224 674 q 249 622 244 635 q 252 633 250 625 q 256 651 254 642 q 260 668 258 660 q 264 681 263 676 q 272 706 267 690 q 278 724 278 722 q 304 735 290 733 q 328 740 318 738 q 346 751 339 743 q 353 782 353 760 l 206 782 q 186 764 199 771 q 163 753 174 757 z "},"V":{"ha":904,"x_min":151,"x_max":728,"o":"m 151 753 q 163 735 151 749 q 191 705 175 721 q 222 674 207 689 q 240 650 236 658 q 263 604 254 629 q 276 552 271 579 q 285 499 281 525 q 299 449 290 472 q 306 434 300 446 q 313 419 313 422 q 337 267 328 342 q 371 117 346 193 q 375 106 371 114 q 385 88 379 97 q 394 69 390 78 q 400 58 399 60 q 402 47 400 56 q 406 29 404 39 q 410 10 408 19 q 414 0 413 1 q 428 -10 417 -4 q 443 -14 440 -17 q 449 -6 444 -12 q 458 7 453 0 q 467 21 463 14 q 472 29 471 28 q 478 37 474 32 q 486 44 483 42 q 494 81 488 54 q 507 138 500 108 q 520 194 514 168 q 529 232 526 221 q 537 247 531 235 q 544 261 543 258 q 544 271 544 263 q 544 289 544 281 q 544 307 544 299 q 544 318 544 315 q 549 344 546 324 q 558 387 553 364 q 567 431 563 410 q 574 463 571 453 q 578 481 574 467 q 588 513 582 496 q 597 545 593 531 q 601 564 601 560 q 606 586 603 569 q 610 622 608 603 q 615 656 613 640 q 617 679 617 672 q 653 695 633 686 q 689 717 672 704 q 717 744 706 729 q 728 781 728 760 l 515 781 q 501 764 513 781 q 486 738 490 747 q 485 731 486 736 q 485 722 485 725 q 494 692 485 703 q 515 672 504 681 q 536 653 526 663 q 546 631 546 644 q 545 617 546 626 q 544 607 544 608 q 537 600 543 606 q 529 593 531 594 q 529 576 529 590 q 529 549 529 564 q 529 522 529 535 q 529 506 529 510 q 522 499 529 504 q 515 492 515 493 q 496 411 503 447 q 472 333 489 375 q 470 325 472 332 q 466 310 468 318 q 461 297 464 303 q 457 289 458 290 q 443 285 456 288 q 424 282 431 282 q 409 285 418 282 q 400 289 400 288 l 342 564 q 317 597 322 574 q 313 638 313 619 q 324 655 313 643 q 349 681 335 667 q 374 710 363 696 q 385 738 385 725 q 378 744 385 739 q 371 751 372 750 q 363 766 368 754 q 357 781 358 778 q 335 781 351 781 q 313 782 318 782 q 268 774 286 782 q 226 765 250 765 q 218 765 224 765 q 213 767 213 765 q 205 774 210 767 q 197 781 200 781 q 188 779 194 781 q 174 776 181 778 q 161 771 167 774 q 154 767 156 768 q 152 760 153 765 q 151 753 151 756 z "},"W":{"ha":904,"x_min":149,"x_max":764,"o":"m 500 175 q 504 124 500 147 q 514 78 508 101 q 524 30 519 56 q 531 -28 529 4 q 582 7 561 -19 q 617 60 603 33 q 620 106 618 72 q 624 175 622 139 q 628 244 626 211 q 632 290 631 278 l 632 307 l 632 319 q 625 342 631 325 q 617 363 619 358 q 601 347 604 357 q 596 326 599 336 q 588 309 593 317 q 565 301 582 301 q 553 303 561 301 q 544 306 546 304 q 539 316 542 308 q 534 333 536 324 q 531 350 532 342 q 531 363 531 358 q 525 346 529 358 q 515 320 521 333 q 505 296 510 307 q 500 283 500 285 q 508 267 500 271 q 517 247 517 263 q 517 239 517 244 q 515 233 517 233 q 508 226 515 231 q 501 218 501 221 q 501 201 501 217 q 500 175 500 185 m 217 522 q 218 473 217 508 q 221 399 219 438 q 224 325 222 360 q 226 276 225 290 q 231 257 226 272 q 241 225 236 242 q 251 194 246 208 q 256 175 256 179 q 260 140 257 165 q 265 88 263 115 q 268 36 267 61 q 269 1 269 11 l 314 1 q 319 10 315 1 q 326 29 322 18 q 335 53 331 40 q 342 74 339 65 q 360 205 358 135 q 371 333 361 275 q 376 350 371 338 q 385 377 381 363 q 395 405 390 392 q 400 421 400 418 q 404 449 401 429 q 409 492 407 469 q 413 536 411 515 q 415 565 415 557 q 422 567 417 567 q 429 568 426 568 q 450 558 442 568 q 463 535 458 549 q 471 508 468 522 q 474 486 474 494 q 474 475 474 483 q 474 458 475 467 q 470 443 474 450 q 458 435 467 436 q 485 403 469 419 q 522 388 500 388 q 522 405 522 392 q 519 433 521 418 q 517 460 518 447 q 515 479 517 474 q 510 488 515 482 q 501 493 504 493 q 501 511 501 499 q 501 540 501 525 q 500 568 500 556 q 500 588 500 582 q 503 643 500 618 q 510 691 506 668 q 517 737 514 714 q 519 789 519 760 q 489 787 513 789 q 458 782 465 785 q 451 775 456 782 q 443 768 446 768 q 438 767 443 768 q 429 767 432 767 q 409 775 414 767 q 393 783 404 783 q 386 782 386 783 q 378 768 383 781 q 371 754 374 756 q 357 747 369 751 q 342 739 344 742 q 341 736 342 739 q 340 732 340 733 q 350 719 340 724 q 371 708 360 714 q 392 694 382 703 q 401 668 401 685 q 399 650 401 658 q 386 638 397 642 q 379 580 381 610 q 376 520 378 550 q 371 462 375 490 q 357 407 367 433 q 349 392 356 404 q 342 378 343 381 q 338 354 340 371 q 334 319 336 338 q 330 285 332 301 q 328 261 328 268 l 269 261 l 242 522 l 217 522 m 653 594 q 646 546 653 568 q 631 502 639 524 q 617 458 624 481 q 610 408 610 435 q 648 423 638 408 q 661 464 658 438 q 663 490 661 471 q 665 529 664 508 q 666 569 665 550 q 667 594 667 588 l 653 594 m 246 629 q 219 616 228 629 q 211 588 211 603 q 212 583 211 586 q 213 581 213 581 q 237 601 228 590 q 246 629 246 611 m 603 746 q 608 718 603 735 q 623 686 614 701 q 644 660 632 671 q 669 649 657 649 q 681 650 674 649 q 689 653 689 651 l 763 725 q 763 728 763 725 q 764 732 764 731 q 763 736 764 733 q 763 739 763 739 q 751 751 760 743 q 734 769 743 760 q 717 786 725 778 q 704 797 708 794 q 686 774 699 783 q 659 761 674 765 q 629 756 644 757 q 603 754 614 754 l 603 746 m 168 768 q 160 763 165 768 q 154 754 156 757 q 153 742 154 750 q 151 724 151 733 q 149 707 150 715 q 149 696 149 699 l 246 696 q 238 718 246 706 q 217 742 229 731 q 192 760 206 753 q 168 768 179 768 z "},"X":{"ha":904,"x_min":104,"x_max":744,"o":"m 497 -14 q 486 -4 493 -8 q 472 3 479 0 q 458 11 464 7 q 453 22 453 15 q 453 26 453 24 l 454 29 q 468 38 454 31 q 483 44 479 43 l 483 189 q 468 193 479 188 q 454 203 457 199 q 450 222 450 210 q 451 242 451 233 q 447 257 451 251 q 425 263 442 263 q 397 256 406 263 q 368 232 388 249 q 336 192 347 215 q 322 139 328 169 q 319 92 319 124 q 319 83 319 88 q 324 29 324 54 l 179 0 q 173 -8 178 -3 q 165 -14 168 -12 q 162 -15 164 -14 q 157 -15 160 -15 q 142 -10 151 -15 q 125 1 133 -6 q 110 15 117 7 q 104 29 104 22 q 106 42 104 40 q 110 45 107 44 q 120 47 114 46 q 136 58 126 49 q 142 67 138 60 q 151 81 146 74 q 160 94 156 88 q 165 101 164 100 q 175 107 167 103 q 194 116 183 111 q 213 125 204 121 q 222 131 221 129 q 242 154 236 143 q 252 177 249 165 q 258 202 256 189 q 267 232 260 215 q 294 281 276 257 q 328 328 311 304 q 357 376 344 351 q 369 431 369 401 q 369 450 369 438 q 368 464 368 463 q 358 475 367 467 q 339 493 349 483 q 320 510 329 503 q 310 521 311 518 q 306 531 308 522 q 302 551 304 540 q 298 569 300 561 q 294 579 296 578 q 281 587 293 582 q 267 594 268 592 q 263 604 265 596 q 259 622 261 613 q 255 640 257 632 q 251 651 253 649 q 245 659 251 654 q 238 667 239 664 q 232 677 236 668 q 223 695 228 686 q 214 713 218 704 q 208 724 210 721 q 201 731 207 726 q 194 739 194 736 q 193 742 193 739 q 193 746 193 744 q 194 753 193 751 l 214 757 q 244 762 228 760 q 274 766 260 764 q 294 768 289 768 q 310 766 299 768 q 332 762 321 764 q 353 757 343 760 l 368 753 l 368 746 q 333 708 368 708 q 315 710 321 708 q 304 713 308 711 q 294 717 300 715 q 275 719 288 719 q 269 708 275 717 q 267 696 264 699 q 281 688 268 693 q 294 681 293 683 q 319 649 297 675 q 342 614 333 632 q 369 588 349 603 q 410 576 385 576 q 458 601 444 576 q 477 658 472 626 q 484 718 482 690 q 497 753 486 746 q 508 756 499 754 q 526 760 517 758 q 544 765 536 763 q 556 768 553 767 q 581 783 574 776 q 607 797 596 797 q 611 797 608 797 q 614 796 614 797 q 621 782 615 794 q 628 768 626 769 q 642 760 631 765 q 657 753 654 756 q 672 739 661 750 q 686 724 686 725 q 672 708 685 715 q 650 702 661 704 q 628 699 639 700 q 614 696 618 697 q 606 681 613 696 q 599 667 601 669 q 590 656 597 664 q 576 638 583 647 q 563 619 569 628 q 556 608 557 611 q 550 592 554 606 q 541 565 546 579 q 532 537 536 550 q 526 521 528 524 q 519 510 525 518 q 505 493 513 503 q 490 475 497 483 q 483 464 483 467 q 483 456 483 463 q 481 440 482 449 q 481 421 481 431 q 481 406 481 411 q 481 394 481 403 q 481 378 481 381 q 483 360 483 368 q 483 347 483 347 q 547 299 532 322 q 593 222 569 263 q 649 146 617 181 q 744 101 682 111 l 744 0 q 738 -6 744 -1 q 729 -14 732 -11 q 718 -21 726 -17 q 701 -29 710 -25 q 683 -36 692 -33 l 681 -39 l 674 -37 l 667 -36 q 643 -29 649 -29 q 614 -25 635 -28 q 570 -20 593 -22 q 526 -16 547 -18 q 497 -14 506 -14 z "},"Y":{"ha":904,"x_min":168,"x_max":749,"o":"m 313 29 l 328 36 q 342 44 339 42 q 348 58 343 46 q 356 72 353 71 q 367 76 358 74 q 384 82 375 79 q 401 86 393 85 q 414 88 410 88 l 414 390 q 381 439 399 410 q 356 492 364 468 q 353 502 356 493 q 349 521 351 511 q 345 539 347 531 q 342 550 343 547 q 331 561 340 553 q 313 578 322 569 q 294 596 303 588 q 283 607 285 604 q 280 617 282 608 q 276 636 278 626 q 272 654 274 646 q 269 665 271 663 q 226 708 256 694 q 168 721 201 721 l 168 722 q 182 728 172 724 q 203 738 192 732 q 225 751 214 744 q 240 767 236 758 l 401 767 q 392 722 401 740 q 370 690 382 703 q 349 667 358 676 q 339 650 339 657 q 340 642 339 647 q 342 636 340 636 q 356 628 344 636 q 371 622 364 622 q 386 589 374 622 q 408 544 396 567 q 435 506 419 522 q 472 489 451 489 q 501 514 486 489 q 530 570 517 539 q 551 631 543 601 q 560 672 560 661 q 559 690 560 676 q 558 708 558 704 q 536 714 553 708 q 515 722 519 719 q 514 729 514 724 q 514 733 514 731 q 515 738 514 736 q 529 754 519 742 q 543 767 536 764 q 559 769 546 768 q 587 773 572 771 q 615 777 601 775 q 631 781 628 779 q 645 788 633 782 q 660 794 657 794 q 663 796 660 796 q 667 796 665 796 q 694 791 679 796 q 721 776 708 786 q 741 754 733 767 q 749 726 749 742 q 735 724 746 726 q 711 719 724 722 q 688 713 699 717 q 674 708 676 710 q 667 699 671 707 q 658 680 663 690 q 650 660 654 669 q 644 650 646 651 q 622 622 633 639 q 601 593 604 596 q 561 511 596 588 q 528 436 531 444 q 506 357 513 389 q 499 261 499 315 q 497 185 499 217 q 497 181 497 182 q 515 117 497 149 q 542 94 526 97 q 576 88 560 90 q 606 78 593 86 q 618 44 618 71 q 617 29 618 40 q 615 15 617 18 l 601 11 q 580 6 592 8 q 558 2 568 4 q 543 0 547 0 q 509 -1 533 0 q 457 -1 485 -1 q 406 0 429 -1 l 371 0 l 358 -4 l 344 -6 l 313 29 z "},"Z":{"ha":904,"x_min":204,"x_max":715,"o":"m 411 0 q 369 -1 390 -1 q 208 15 325 -1 q 208 37 208 21 q 207 58 207 53 q 208 83 207 67 q 208 101 208 100 q 215 110 208 104 q 222 117 222 115 q 238 139 226 122 q 251 160 249 156 q 257 170 253 161 q 266 189 261 179 q 275 207 271 199 q 281 218 279 215 q 324 276 300 249 q 368 333 347 303 q 374 349 369 336 q 382 363 379 361 q 392 365 383 364 q 412 369 401 367 q 431 373 422 371 q 440 376 439 375 q 444 386 442 378 q 448 405 446 394 q 452 424 450 415 q 454 435 454 432 q 460 452 456 440 q 470 476 465 464 q 478 497 475 488 q 483 507 482 506 q 498 514 485 510 q 513 521 511 518 q 517 540 517 528 q 522 565 518 553 q 532 587 525 578 q 556 594 539 596 l 556 681 q 539 688 556 683 q 513 694 522 693 q 500 696 511 696 q 482 696 489 696 q 465 693 471 696 q 454 688 458 690 q 445 682 450 685 q 432 679 440 679 q 416 688 421 679 q 396 696 411 696 q 388 696 393 696 q 382 694 382 696 q 375 688 381 694 q 368 681 369 682 q 347 673 361 678 q 315 661 332 668 q 285 644 299 654 q 267 622 271 635 q 261 583 261 607 q 257 538 261 560 q 242 499 253 515 q 204 483 231 483 q 205 508 204 490 q 206 546 206 526 q 208 583 207 565 q 208 608 208 601 q 210 619 208 610 q 215 638 213 628 q 219 656 217 647 q 222 667 222 664 q 226 680 224 669 q 230 703 228 690 q 234 726 232 715 q 238 739 236 736 q 258 758 242 753 q 293 764 274 763 q 333 768 313 765 q 368 782 354 771 l 368 768 l 483 768 l 497 796 l 513 768 l 657 768 l 657 651 q 626 621 638 636 q 605 590 614 606 q 588 556 596 574 q 569 521 581 539 q 513 442 546 478 q 454 363 479 406 q 445 342 450 354 q 434 319 440 331 q 419 299 428 307 q 396 290 410 290 q 387 270 393 285 q 374 240 381 256 q 362 209 368 224 q 353 189 356 194 q 349 178 351 185 q 344 165 346 172 q 340 153 342 158 q 339 146 339 147 q 339 133 339 142 q 340 116 339 125 q 342 99 342 107 q 343 88 343 90 l 392 88 q 394 100 392 93 q 397 113 396 107 q 394 123 397 118 q 382 131 392 128 q 404 131 388 131 q 425 132 421 132 q 451 131 435 132 q 469 131 467 131 q 476 124 471 131 q 483 117 481 117 q 493 117 485 117 q 513 117 503 117 q 531 117 522 117 q 542 117 539 117 q 549 102 544 115 q 556 88 553 89 q 563 85 557 86 q 571 85 568 85 q 598 117 588 85 q 619 190 608 149 q 644 269 629 231 q 686 319 658 307 l 715 290 l 715 88 q 712 79 715 86 q 703 63 708 72 q 694 44 699 54 q 686 29 689 35 q 679 19 683 25 q 670 6 675 13 q 662 -7 665 -1 q 657 -14 658 -12 q 654 -15 657 -14 q 650 -15 651 -15 q 637 -12 640 -15 q 629 -7 633 -10 q 617 -1 625 -4 q 592 1 610 1 q 581 2 589 1 q 564 2 572 3 q 549 -2 556 1 q 542 -14 543 -6 l 425 -14 l 411 0 z "},"_":{"ha":900,"x_min":113,"x_max":810,"o":"m 244 -160 q 281 -163 254 -161 q 338 -167 308 -165 q 394 -172 368 -169 q 432 -174 421 -174 q 449 -174 433 -174 q 483 -174 464 -174 q 519 -175 501 -175 q 550 -175 539 -175 q 658 -174 608 -175 q 764 -160 708 -174 q 794 -141 779 -156 q 810 -110 810 -126 q 794 -72 810 -82 q 750 -58 778 -61 q 722 -56 747 -58 q 662 -52 696 -54 q 592 -47 628 -50 q 533 -43 556 -44 l 526 -43 q 330 -49 436 -43 q 128 -72 224 -56 q 113 -87 114 -75 q 113 -110 113 -100 q 127 -140 113 -126 q 157 -160 142 -154 q 179 -163 165 -162 q 193 -164 193 -164 l 193 -104 q 207 -102 193 -104 q 229 -101 221 -100 q 264 -108 253 -106 q 275 -129 275 -110 q 269 -152 275 -143 q 244 -160 263 -161 m 346 -115 l 374 -115 l 374 -144 l 346 -144 l 346 -115 m 678 -115 l 707 -115 l 707 -144 l 678 -144 l 678 -115 z "},"a":{"ha":900,"x_min":121,"x_max":774,"o":"m 121 181 q 124 148 121 171 q 134 101 128 125 q 148 56 140 76 q 165 29 156 35 q 180 25 169 26 q 202 22 190 24 q 224 15 214 19 q 238 0 233 10 l 440 0 q 464 12 447 4 q 500 27 481 19 q 537 40 519 35 q 563 44 554 44 q 627 36 597 44 q 693 28 657 28 q 706 28 697 28 q 726 28 715 28 q 744 29 736 29 q 758 29 754 29 q 762 44 760 33 q 766 65 764 54 q 770 87 768 76 q 774 101 772 97 l 774 108 l 774 115 q 759 117 769 115 q 737 122 749 119 q 715 126 725 124 q 701 131 706 129 q 693 136 699 131 q 686 144 688 142 q 684 155 686 146 q 679 174 682 164 q 674 192 676 183 q 672 203 672 200 q 665 210 671 204 q 657 217 658 215 l 657 232 q 665 259 657 251 q 674 290 674 267 q 674 301 674 294 q 672 317 674 310 q 665 329 671 325 q 650 332 660 333 l 650 506 q 619 519 633 510 q 590 537 604 528 q 561 553 576 546 q 528 564 546 561 q 517 564 525 564 q 499 564 508 564 q 479 564 489 564 q 469 564 471 564 q 455 578 467 565 q 440 593 443 592 q 432 594 440 593 q 419 594 424 594 q 402 592 408 594 q 390 586 396 589 q 378 581 385 583 q 361 578 372 578 q 347 580 351 578 q 338 585 342 582 q 329 591 333 589 q 318 593 325 593 q 282 579 303 593 q 242 547 261 565 q 208 506 222 528 q 194 471 194 485 l 194 463 q 198 432 197 447 q 203 404 199 417 q 216 383 207 392 q 244 375 225 375 q 294 385 276 375 q 321 409 311 394 q 335 441 331 424 q 348 473 340 458 q 368 497 356 488 q 404 507 381 507 q 417 507 408 507 q 426 506 425 507 q 434 503 428 506 q 448 499 440 501 q 462 494 456 497 q 469 492 468 492 q 483 490 472 492 q 506 485 493 488 q 528 481 518 483 q 542 478 539 479 q 545 467 543 476 q 549 449 547 458 q 552 430 550 439 q 556 419 554 421 q 567 414 558 417 q 584 408 575 411 q 601 405 593 406 q 614 406 610 404 l 614 376 q 585 369 607 375 q 556 361 563 364 q 549 354 554 361 q 542 347 543 347 q 533 347 540 347 q 519 347 528 347 q 506 347 513 347 q 499 347 500 347 q 484 340 496 346 q 469 332 472 333 q 459 331 468 332 q 446 331 450 331 q 434 331 442 331 q 426 332 426 332 q 416 346 422 335 q 411 361 410 357 q 397 353 408 358 q 382 347 386 349 q 339 338 369 344 q 274 325 308 332 q 209 312 240 318 q 165 304 178 306 q 160 290 164 300 q 150 269 156 281 q 138 247 144 257 q 122 232 131 236 q 122 206 122 225 q 121 181 121 188 m 238 158 l 238 174 q 244 196 240 182 q 253 222 249 210 q 262 244 258 235 q 267 253 265 253 l 411 253 q 440 283 415 276 q 485 290 465 290 q 492 290 488 290 q 499 289 497 289 q 506 283 500 289 q 513 275 511 276 q 523 269 514 274 q 542 261 532 265 q 561 252 553 257 q 571 246 569 247 q 574 231 572 244 q 575 210 575 217 q 574 189 575 203 q 571 174 572 175 q 561 169 569 171 q 542 165 553 167 q 523 161 532 163 q 513 160 514 160 q 507 154 511 158 q 498 144 503 150 q 489 135 493 139 q 483 131 485 131 q 467 127 481 129 q 440 123 454 125 q 413 119 425 121 q 397 115 400 117 q 389 110 394 115 q 382 101 383 104 l 267 101 q 249 130 260 118 q 238 158 238 142 z "},"b":{"ha":904,"x_min":135,"x_max":729,"o":"m 383 31 q 431 10 407 31 q 468 -28 454 -10 l 483 8 l 599 8 q 610 28 601 24 q 630 35 619 33 q 651 42 640 38 q 671 58 663 46 q 676 75 674 63 q 682 101 679 88 q 685 128 685 115 q 685 146 686 140 l 714 160 q 713 174 714 164 q 713 196 713 185 q 713 217 713 207 q 714 232 714 228 q 721 240 714 235 q 729 247 728 244 l 729 274 q 727 316 729 292 q 721 365 725 340 q 711 411 717 389 q 700 449 706 433 q 695 454 700 450 q 685 463 690 458 q 676 472 681 468 q 671 478 671 476 q 667 488 669 479 q 663 507 665 497 q 660 525 661 517 q 657 536 658 533 q 649 540 656 538 q 635 544 643 542 q 621 548 628 546 q 613 550 614 550 q 605 556 611 551 q 592 565 599 560 q 578 575 585 571 q 569 579 571 579 q 553 580 568 579 q 531 581 539 581 q 456 578 493 581 q 382 565 419 575 q 374 558 379 564 q 367 550 369 551 q 345 551 360 547 q 331 556 331 556 l 331 608 l 294 608 q 290 599 293 608 q 285 575 288 589 q 282 546 283 561 q 281 521 281 531 q 283 510 281 518 q 288 492 285 501 q 292 474 290 483 q 294 464 294 465 q 295 453 294 463 q 296 433 296 444 q 296 410 296 422 q 296 392 296 399 q 287 271 296 328 q 278 149 278 214 q 278 129 278 142 q 279 104 279 117 q 280 83 279 92 q 281 74 281 74 l 324 15 q 354 27 342 24 q 383 31 367 31 m 322 246 q 323 255 322 249 q 324 261 324 261 q 331 268 325 263 q 339 276 338 274 q 339 289 339 279 q 339 311 339 300 q 339 335 339 324 q 339 349 339 346 q 346 356 339 350 q 353 363 353 361 q 356 376 354 365 q 359 399 357 386 q 363 422 361 411 q 367 435 365 432 q 382 442 369 438 q 396 449 394 447 q 403 463 399 451 q 411 478 408 475 q 435 498 419 492 q 467 506 450 504 q 503 508 485 508 q 536 508 521 508 q 548 508 540 508 q 556 507 556 507 q 563 492 558 506 q 569 478 567 479 q 580 475 571 476 q 599 472 589 474 q 618 467 610 469 q 628 464 626 465 q 635 444 633 457 q 638 419 636 432 q 647 398 640 407 q 671 392 654 389 l 671 160 q 620 139 643 151 q 574 115 597 126 q 528 94 551 103 q 475 86 504 86 q 411 107 442 86 q 367 160 381 128 q 365 170 367 161 q 360 189 363 179 q 356 207 358 199 q 353 218 354 215 q 339 225 351 221 q 324 232 326 229 q 323 238 324 233 q 322 246 322 243 m 292 746 q 292 723 292 738 q 296 694 293 708 q 306 669 299 679 q 326 658 314 658 q 326 681 326 667 q 322 710 325 696 q 313 735 319 725 q 292 746 306 746 m 136 782 q 151 780 140 782 q 172 776 161 778 q 194 771 183 774 q 208 767 204 768 q 215 760 210 767 q 222 753 221 753 q 235 751 226 753 q 255 749 244 750 q 274 748 265 749 q 286 747 283 747 q 279 767 286 761 q 264 778 272 774 q 247 788 256 782 q 238 810 239 794 q 215 811 232 811 q 194 811 199 811 q 178 812 188 811 q 158 811 168 813 q 142 805 149 810 q 135 789 135 800 q 135 785 135 788 q 136 782 136 782 m 310 796 q 301 803 311 803 q 294 796 293 803 q 301 789 297 789 q 310 796 307 789 z "},"c":{"ha":900,"x_min":182,"x_max":732,"o":"m 182 1 q 197 -56 182 -35 q 236 -87 213 -76 q 290 -99 260 -97 q 349 -101 319 -101 q 367 -101 353 -101 q 385 -100 381 -100 q 372 -99 381 -100 q 355 -95 364 -97 q 338 -90 346 -93 q 326 -86 329 -87 q 312 -71 324 -83 q 297 -57 300 -58 q 267 -41 282 -47 q 237 -27 251 -35 q 208 -10 222 -19 q 182 15 194 0 l 182 1 m 572 -14 q 558 -20 569 -15 q 543 -28 546 -25 q 536 -35 542 -29 q 529 -42 531 -42 q 510 -46 522 -44 q 485 -51 497 -47 q 464 -62 472 -54 q 457 -86 456 -71 l 471 -86 l 486 -86 q 510 -76 496 -82 q 539 -62 525 -69 q 563 -49 553 -54 q 572 -42 572 -43 l 572 -14 m 457 1 q 463 -8 457 -1 q 471 -14 468 -14 q 485 -7 474 -14 q 500 1 497 0 q 533 10 517 8 q 566 15 550 13 q 598 19 582 17 q 631 31 614 22 q 653 41 639 35 q 681 54 668 47 q 705 67 694 61 q 717 74 715 72 q 730 114 728 85 q 732 161 732 143 q 730 197 732 182 q 717 232 728 211 q 710 211 714 217 q 702 203 707 206 q 690 199 697 201 q 674 189 683 197 q 663 178 671 186 q 644 160 654 169 q 626 142 635 150 q 615 132 618 133 q 606 128 614 131 q 587 124 597 126 q 568 120 576 122 q 558 117 560 118 q 544 102 556 115 q 529 88 532 89 q 517 87 528 88 q 500 86 506 86 q 483 87 494 86 q 471 88 472 88 q 456 102 468 89 q 442 117 444 115 q 434 120 440 118 q 421 124 428 122 q 407 128 414 126 q 399 132 400 131 q 354 160 378 142 q 312 203 331 179 q 281 253 293 226 q 268 306 268 279 q 276 324 268 319 q 283 340 283 329 q 276 367 283 356 q 268 393 268 378 q 273 417 268 408 q 297 435 278 425 q 283 437 294 436 q 268 438 272 438 q 244 433 251 438 q 234 422 238 429 q 226 408 231 415 q 211 392 222 400 l 211 218 q 222 211 215 217 q 235 199 228 206 q 247 185 242 192 q 254 175 253 179 q 256 161 256 172 q 255 139 256 151 q 254 115 254 126 q 254 103 254 106 q 263 88 254 100 q 281 64 271 76 q 301 41 292 51 q 313 31 310 31 l 457 1 m 543 363 q 538 356 540 365 q 536 333 536 346 q 538 311 536 321 q 543 304 540 301 q 549 317 547 308 q 550 333 550 325 q 549 351 550 343 q 543 363 547 360 m 385 424 l 385 406 q 391 403 385 406 q 407 399 397 401 q 426 395 417 397 q 442 392 435 393 q 454 391 446 392 q 472 390 463 390 q 489 388 481 389 q 500 388 497 388 l 500 406 q 492 409 500 407 q 472 413 483 411 q 449 417 461 415 q 428 421 436 419 q 406 422 422 421 q 385 424 389 424 m 586 428 q 606 401 586 413 q 638 390 625 390 q 642 391 639 390 q 644 392 644 392 q 651 399 646 393 q 660 406 657 406 q 694 438 685 424 q 703 486 703 453 q 683 546 703 522 q 633 584 663 569 q 570 604 604 599 q 507 610 536 610 q 494 609 503 610 q 486 608 486 608 q 472 601 483 608 q 457 594 460 594 q 444 591 454 593 q 421 587 433 589 q 398 583 408 585 q 385 579 388 581 q 379 575 383 579 q 370 565 375 571 q 361 556 365 560 q 356 550 357 551 q 331 540 344 543 q 306 531 318 536 q 287 515 294 525 q 279 488 279 506 q 300 488 285 488 q 332 490 315 489 q 364 492 349 490 q 385 493 379 493 q 401 499 394 494 q 414 508 408 503 q 426 518 419 514 q 442 522 432 522 l 457 522 q 485 517 465 521 q 528 508 506 513 q 572 499 551 503 q 601 493 593 494 q 615 481 613 489 q 617 463 617 472 q 612 449 617 453 q 601 444 607 446 q 591 439 596 442 q 586 428 586 436 z "},"d":{"ha":900,"x_min":150,"x_max":772,"o":"m 265 14 l 425 0 q 450 28 432 26 q 488 31 468 31 q 552 22 525 31 q 619 13 579 13 q 632 13 624 13 q 652 13 642 13 q 671 14 663 14 q 685 14 681 14 q 690 29 685 18 q 700 43 696 40 q 714 40 703 46 q 728 35 725 35 l 728 -4 q 735 -3 731 -4 q 743 0 740 -1 q 760 15 750 4 q 772 29 771 26 q 771 44 772 33 q 767 66 769 54 q 762 88 765 78 q 757 101 758 97 q 719 101 740 100 q 676 108 697 101 q 638 126 656 114 q 613 160 621 139 q 609 219 611 176 q 605 310 607 263 q 601 402 603 358 q 599 463 599 446 q 598 494 599 471 q 597 542 597 517 q 598 590 597 567 q 599 622 599 613 q 584 633 586 625 q 582 650 582 642 q 585 666 582 660 q 591 677 588 672 q 597 689 594 682 q 600 708 600 696 q 597 731 600 722 q 590 745 594 739 q 579 759 585 751 q 569 781 574 767 l 497 781 q 521 744 504 761 q 540 708 538 728 q 540 700 540 707 q 541 684 540 693 q 542 665 542 675 q 542 650 542 656 q 541 622 542 643 q 540 593 540 600 q 529 589 538 592 q 512 584 521 586 q 494 580 503 582 q 482 578 486 578 q 448 577 472 578 q 396 576 424 576 q 344 577 368 576 q 310 578 319 578 q 302 570 307 575 q 294 564 297 565 q 283 558 292 563 q 265 549 275 554 q 247 540 256 544 q 236 535 238 536 q 231 525 235 533 q 222 506 226 517 q 213 488 217 496 q 208 478 210 479 q 201 469 207 475 q 193 463 194 464 q 181 433 189 451 q 167 396 174 414 q 155 363 160 378 q 150 347 150 349 l 150 101 q 172 114 161 111 q 196 117 182 117 q 210 104 200 117 q 232 75 221 92 q 253 41 243 58 q 265 14 263 24 m 207 258 q 208 267 207 261 q 208 275 208 274 q 210 297 208 281 q 215 333 213 314 q 219 367 217 351 q 222 390 221 383 q 236 405 231 394 q 244 426 242 415 q 249 448 247 438 q 251 463 250 458 q 260 489 254 472 q 265 506 265 506 l 410 506 q 415 485 411 492 q 425 476 419 479 q 438 472 431 474 q 454 463 444 469 q 468 449 457 460 q 482 433 479 438 q 504 406 493 418 q 524 382 515 394 q 537 355 532 369 q 542 318 542 340 q 530 256 542 289 q 497 203 518 224 q 475 185 489 194 q 447 163 461 175 q 422 140 433 151 q 410 115 411 128 l 310 115 q 295 131 307 119 q 281 144 283 142 q 265 151 278 146 q 251 160 253 157 q 248 167 250 161 q 244 181 246 174 q 240 194 242 188 q 236 203 238 201 q 218 228 229 218 q 207 258 207 239 m 425 824 l 425 796 l 482 796 l 482 810 l 425 824 z "},"e":{"ha":904,"x_min":135,"x_max":746,"o":"m 135 338 q 158 243 135 285 q 224 174 182 201 q 231 167 226 172 q 238 160 236 161 q 247 140 240 154 q 263 108 254 125 q 280 78 271 92 q 296 58 289 64 q 405 9 349 18 q 526 0 461 0 q 593 11 557 0 q 659 43 629 22 q 709 94 689 64 q 729 160 729 124 q 717 188 729 185 q 686 190 704 190 q 651 183 661 190 q 637 165 642 175 q 628 146 632 156 q 614 131 625 136 q 601 127 611 129 q 578 123 590 125 q 555 119 565 121 q 542 115 544 117 q 534 108 539 115 q 526 101 529 101 q 521 101 526 101 q 513 100 515 100 q 462 113 489 100 q 411 131 435 126 q 467 151 440 133 q 513 188 493 168 q 494 189 508 189 q 476 189 481 189 q 450 186 460 189 q 433 181 440 183 q 415 175 425 178 q 389 172 406 172 q 371 173 385 172 q 353 174 357 174 q 340 199 342 186 q 338 226 338 211 q 343 246 338 240 q 356 256 349 251 q 371 265 364 260 q 382 282 378 269 l 700 282 q 709 288 703 282 q 722 301 715 293 q 735 319 729 310 q 744 333 742 328 q 745 344 744 333 q 746 360 746 354 q 740 405 746 381 q 723 453 733 429 q 699 498 713 476 q 671 535 686 519 q 657 542 669 538 q 643 550 644 547 q 635 564 640 553 q 628 579 629 575 l 425 579 q 414 565 422 567 q 397 564 406 564 q 377 572 382 564 q 360 581 372 581 q 356 580 358 581 q 353 579 353 579 q 346 565 351 576 q 339 550 340 553 q 307 525 322 533 q 281 508 292 517 q 263 484 269 499 q 256 439 256 469 q 240 436 253 439 q 224 435 226 433 q 215 441 221 435 q 208 449 210 447 q 190 456 204 451 q 172 463 176 461 l 172 564 q 150 452 165 511 q 135 338 135 393 m 556 261 q 540 247 551 258 q 526 232 529 235 l 526 224 l 526 217 q 552 224 546 215 q 558 246 558 233 q 558 253 558 249 q 556 261 557 258 m 178 325 q 178 351 178 332 q 179 376 179 369 q 200 387 192 381 q 216 398 208 393 q 232 406 224 403 q 256 410 240 410 q 252 363 256 393 q 238 318 249 333 q 224 310 236 315 q 208 304 211 306 l 208 297 q 216 272 208 282 q 224 246 224 261 l 224 232 q 195 244 204 235 q 182 268 186 254 q 178 297 178 282 q 178 325 178 313 m 331 413 l 542 413 q 547 418 542 413 q 560 432 553 424 q 574 449 567 440 q 585 463 581 457 q 592 477 588 465 q 599 492 597 489 q 610 477 603 486 q 624 458 617 468 q 638 438 632 449 q 643 419 643 428 l 643 406 q 624 404 636 406 q 599 398 611 403 q 578 384 586 393 q 571 361 569 375 l 382 361 q 367 374 376 369 q 350 383 358 379 q 336 394 342 388 q 331 413 331 400 m 492 522 q 526 517 508 522 q 543 492 543 513 q 542 485 543 490 q 542 478 542 479 q 522 476 535 478 q 497 470 510 475 q 476 457 485 465 q 469 435 468 449 l 331 435 q 350 472 331 456 q 396 500 369 489 q 449 517 422 511 q 492 522 476 522 m 571 521 q 582 506 582 521 q 571 492 582 492 q 560 506 560 492 q 571 521 560 521 m 469 651 q 464 656 471 654 q 447 657 457 657 q 430 656 438 657 q 425 651 422 654 q 447 644 431 644 q 469 651 464 644 z "},"f":{"ha":904,"x_min":165,"x_max":838,"o":"m 411 303 l 411 476 q 424 505 411 503 q 453 507 436 507 q 461 507 454 507 q 476 506 474 507 l 514 500 l 519 500 q 558 521 540 508 q 571 549 571 529 q 551 578 571 567 q 506 597 532 589 q 453 611 479 606 q 411 621 415 617 q 408 639 410 622 q 408 657 408 653 q 415 688 408 676 q 429 710 421 700 q 444 733 438 721 q 454 765 451 746 q 465 761 457 764 q 483 756 474 758 q 500 753 492 754 l 513 751 q 527 758 514 753 q 542 765 540 764 q 555 767 543 767 q 574 768 567 768 q 608 752 597 768 q 628 716 619 736 q 650 680 638 696 q 690 664 663 664 q 703 664 694 664 q 719 665 711 664 q 735 670 728 667 q 743 679 742 674 q 738 709 744 688 q 719 754 731 731 q 694 797 707 778 q 671 824 678 822 q 650 822 665 825 q 619 821 646 821 q 590 822 604 821 q 569 824 575 822 q 558 828 567 824 q 541 839 550 833 q 523 849 532 844 q 513 853 514 853 q 507 849 511 853 q 498 839 503 844 q 489 829 493 833 q 483 824 485 825 q 472 818 481 822 q 454 809 464 814 q 435 800 444 804 q 425 794 426 796 q 417 788 422 793 q 411 781 413 783 q 408 772 410 779 q 403 758 406 765 q 399 745 401 751 q 396 738 397 739 q 382 730 394 735 q 368 722 369 725 l 364 714 q 356 693 360 704 q 347 669 351 682 q 339 650 342 657 q 325 619 332 631 q 309 599 318 607 q 286 588 300 592 q 251 578 272 583 q 238 574 247 576 q 216 570 228 572 q 194 566 204 568 q 179 564 183 564 l 179 557 l 179 549 q 186 535 182 546 q 194 521 193 521 q 267 508 229 514 q 339 492 304 503 l 339 419 l 339 347 q 337 307 339 336 q 333 246 335 278 q 328 185 331 214 q 324 144 324 146 q 297 119 321 136 q 249 92 275 106 q 200 68 224 78 q 165 58 176 58 q 176 19 168 39 q 208 -1 185 -1 q 237 7 225 -1 q 265 15 249 15 q 352 7 310 15 q 440 -1 394 -1 q 457 -1 444 -1 q 483 -1 469 -1 q 510 0 497 0 q 526 0 522 0 q 553 9 547 -3 q 562 36 560 21 q 567 66 564 51 q 585 86 571 81 q 563 94 579 89 q 542 101 546 100 q 528 103 539 101 q 504 108 517 106 q 481 113 492 111 q 468 115 471 115 q 452 122 461 117 q 433 131 443 126 q 417 140 424 136 q 411 144 411 143 l 411 272 q 411 303 411 272 m 622 260 q 636 260 628 260 q 653 262 644 260 q 667 268 661 264 q 672 281 672 272 q 672 286 672 283 l 671 289 q 664 297 671 290 q 657 303 660 303 q 639 307 654 304 q 621 311 622 311 q 610 292 619 308 q 614 278 610 292 q 622 260 619 260 m 831 954 q 824 946 824 956 q 831 939 824 938 q 838 946 838 942 q 831 954 838 951 m 786 1011 q 794 978 786 993 q 822 963 801 963 q 814 999 822 982 q 786 1026 806 1015 l 786 1011 z "},"g":{"ha":904,"x_min":140,"x_max":825,"o":"m 390 -187 l 390 -233 q 417 -218 410 -233 q 424 -187 424 -203 l 390 -187 m 492 -172 q 479 -183 483 -175 q 474 -202 475 -192 q 472 -221 472 -212 q 472 -233 472 -231 q 507 -201 507 -233 q 505 -184 507 -192 q 492 -172 503 -176 m 564 -217 l 564 -231 l 579 -231 l 579 -217 l 564 -217 m 267 -172 q 274 -189 267 -183 q 292 -198 282 -194 q 314 -202 303 -201 q 332 -203 325 -203 l 332 -172 l 267 -172 m 739 -72 q 731 -100 739 -89 q 712 -119 724 -111 q 688 -132 700 -126 q 665 -143 675 -137 q 649 -154 658 -147 q 630 -168 639 -161 q 614 -181 621 -175 q 607 -187 607 -186 l 607 -206 q 701 -190 665 -206 q 767 -129 738 -174 q 773 -122 768 -126 q 781 -115 778 -117 l 781 -14 l 721 -14 q 730 -43 721 -31 q 739 -72 739 -56 m 188 -129 l 188 -158 l 246 -158 l 246 -129 l 188 -129 m 140 -28 q 141 -51 140 -35 q 144 -83 142 -67 q 154 -110 147 -99 q 174 -122 161 -122 l 174 -28 l 140 -28 m 633 63 q 658 12 633 26 q 714 -3 682 -3 q 690 48 714 33 q 633 63 667 63 m 275 81 l 275 39 q 319 44 297 39 q 363 56 342 50 q 405 68 383 63 q 449 74 426 74 q 466 71 461 74 q 476 65 471 68 q 488 60 481 63 q 513 57 496 57 q 547 58 531 57 q 579 74 564 58 q 542 80 556 75 q 516 90 528 85 q 492 100 504 96 q 461 104 479 104 q 449 104 457 104 q 435 103 442 104 q 423 96 428 101 q 419 81 418 90 l 275 81 m 217 103 l 217 88 l 260 88 q 249 101 257 99 q 232 103 240 103 l 217 103 m 188 146 l 188 131 l 203 131 l 203 146 l 188 146 m 217 276 l 217 247 l 376 261 q 388 274 379 272 q 406 276 396 276 q 426 268 421 276 q 449 260 432 260 q 470 268 464 260 q 492 276 476 276 q 511 269 507 276 q 528 261 515 261 l 535 261 q 542 269 538 263 q 550 276 547 275 q 565 283 553 278 q 579 290 576 288 q 587 309 585 299 q 591 328 589 319 q 599 343 593 338 q 622 349 606 349 q 606 363 618 363 q 585 364 594 364 q 572 363 581 364 q 564 363 564 363 q 557 349 561 361 q 550 333 553 336 q 511 319 533 321 q 469 318 489 318 q 440 323 460 318 q 399 336 419 328 q 363 355 378 344 q 347 378 347 365 l 347 536 q 357 536 350 535 q 371 540 364 538 q 383 545 378 542 q 390 551 389 549 q 393 563 392 551 q 394 579 394 574 q 393 594 394 583 q 390 608 392 606 q 382 585 390 593 q 362 572 374 576 q 338 563 350 567 q 318 551 326 560 q 315 543 317 550 q 310 529 313 536 q 306 515 308 522 q 304 507 304 508 q 299 501 303 506 q 289 492 294 497 q 279 483 283 488 q 275 478 275 479 q 274 476 275 478 q 274 472 274 474 q 282 446 274 457 q 290 419 290 435 q 282 401 290 406 q 274 385 274 396 q 276 372 274 374 q 283 367 279 371 q 289 355 286 364 q 292 321 292 346 q 291 302 292 314 q 289 290 290 290 q 276 283 286 286 q 254 277 265 279 q 232 274 243 275 q 217 276 221 274 m 549 558 q 558 527 549 550 q 582 480 568 504 q 609 437 596 456 q 629 418 622 418 q 636 421 636 418 l 679 522 q 685 523 681 522 q 692 524 689 524 q 717 514 704 524 q 742 493 731 504 q 763 472 754 482 q 774 463 771 463 q 778 463 775 463 q 781 464 781 464 q 786 478 782 468 q 794 501 790 489 q 803 522 799 513 q 810 536 807 532 q 817 544 811 539 q 825 551 822 549 q 799 569 815 568 q 767 579 782 571 q 752 594 764 582 q 738 608 740 607 q 735 609 738 608 q 731 610 732 610 q 710 603 724 610 q 682 587 697 596 q 649 571 667 578 q 614 564 631 564 q 584 568 596 564 q 564 594 572 572 q 556 580 561 592 q 550 565 551 568 q 549 563 550 565 q 549 558 549 560 m 492 608 l 478 579 l 492 579 l 492 608 z "},"h":{"ha":900,"x_min":125,"x_max":807,"o":"m 168 29 q 175 14 169 25 q 183 0 181 3 l 189 0 q 228 5 211 0 q 256 15 244 10 q 278 26 268 21 q 299 31 288 31 q 314 26 308 31 q 324 15 319 21 q 335 3 329 8 q 349 -1 340 -1 q 380 10 372 -1 q 390 36 388 21 q 395 66 392 51 q 414 88 399 81 l 313 115 q 297 164 310 146 q 283 203 283 182 q 292 224 283 218 q 300 247 300 231 q 284 281 300 267 q 249 294 268 294 l 249 115 q 229 111 243 117 q 213 101 215 106 q 207 82 208 94 q 202 57 206 69 q 192 36 199 44 q 168 29 185 28 m 558 50 q 558 42 558 47 q 559 30 558 36 q 563 19 560 24 q 574 14 567 14 l 747 14 l 806 43 q 806 46 806 43 q 807 50 807 49 q 796 76 807 64 q 770 101 785 89 q 740 124 756 113 q 718 144 725 135 q 715 190 717 157 q 710 260 713 224 q 706 331 708 297 q 704 376 704 364 q 703 415 703 396 q 703 442 703 442 q 704 450 704 447 q 689 507 693 499 q 663 533 683 518 q 619 562 643 549 q 573 584 596 575 q 538 593 550 593 l 531 593 q 516 585 528 592 q 501 579 504 579 q 488 576 499 578 q 465 572 478 574 q 442 567 453 569 q 429 564 431 565 q 423 554 426 563 q 415 535 419 546 q 406 517 410 525 q 400 507 401 508 q 390 503 399 506 q 369 499 381 501 q 346 494 357 496 q 328 492 335 492 q 313 491 324 492 q 290 490 303 490 q 267 489 278 489 q 253 489 257 489 q 258 467 253 478 q 269 447 263 457 q 281 427 275 438 q 286 404 286 417 q 280 380 286 389 q 256 361 274 371 q 267 348 260 350 q 285 346 275 346 q 303 352 294 346 q 319 368 313 358 q 332 388 326 378 q 342 406 338 397 q 347 416 343 407 q 356 435 351 425 q 364 453 360 444 q 371 463 368 461 q 386 467 374 464 q 414 472 399 469 q 442 475 429 474 q 458 478 456 476 q 472 492 461 479 q 486 507 483 504 q 503 516 492 511 q 528 525 515 521 q 554 533 542 529 q 575 536 567 536 q 596 527 589 536 q 607 506 603 518 q 616 482 611 494 q 632 463 621 469 l 632 115 q 581 93 603 104 q 558 50 558 82 m 256 564 l 256 550 l 299 550 l 299 564 l 256 564 m 256 681 l 256 636 l 299 636 l 299 681 l 256 681 m 125 796 q 171 783 150 793 q 213 761 192 772 q 254 741 233 750 q 299 732 275 732 l 299 796 q 290 798 299 796 q 271 802 282 800 q 247 806 260 804 q 226 810 235 808 q 217 810 225 810 q 204 811 208 811 q 166 808 181 811 q 125 796 151 806 z "},"i":{"ha":904,"x_min":229,"x_max":672,"o":"m 661 14 q 665 31 668 28 q 667 47 665 32 q 665 58 665 56 q 663 78 665 65 q 656 106 660 92 q 651 131 653 119 q 650 146 649 142 q 611 131 635 131 q 571 131 592 131 l 519 131 q 518 145 519 135 q 514 167 517 156 q 505 190 511 179 q 490 204 499 200 q 476 378 479 290 q 475 464 475 421 q 476 550 475 507 q 456 584 476 574 q 418 594 436 594 q 394 590 403 594 q 378 579 385 585 q 365 569 372 574 q 346 564 358 564 q 325 571 333 564 q 308 587 317 578 q 290 603 300 596 q 267 610 281 610 q 238 592 246 610 q 229 560 229 575 q 229 549 229 557 q 231 534 229 542 q 235 520 232 526 q 244 514 238 514 l 404 514 l 404 204 q 391 153 404 172 q 357 125 378 135 q 311 108 335 114 q 260 103 275 103 q 258 92 258 103 q 257 81 257 83 q 258 68 257 76 q 260 58 258 60 q 274 51 261 56 q 289 44 286 47 q 295 30 290 42 q 303 15 300 18 q 325 6 317 8 q 346 1 343 1 l 549 15 q 556 41 547 35 q 578 47 565 47 q 589 42 585 47 q 606 25 596 32 l 608 18 q 610 3 608 8 l 613 -4 l 625 -12 l 646 -7 q 661 14 651 -4 m 628 389 q 647 365 639 381 q 661 333 660 342 q 668 300 663 326 q 672 272 672 290 l 672 315 q 672 336 672 324 q 671 361 672 349 q 663 382 669 374 q 642 390 656 390 q 635 390 639 390 q 628 389 631 389 m 342 797 q 357 767 342 775 l 374 757 q 421 754 397 756 l 449 757 l 471 765 q 485 792 485 769 q 471 844 485 832 q 414 856 457 856 q 363 844 385 856 q 342 797 342 833 z "},"j":{"ha":904,"x_min":146,"x_max":632,"o":"m 146 -72 q 147 -90 146 -79 q 147 -101 147 -100 q 154 -108 147 -103 q 161 -115 161 -114 q 165 -128 163 -118 q 169 -151 167 -139 q 173 -174 171 -164 q 176 -187 175 -185 q 186 -200 178 -194 q 204 -209 194 -206 q 222 -215 214 -212 q 233 -217 231 -217 q 250 -220 238 -218 q 277 -224 263 -222 q 305 -228 292 -226 q 321 -232 318 -231 q 335 -238 324 -232 q 350 -246 347 -244 q 356 -247 350 -246 q 364 -247 361 -247 q 403 -240 376 -247 q 458 -220 431 -232 q 509 -196 486 -208 q 538 -174 532 -183 q 541 -166 539 -172 q 545 -152 543 -160 q 549 -138 547 -144 q 553 -131 551 -132 q 557 -125 553 -129 q 567 -116 561 -121 q 576 -107 572 -111 q 581 -101 581 -103 q 601 -47 600 -75 q 610 14 601 -18 q 617 22 611 17 q 625 29 624 26 l 625 50 l 625 72 q 617 79 624 74 q 610 86 610 85 q 608 101 610 90 q 606 123 607 111 q 605 145 606 135 q 604 160 604 156 l 538 160 q 535 127 538 150 q 531 79 533 104 q 527 31 529 54 q 524 0 525 8 q 520 -15 522 -6 q 516 -33 518 -24 q 512 -49 514 -42 q 508 -58 510 -57 q 493 -72 506 -61 q 466 -94 481 -82 q 438 -117 451 -107 q 422 -131 425 -128 q 415 -137 419 -132 q 407 -144 410 -142 l 282 -144 q 279 -123 282 -139 q 278 -101 276 -107 q 294 -74 282 -83 q 318 -58 306 -65 q 341 -39 331 -50 q 351 -7 351 -28 q 351 -3 351 -6 q 350 0 350 0 q 335 8 347 3 q 321 14 324 13 q 305 35 310 24 q 294 54 300 46 q 278 68 288 63 q 250 74 268 74 q 206 66 221 74 q 185 44 192 58 q 174 12 178 31 q 161 -29 169 -7 q 154 -36 161 -31 q 147 -43 147 -42 q 147 -56 147 -44 q 146 -72 146 -67 m 538 304 q 542 279 539 294 q 551 250 546 264 q 560 226 556 236 q 567 217 564 217 l 631 217 q 628 246 631 224 q 625 275 626 268 q 617 282 624 276 q 610 289 611 288 l 610 303 l 610 318 q 618 333 611 321 q 625 347 625 344 q 619 356 625 350 q 610 361 613 361 l 610 521 l 625 535 q 606 549 622 539 q 570 568 590 558 q 532 585 550 578 q 508 593 514 593 q 497 593 507 593 q 475 594 488 593 q 450 594 463 594 q 429 594 438 594 q 413 594 425 594 q 389 594 401 594 q 365 593 376 593 q 350 593 354 593 q 330 571 339 585 q 321 542 321 557 l 321 535 q 376 524 346 524 q 381 525 381 524 q 414 525 381 525 q 446 525 446 525 q 506 515 478 524 q 553 478 535 507 l 553 419 l 553 361 q 550 350 553 358 q 544 333 547 342 q 540 315 542 324 q 538 304 538 306 m 457 794 q 467 778 457 783 q 482 767 475 772 q 511 756 492 758 q 544 750 519 753 q 583 750 569 746 q 606 764 590 751 q 627 776 622 771 q 632 786 632 781 l 632 794 q 624 801 632 796 q 617 808 618 807 l 594 850 q 583 867 590 858 q 564 881 576 875 q 528 883 546 885 q 503 875 515 883 q 481 853 490 867 q 464 822 469 839 q 457 794 457 808 z "},"k":{"ha":904,"x_min":126,"x_max":811,"o":"m 288 29 q 317 29 299 29 q 354 27 336 29 q 386 19 372 25 q 404 0 400 13 q 412 14 407 3 q 418 29 417 25 q 419 32 418 29 q 419 36 419 35 q 419 40 419 38 q 418 43 418 42 q 379 61 401 50 q 337 87 357 72 q 302 119 317 101 q 288 160 288 138 q 297 179 288 171 q 319 198 307 188 q 344 224 332 208 q 361 268 356 240 l 490 268 q 492 287 490 274 q 497 315 494 300 q 501 342 499 329 q 506 361 504 356 q 517 376 507 369 q 538 391 526 383 q 561 406 550 399 q 578 419 572 413 q 584 435 579 422 q 592 449 589 447 q 600 451 593 450 q 614 455 607 453 q 628 459 621 457 q 636 463 635 461 q 651 480 640 465 q 664 499 661 494 l 781 499 q 794 513 783 499 q 810 535 804 528 l 810 543 l 810 550 q 803 558 808 553 q 794 564 797 563 q 772 565 788 564 q 740 565 757 565 q 707 565 724 565 q 686 565 697 565 q 636 567 658 565 q 624 567 631 567 q 590 564 607 567 q 547 556 565 561 q 506 535 528 550 q 491 527 503 532 q 476 521 479 522 q 502 500 497 513 q 507 471 507 488 q 506 458 507 467 q 506 449 506 450 q 492 434 504 446 q 476 419 479 422 q 473 411 475 418 q 469 397 471 404 q 465 384 467 390 q 463 376 464 378 q 451 371 460 375 q 433 362 443 367 q 415 353 424 357 q 404 347 406 349 q 396 339 401 346 q 383 324 390 332 q 369 310 375 317 q 361 304 363 304 q 346 302 360 303 q 325 301 332 301 q 306 302 321 301 q 289 304 292 303 q 275 340 278 325 q 272 376 272 356 q 273 394 272 383 q 274 406 274 404 q 282 420 275 408 q 289 435 289 432 q 283 441 289 436 q 274 449 276 446 q 264 451 271 451 q 263 413 264 440 q 262 356 263 386 q 260 299 261 326 q 260 261 260 271 q 257 244 260 257 q 252 217 254 232 q 247 190 250 203 q 244 174 244 176 l 244 140 l 244 115 q 259 108 246 113 q 274 101 272 104 q 272 79 279 93 q 264 65 264 65 l 188 65 q 191 51 188 65 q 201 29 194 38 q 219 22 203 28 q 244 14 236 17 l 253 14 q 269 22 264 14 q 288 29 274 29 m 549 14 q 554 8 549 13 q 564 0 560 3 l 569 0 q 622 8 597 0 q 674 15 646 15 q 685 16 678 15 q 700 16 692 17 q 715 12 708 15 q 722 0 721 8 q 735 4 726 0 q 752 13 743 8 q 769 22 761 17 q 781 29 778 26 q 782 35 781 29 q 783 43 783 40 q 782 51 783 46 q 781 58 781 56 q 766 60 776 58 q 744 65 756 63 q 722 69 732 67 q 708 72 713 71 q 674 94 693 78 q 637 129 656 111 q 601 161 618 147 q 571 175 583 175 q 567 174 569 175 q 564 174 564 174 l 549 14 m 810 14 q 801 21 811 21 q 794 14 793 21 q 801 7 797 7 q 810 14 807 7 m 143 43 q 136 50 146 50 q 129 43 126 50 q 136 36 132 36 q 143 43 142 36 m 535 232 q 526 239 536 239 q 519 232 518 239 q 526 225 522 225 q 535 232 532 225 m 260 636 l 260 507 l 306 507 q 301 525 306 515 q 290 545 296 535 q 278 567 283 556 q 274 594 274 579 q 289 636 274 614 q 304 688 304 658 q 303 700 304 692 q 303 708 303 708 q 296 716 303 711 q 289 724 289 721 q 285 738 288 728 q 280 759 282 747 q 276 781 278 771 q 274 796 274 792 l 129 796 l 129 782 q 151 776 138 779 q 181 769 165 774 q 209 756 196 764 q 231 738 222 749 q 238 723 232 735 q 244 708 243 711 q 260 694 247 706 q 274 681 272 683 q 274 674 274 679 q 275 667 275 669 q 273 649 275 657 q 260 636 271 640 z "},"l":{"ha":904,"x_min":188,"x_max":763,"o":"m 263 72 q 261 59 263 69 q 256 37 260 49 q 247 15 253 25 q 233 0 242 4 q 246 0 238 0 q 263 -1 254 0 q 281 -1 272 -1 q 292 -1 289 -1 q 325 1 310 -1 q 354 7 340 4 q 383 13 368 10 q 415 15 397 15 q 438 13 429 15 q 453 7 446 10 q 467 1 460 4 q 488 -1 475 -1 q 515 3 510 -1 q 522 17 521 8 q 524 36 522 25 q 538 58 525 47 q 552 58 543 63 q 567 50 561 54 q 574 44 572 46 l 574 -3 q 582 -2 574 -3 q 596 0 590 -1 q 624 15 610 4 q 649 41 638 26 q 669 72 660 56 q 682 101 678 88 q 668 105 678 103 q 647 109 658 107 q 624 113 635 111 q 610 115 614 115 q 603 116 608 115 q 594 117 597 117 q 572 110 582 117 q 551 94 561 103 q 531 78 542 85 q 508 71 521 71 q 501 72 507 71 q 494 72 496 72 q 476 130 488 99 q 464 189 464 161 q 472 226 464 210 q 481 267 481 243 q 478 317 481 286 q 465 361 476 347 q 458 365 464 363 q 444 369 451 367 q 430 373 436 371 q 422 376 424 375 q 421 381 421 376 q 421 389 421 386 q 430 415 421 403 q 450 440 439 428 q 470 465 461 453 q 479 492 479 476 l 479 710 q 478 717 479 711 q 474 729 476 722 q 469 743 472 736 q 465 753 467 750 q 458 760 464 754 q 451 767 451 765 q 448 777 450 768 q 444 797 446 786 q 440 815 442 807 q 436 825 438 824 q 427 827 436 825 q 407 831 418 829 q 384 835 396 833 q 364 839 372 838 q 361 840 364 839 q 357 840 358 840 q 333 835 343 840 q 315 825 324 831 q 297 815 306 819 q 278 810 288 810 l 263 810 q 256 818 261 811 q 249 825 250 825 q 236 826 244 825 q 218 828 228 828 q 199 830 208 829 q 188 831 190 831 q 196 799 188 813 q 217 775 204 785 q 247 760 231 765 q 278 753 263 754 q 293 753 281 753 q 320 753 306 753 q 347 754 335 754 q 364 753 361 754 q 370 743 365 751 q 379 724 375 735 q 388 705 383 714 q 393 694 392 696 q 401 688 394 693 q 407 681 407 682 q 408 674 407 679 q 408 667 408 669 q 408 658 408 664 q 407 651 407 651 q 400 637 407 649 q 393 622 393 625 q 381 540 383 576 q 378 461 378 504 q 385 408 378 432 q 393 356 393 383 l 393 333 q 390 319 393 331 q 385 297 388 308 q 381 274 383 285 q 378 261 378 264 q 378 244 378 257 q 378 217 378 232 q 378 189 378 203 q 378 174 378 176 q 376 150 378 167 q 372 115 374 133 q 367 81 369 97 q 364 58 365 64 q 349 57 361 57 q 335 57 338 57 q 301 65 315 57 q 269 72 288 72 l 263 72 m 756 319 q 749 311 749 321 q 756 304 749 303 q 763 311 763 307 q 756 319 763 317 m 625 983 q 617 990 626 990 q 610 983 608 990 q 617 976 613 976 q 625 983 622 976 z "},"m":{"ha":904,"x_min":101,"x_max":828,"o":"m 113 89 q 135 33 113 46 q 184 17 157 19 q 235 15 211 15 q 261 0 258 15 q 283 26 275 10 q 290 58 290 42 q 282 81 290 64 q 263 115 274 97 q 243 145 253 132 q 232 160 233 158 q 219 160 231 160 q 203 161 208 161 q 185 160 196 161 q 174 160 175 160 q 166 145 171 158 q 160 131 161 132 q 151 127 158 129 q 137 123 144 125 q 123 119 129 121 q 115 115 117 117 q 114 105 115 115 q 113 89 113 94 m 347 29 q 369 26 353 28 q 405 22 386 24 q 440 17 424 19 q 463 14 456 15 l 486 14 q 533 19 513 14 q 553 56 553 24 q 543 89 553 72 q 522 122 533 106 q 500 155 510 139 q 490 188 490 171 q 499 208 490 203 q 507 224 507 213 q 504 237 507 233 q 499 244 501 240 q 493 256 496 249 q 490 282 490 264 q 491 303 490 289 q 492 318 492 317 q 499 325 492 319 q 507 332 506 331 q 507 346 507 335 q 507 368 507 357 q 507 392 507 381 q 507 406 507 403 q 522 431 508 414 q 553 465 535 447 q 590 494 571 482 q 621 507 608 507 q 636 505 626 507 q 656 499 646 503 q 672 490 665 496 q 679 478 679 485 l 679 144 q 630 98 653 125 q 607 35 607 71 l 607 29 q 668 13 632 13 q 731 13 706 13 q 746 13 735 13 q 771 13 758 13 q 794 14 783 14 q 810 14 806 14 q 822 23 818 15 q 826 40 825 31 q 827 56 828 49 q 826 67 826 64 q 821 93 826 78 q 806 124 815 108 q 787 153 797 140 q 767 174 776 167 q 763 222 765 188 q 759 296 761 257 q 755 370 757 335 q 753 419 753 406 q 749 475 751 451 q 739 516 747 499 q 713 548 731 533 q 665 578 696 563 q 663 579 665 579 q 658 579 660 579 q 641 571 646 579 q 622 563 636 563 q 603 571 607 563 q 586 579 599 579 q 579 578 579 579 q 571 572 576 576 q 564 564 565 567 q 510 560 549 563 q 427 556 471 558 q 344 552 383 554 q 289 550 304 550 q 274 549 286 550 q 257 549 263 549 q 242 549 251 549 q 232 550 232 550 q 221 552 229 550 q 203 557 213 554 q 184 562 193 560 q 174 564 175 564 q 153 563 165 564 q 129 559 140 561 q 110 554 118 557 q 101 550 101 551 l 101 535 q 114 535 106 536 q 131 531 122 533 q 149 526 140 529 q 160 521 157 522 q 164 514 161 519 q 169 501 167 508 q 172 488 171 494 q 174 478 174 481 l 174 260 q 185 221 174 236 q 219 206 196 206 q 210 256 219 233 q 201 306 201 279 q 202 313 201 308 q 203 318 203 318 q 217 327 206 321 q 232 332 228 333 q 233 353 232 338 q 237 384 235 368 q 242 414 239 400 q 246 433 244 428 q 253 442 246 436 q 261 449 260 447 q 267 463 263 451 q 275 478 272 475 q 283 481 276 479 q 297 484 290 482 q 310 488 304 486 q 318 492 317 490 q 326 506 321 493 q 333 521 331 519 q 338 522 333 521 q 346 522 343 522 q 376 511 360 522 q 405 483 392 500 q 426 449 418 467 q 435 419 435 432 q 426 392 435 400 q 418 361 418 385 q 421 338 418 346 q 426 322 424 329 q 432 306 429 315 q 435 282 435 297 q 432 258 435 267 q 426 241 429 249 q 421 225 424 233 q 418 203 418 217 q 426 172 418 179 q 435 144 435 164 q 420 110 435 118 q 388 99 406 103 q 356 90 371 96 q 342 58 342 83 q 344 43 342 54 q 347 29 346 32 z "},"n":{"ha":904,"x_min":83,"x_max":768,"o":"m 231 22 q 234 6 229 11 q 246 0 239 1 q 260 -1 253 -1 q 272 -1 268 -1 q 283 -2 276 -1 q 298 -1 290 -3 q 311 3 306 0 q 318 14 317 7 l 549 14 q 564 -1 553 0 q 585 -1 575 -1 q 611 7 604 -1 q 635 15 618 15 q 671 7 656 15 q 708 -1 686 -1 q 723 -1 711 -1 q 738 0 735 0 q 720 6 729 1 q 708 14 711 11 q 712 32 706 19 q 718 49 718 44 q 728 55 721 49 q 738 58 735 61 q 746 44 740 56 q 751 29 751 33 q 765 42 763 33 q 768 58 768 50 q 753 83 768 78 q 719 92 738 89 q 683 101 700 94 q 665 131 667 107 q 665 154 665 135 q 665 194 665 174 q 665 236 665 217 q 665 261 665 256 q 663 304 665 274 q 658 369 661 335 q 653 434 656 403 q 650 478 651 465 q 619 511 632 492 q 592 549 606 531 q 560 581 578 568 q 514 594 542 594 q 501 594 510 594 q 492 593 493 593 q 477 586 489 593 q 463 579 465 579 q 437 572 456 576 q 397 563 418 568 q 358 555 376 558 q 332 550 339 551 q 320 536 328 538 q 304 535 313 535 q 269 542 286 535 q 234 558 251 549 q 199 574 217 567 q 163 581 182 581 q 174 521 163 544 q 197 478 185 497 q 221 438 210 458 q 232 390 232 418 q 229 374 232 381 q 224 363 226 368 q 218 351 221 358 q 215 333 215 344 q 215 322 215 329 q 215 308 214 315 q 220 296 217 301 q 231 289 224 290 l 231 174 q 218 163 222 169 q 212 148 214 156 q 208 132 210 140 q 201 115 207 124 q 157 72 185 90 q 100 43 129 53 l 100 22 l 231 22 m 318 101 q 311 124 315 107 q 302 158 307 140 q 294 193 297 176 q 289 217 290 210 q 288 233 289 219 q 288 254 288 247 q 288 274 288 261 q 289 289 289 288 q 296 297 289 292 q 303 304 303 301 q 307 324 304 310 q 312 355 310 339 q 316 385 314 371 q 318 406 318 400 q 340 411 324 406 q 361 419 357 417 q 368 434 364 421 q 375 449 372 447 q 397 460 381 453 q 433 476 414 468 q 468 488 451 483 q 492 493 485 493 q 524 483 508 493 q 553 458 540 474 q 572 426 565 443 q 579 392 579 408 q 578 383 579 389 q 578 376 578 378 q 576 365 578 374 q 571 347 574 357 q 566 328 568 338 q 564 318 564 319 q 563 315 564 318 q 563 310 563 313 q 563 306 563 308 q 564 304 564 304 q 570 296 565 301 q 578 289 575 290 l 578 144 q 570 138 575 143 q 564 131 565 133 q 556 115 561 128 q 549 101 551 103 q 539 98 547 100 q 520 94 531 96 q 501 90 510 92 q 492 88 493 88 q 486 81 490 86 q 477 72 482 76 q 468 63 472 67 q 463 58 464 58 q 447 56 461 57 q 426 56 433 56 q 394 62 407 56 q 372 76 382 68 q 349 92 361 85 q 318 101 338 99 m 100 507 q 93 514 103 514 q 86 507 83 514 q 93 500 89 500 q 100 507 99 500 z "},"o":{"ha":907,"x_min":172,"x_max":708,"o":"m 382 624 q 378 623 381 624 q 375 622 375 622 q 360 608 372 619 q 346 593 349 596 q 335 590 343 592 q 317 585 326 588 q 298 582 307 583 q 288 579 289 581 q 256 558 275 574 q 217 524 236 543 q 185 484 199 504 q 172 449 172 464 l 172 203 q 174 196 172 201 q 177 183 175 190 q 182 169 179 176 q 186 160 185 163 q 194 152 188 157 q 201 144 200 147 q 203 133 201 142 q 208 115 206 125 q 212 97 210 106 q 215 88 214 89 q 229 80 217 85 q 244 72 242 75 q 256 61 247 69 q 274 42 264 53 q 292 24 283 32 q 303 14 300 15 q 313 14 304 14 q 331 14 321 14 q 349 14 340 14 q 360 14 357 14 q 374 7 363 14 q 389 0 386 0 q 404 -1 390 0 q 425 -1 418 -1 q 467 2 443 -1 q 511 15 490 6 q 547 40 532 25 q 563 79 563 56 l 664 79 q 667 90 665 79 q 672 116 669 101 q 676 147 674 131 q 679 174 678 163 q 679 183 679 175 q 679 203 679 193 q 679 221 679 213 q 679 232 679 229 q 686 247 679 235 q 693 261 693 258 q 697 285 694 269 q 703 317 700 301 q 707 347 706 333 q 708 363 708 360 q 703 370 708 364 q 694 383 699 376 q 684 397 689 390 q 679 406 679 403 q 674 428 676 411 q 669 463 672 444 q 665 497 667 481 q 664 521 664 514 q 649 528 661 522 q 635 536 638 533 q 628 550 633 538 q 621 564 624 563 q 572 594 603 579 q 518 610 542 610 q 495 605 501 610 q 485 594 489 600 q 476 583 481 588 q 457 578 471 578 q 424 585 436 578 q 403 601 411 592 q 391 617 396 610 q 382 624 386 624 m 214 333 q 219 355 214 340 q 233 385 225 369 q 248 414 240 400 q 260 435 256 428 q 265 445 261 436 q 273 464 268 454 q 282 482 278 474 q 288 492 286 490 q 298 495 289 493 q 317 499 307 497 q 335 503 326 501 q 346 507 343 506 q 360 522 349 508 q 375 536 372 535 q 386 537 376 536 q 403 538 396 538 q 431 533 419 538 q 452 524 442 529 q 474 514 463 519 q 506 507 486 508 q 521 536 504 528 q 553 544 538 544 q 551 522 553 531 q 545 508 549 514 q 540 497 542 503 q 538 481 538 490 q 553 483 547 481 q 565 489 560 486 q 579 494 571 492 q 601 497 588 497 q 598 481 601 494 q 592 463 594 467 q 578 456 590 461 q 563 449 565 451 l 563 443 q 567 415 563 426 q 578 392 572 403 q 588 369 583 381 q 593 342 593 357 q 589 287 593 318 q 574 225 585 256 q 547 169 564 194 q 506 131 531 143 q 497 129 504 129 q 483 129 490 129 q 469 130 476 129 q 461 131 463 131 q 447 123 458 129 q 433 115 436 117 l 397 115 l 360 115 q 347 140 361 135 q 314 153 333 146 q 274 176 294 161 q 244 232 254 192 q 242 245 244 235 q 238 268 240 256 q 233 291 235 281 q 231 304 231 301 q 223 311 229 306 q 215 318 217 317 q 215 325 215 319 q 214 333 214 331 z "},"p":{"ha":907,"x_min":114,"x_max":769,"o":"m 422 -244 l 450 -274 q 460 -266 453 -272 q 474 -253 467 -260 q 486 -240 481 -246 q 494 -231 492 -233 q 495 -227 494 -229 q 496 -222 496 -225 q 495 -219 496 -221 q 494 -215 494 -217 q 480 -209 492 -214 q 465 -201 468 -204 q 458 -187 463 -199 q 450 -172 453 -175 q 448 -172 450 -172 q 443 -171 446 -171 q 432 -176 435 -171 q 427 -187 429 -181 q 421 -198 425 -193 q 407 -203 417 -203 q 381 -194 390 -203 q 363 -175 371 -186 q 349 -151 356 -164 q 335 -129 343 -137 q 319 -118 325 -119 q 310 -116 314 -117 q 306 -113 307 -115 q 304 -100 304 -111 q 309 -85 304 -89 q 320 -78 314 -81 q 332 -72 326 -76 q 338 -57 338 -68 q 331 -35 338 -44 q 306 -28 325 -26 l 306 39 q 320 40 310 39 q 342 42 331 42 q 364 44 354 43 q 378 44 374 44 q 385 38 381 44 q 393 31 390 31 q 403 27 394 29 q 422 22 413 25 q 439 17 431 19 q 450 15 447 15 q 474 8 457 14 q 494 1 490 3 q 509 -7 497 0 q 524 -14 521 -14 q 538 -7 526 -14 q 551 1 549 0 q 562 3 553 1 q 581 8 571 6 q 599 12 590 10 q 610 15 607 14 q 624 31 613 18 q 639 44 636 43 q 664 53 651 51 q 688 56 676 54 q 709 65 700 58 q 725 88 718 71 q 728 101 726 90 q 733 124 731 111 q 737 147 735 136 q 740 160 739 157 q 754 167 742 163 q 769 175 767 172 l 769 182 q 761 199 769 194 q 753 218 753 203 q 761 240 753 233 q 769 261 769 246 q 761 288 769 281 q 753 319 753 296 q 761 351 753 343 q 769 378 769 358 q 760 407 769 390 q 740 441 751 424 q 719 476 728 458 q 710 507 710 493 q 712 524 710 517 q 725 536 714 532 q 608 594 667 579 q 478 610 549 610 q 444 602 460 610 q 414 586 429 594 q 383 570 399 578 q 349 563 367 563 q 324 567 332 563 q 310 578 315 572 q 300 590 306 585 q 285 596 294 596 q 275 588 283 596 q 257 569 267 579 q 240 547 247 558 q 232 531 232 536 q 235 509 232 518 q 244 492 239 500 q 255 474 250 483 q 263 450 260 464 q 263 401 263 436 q 263 331 263 368 q 264 258 264 293 q 264 211 264 225 q 265 124 264 147 q 265 76 265 101 q 264 29 265 53 q 260 -68 264 -19 q 249 -158 257 -117 q 229 -181 236 -165 q 219 -208 222 -197 l 114 -208 l 114 -217 q 118 -231 115 -225 q 125 -239 119 -233 q 132 -244 131 -244 l 422 -244 m 350 204 q 349 219 350 208 q 349 243 349 231 q 349 267 349 256 q 349 283 349 279 q 347 347 349 322 q 347 350 347 349 q 364 406 347 375 q 372 413 365 408 q 378 421 378 418 q 381 431 379 422 q 385 450 383 440 q 390 468 388 460 q 393 478 392 476 q 406 481 394 479 q 429 485 417 483 q 452 490 442 488 q 465 493 463 492 q 472 503 468 496 q 477 521 475 511 q 480 539 479 531 q 479 551 481 547 l 494 551 l 508 551 q 516 544 511 550 q 524 536 521 538 q 539 533 526 535 q 566 528 551 531 q 594 525 581 526 q 610 522 607 524 q 640 497 631 513 q 657 465 650 482 q 672 432 664 449 q 697 406 681 415 q 701 383 699 399 q 705 349 703 367 q 709 314 707 331 q 711 290 711 297 l 711 267 q 703 233 711 249 q 685 202 696 217 q 661 174 674 188 q 639 146 649 160 q 631 131 636 143 q 624 117 626 118 q 610 113 621 115 q 588 109 600 111 q 565 105 575 107 q 551 103 554 103 q 544 96 549 101 q 538 88 539 90 l 436 88 q 431 104 436 88 q 422 132 425 121 q 420 142 422 133 q 416 161 418 151 q 411 179 414 171 q 407 189 408 188 q 397 195 404 192 q 380 201 389 199 q 363 204 371 203 q 350 204 354 206 m 117 558 q 117 553 117 556 q 118 551 118 551 q 124 543 119 549 q 132 536 129 538 l 132 579 q 124 573 129 578 q 118 565 119 568 q 117 563 118 565 q 117 558 117 560 z "},"q":{"ha":904,"x_min":147,"x_max":872,"o":"m 524 -101 q 491 -126 515 -104 q 440 -175 467 -149 q 393 -223 414 -201 q 372 -246 372 -244 l 711 -246 q 726 -232 715 -237 q 748 -223 736 -226 q 770 -218 760 -219 q 783 -217 781 -217 l 783 -199 q 772 -197 781 -199 q 755 -194 764 -196 q 738 -191 746 -193 q 725 -187 729 -189 q 718 -174 722 -186 q 711 -160 714 -161 q 690 -143 701 -150 q 669 -129 679 -136 q 651 -112 660 -122 q 639 -86 643 -103 q 733 -76 683 -82 q 826 -58 782 -69 q 829 -50 829 -56 q 819 -40 829 -49 q 795 -20 808 -32 q 770 4 782 -8 q 754 29 758 17 q 755 69 754 40 q 756 131 756 99 q 755 192 756 163 q 754 232 754 221 q 753 281 754 247 q 750 358 751 315 q 747 449 749 401 q 744 538 746 496 q 742 615 743 581 q 740 665 740 649 q 727 676 733 668 q 725 694 721 685 q 675 674 706 679 q 625 665 644 668 q 637 640 628 653 q 657 615 646 626 q 679 593 668 603 q 697 578 690 583 q 697 558 697 572 q 698 528 697 544 q 699 497 699 513 q 699 478 699 483 q 699 438 699 456 q 699 402 700 419 q 695 367 699 385 q 682 332 692 350 q 675 325 682 331 q 668 318 668 319 q 664 307 667 315 q 659 290 661 299 q 655 272 657 281 q 653 260 653 264 q 645 289 650 267 q 639 318 640 311 q 635 364 638 331 q 631 434 633 397 q 627 504 629 471 q 625 550 625 538 q 602 577 617 574 q 568 581 588 581 q 543 578 553 581 q 525 572 533 575 q 507 565 517 568 q 479 563 497 563 q 458 563 475 563 q 436 564 442 564 q 426 588 432 578 q 413 606 419 597 q 401 624 407 614 q 393 651 396 635 q 382 628 390 644 q 364 607 374 611 q 353 605 361 607 q 335 601 344 603 q 317 597 325 599 q 307 593 308 594 q 301 589 306 593 q 292 579 297 585 q 283 569 288 574 q 278 564 279 565 q 267 558 275 563 q 248 549 258 554 q 229 540 238 544 q 219 535 221 536 q 201 501 207 522 q 188 459 194 481 q 173 418 182 438 q 147 390 164 399 l 147 188 q 155 181 150 186 q 161 174 160 176 q 169 153 163 169 q 183 116 176 136 q 197 79 190 96 q 206 58 203 63 q 213 40 208 51 q 219 29 218 29 q 227 26 221 28 q 241 22 233 24 q 255 17 249 19 q 263 14 261 15 q 271 9 264 14 q 285 -1 278 4 q 298 -10 292 -6 q 307 -14 304 -14 q 325 -16 308 -15 q 350 -17 342 -17 q 371 -16 354 -17 q 393 -14 388 -15 q 400 10 392 6 q 421 15 408 15 q 445 8 432 15 q 451 -14 458 1 q 469 -1 461 -4 q 484 1 476 1 q 501 -2 492 0 q 524 -4 510 -4 l 524 -101 m 638 174 l 697 174 l 697 14 l 663 -7 l 653 -14 q 649 15 651 -6 q 645 58 647 35 q 641 101 643 81 q 639 131 639 122 q 638 151 639 135 q 638 174 638 168 m 321 115 q 296 129 308 117 q 273 157 283 142 q 256 189 263 172 q 249 217 249 206 l 249 433 q 272 444 265 436 q 284 463 279 453 q 296 479 289 472 q 321 486 303 486 l 321 361 q 328 355 324 360 q 335 347 333 350 q 343 326 336 343 q 357 290 350 310 q 370 253 364 269 q 379 232 376 236 q 387 214 382 225 q 393 203 392 203 q 405 206 396 200 q 417 211 414 211 q 413 235 417 226 q 404 252 410 244 q 392 268 399 260 q 379 289 385 276 q 367 319 371 306 q 363 347 364 333 q 362 377 361 361 q 363 413 363 393 q 363 428 363 417 q 363 451 363 439 q 364 475 364 464 q 364 492 364 488 q 394 510 382 499 q 424 522 406 522 q 440 506 428 522 q 468 470 453 490 q 499 431 483 450 q 524 406 515 411 q 524 390 524 401 q 524 369 524 381 q 525 346 525 357 q 525 332 525 336 q 525 272 525 296 q 508 217 525 249 q 501 210 508 215 q 494 203 494 204 q 491 192 493 200 q 487 174 489 183 q 483 155 485 164 q 479 144 481 146 q 465 137 478 142 q 451 131 453 132 q 444 115 449 128 q 436 101 439 103 q 426 99 435 100 q 407 95 417 97 q 389 90 397 93 q 379 86 381 88 q 373 73 376 83 q 367 51 369 63 q 363 29 364 40 q 364 14 363 18 q 357 13 363 14 q 350 13 351 13 q 326 26 333 13 q 318 58 319 40 q 318 93 317 76 q 321 115 319 110 m 871 347 q 863 354 872 354 q 856 347 854 354 q 863 340 858 340 q 871 347 868 340 m 436 665 q 429 672 439 672 q 422 665 419 672 q 429 658 424 658 q 436 665 435 658 m 508 711 q 492 710 503 711 q 479 708 481 710 q 469 695 475 706 q 465 679 464 685 q 476 678 468 679 q 488 678 485 678 q 517 683 504 678 q 538 708 529 688 q 523 710 535 710 q 508 711 511 711 z "},"r":{"ha":904,"x_min":163,"x_max":850,"o":"m 263 117 q 256 115 256 117 q 247 109 253 115 q 240 101 242 103 q 205 76 219 85 q 181 58 190 67 q 167 35 171 49 q 163 -4 163 22 q 186 -1 178 -4 q 202 6 194 1 q 218 13 210 10 q 240 15 226 15 q 291 7 269 15 q 344 -1 313 -1 q 395 6 379 -1 q 418 24 411 14 q 428 43 425 33 q 443 58 432 53 q 457 63 447 60 q 478 67 467 65 q 501 71 490 69 q 515 72 511 72 q 496 91 510 86 q 465 100 482 96 q 431 113 449 104 q 400 144 413 121 q 393 174 397 153 q 384 217 389 194 q 376 260 379 240 q 371 289 372 281 q 370 299 371 290 q 369 313 369 308 q 370 324 369 317 q 371 333 371 332 q 378 340 371 335 q 385 347 385 346 q 398 397 393 372 q 413 442 403 422 q 440 476 422 463 q 493 492 458 489 l 493 347 l 515 347 l 515 488 q 523 490 518 488 q 529 492 528 493 q 551 474 533 489 q 589 443 569 460 q 626 415 608 426 q 646 406 643 403 l 718 478 q 719 483 718 478 q 719 490 719 488 q 713 531 719 517 q 694 551 706 544 q 666 564 682 558 q 631 579 650 569 q 624 586 629 579 q 617 593 618 593 q 606 597 614 594 q 588 601 597 599 q 571 606 579 604 q 558 608 563 608 l 574 622 q 559 624 569 622 q 537 628 549 626 q 515 633 525 631 q 501 636 506 635 q 493 644 499 638 q 486 651 488 650 l 479 651 l 472 651 q 485 619 483 632 q 488 586 488 606 q 487 575 488 583 q 486 564 486 567 q 472 562 482 564 q 450 558 461 560 q 428 553 439 556 q 414 550 418 551 q 407 542 413 549 q 400 535 401 536 q 390 534 399 535 q 376 533 381 533 q 365 534 372 533 q 356 535 357 535 q 342 549 353 536 q 328 564 331 563 q 319 564 326 564 q 306 564 313 564 q 292 564 299 564 q 283 564 285 564 q 269 572 281 565 q 256 579 258 578 l 240 579 q 181 562 199 579 q 163 504 163 544 q 195 513 182 504 q 228 522 208 522 q 248 514 239 522 q 264 494 257 506 q 278 469 271 482 q 292 449 285 457 l 292 188 q 310 183 296 189 q 328 174 325 178 l 328 161 q 328 142 328 153 q 325 122 328 132 q 317 106 322 113 q 300 100 311 100 q 280 108 285 100 q 263 117 275 117 m 501 14 q 493 21 503 21 q 486 14 485 21 q 493 7 489 7 q 501 14 499 7 m 429 196 q 443 188 433 193 q 464 176 453 182 q 486 166 475 171 q 501 160 497 161 q 507 158 501 158 q 515 158 513 158 q 555 169 535 158 q 575 203 575 181 q 563 225 575 218 q 536 232 551 232 l 529 232 q 521 214 526 228 q 515 196 515 200 l 429 196 m 729 699 q 733 666 729 679 q 745 643 738 653 q 764 626 753 633 q 790 608 775 618 q 797 600 792 607 q 804 593 803 593 q 836 608 822 593 q 850 638 850 622 q 835 656 850 646 q 799 676 819 667 q 758 692 778 686 q 729 699 738 699 z "},"s":{"ha":903,"x_min":218,"x_max":688,"o":"m 436 1 q 450 -14 439 -3 q 465 -28 461 -25 q 468 -28 465 -28 q 472 -29 471 -29 q 477 -28 475 -29 q 481 -28 479 -28 q 488 -20 482 -26 q 494 -14 493 -14 q 504 -14 496 -14 q 524 -14 514 -14 q 542 -14 533 -14 q 553 -14 550 -14 q 619 1 593 -10 q 659 31 644 13 q 679 78 674 50 q 685 146 685 106 l 647 146 l 647 74 l 524 74 q 517 81 522 76 q 508 88 511 86 q 501 89 508 89 q 485 81 490 89 q 465 72 481 72 q 437 81 454 72 q 401 101 419 89 q 364 125 382 113 q 335 146 346 138 q 321 161 332 149 q 307 175 310 174 q 292 178 303 176 q 268 181 281 179 q 244 183 256 182 q 229 185 233 185 q 233 148 229 161 q 243 122 238 135 q 254 96 249 110 q 263 60 260 82 q 263 50 263 57 q 263 36 263 44 q 263 22 263 29 q 263 15 263 17 q 276 7 265 13 q 292 1 286 1 q 321 1 300 1 q 364 0 342 0 q 408 1 388 0 q 436 1 428 1 m 218 400 q 219 396 218 399 q 219 392 219 393 q 230 369 224 383 q 243 342 236 356 q 256 318 250 329 q 263 306 261 307 q 283 291 269 297 q 310 280 296 285 q 340 270 325 275 q 364 261 354 265 q 378 254 367 261 q 393 247 390 247 q 403 247 394 247 q 422 247 413 247 q 440 247 432 247 q 451 247 449 247 q 477 244 461 246 q 509 240 493 242 q 538 235 525 238 q 553 233 550 233 q 573 217 564 229 q 590 191 582 204 q 606 168 597 178 q 625 158 614 158 q 638 160 636 158 q 641 165 640 161 q 643 174 642 168 q 654 189 644 179 q 669 197 656 192 q 683 204 682 201 q 678 232 688 219 q 659 255 669 244 q 641 274 649 265 q 639 290 633 282 q 613 277 626 279 q 585 275 600 275 q 574 276 582 275 q 567 276 567 276 q 561 287 564 279 q 556 304 558 294 q 553 322 554 314 q 553 335 551 331 q 444 304 501 304 q 426 305 440 304 q 408 306 411 306 q 385 333 407 310 q 339 382 364 356 q 292 430 314 408 q 269 451 271 451 q 265 451 268 451 q 263 450 263 450 q 256 435 261 447 q 249 421 250 424 q 234 414 246 419 q 219 407 222 408 q 219 404 219 407 q 218 400 218 401 m 481 500 q 494 477 483 485 q 519 465 506 469 q 545 453 532 460 q 567 436 558 447 q 574 421 568 433 q 582 407 579 408 q 602 394 592 396 q 625 392 613 392 q 657 408 644 392 q 669 443 669 425 q 669 447 669 444 q 668 450 668 450 q 660 457 667 451 q 654 464 654 463 q 650 484 653 469 q 645 515 647 499 q 641 545 643 531 q 639 565 639 560 q 636 567 639 567 q 632 567 633 567 q 628 567 631 567 q 625 565 625 567 q 618 558 624 565 q 610 551 613 551 q 592 551 608 551 q 567 550 575 550 q 503 565 533 550 q 451 610 474 581 q 444 584 453 590 q 422 578 435 578 q 406 583 410 578 q 399 594 401 588 q 390 606 396 600 q 371 611 385 611 q 336 601 351 611 q 310 574 321 590 q 294 538 300 557 q 289 500 289 518 l 481 500 z "},"t":{"ha":904,"x_min":214,"x_max":681,"o":"m 418 32 q 438 20 432 32 q 448 -6 443 8 q 461 -33 453 -21 q 489 -44 469 -44 q 526 -37 507 -44 q 561 -19 544 -31 q 593 4 578 -8 q 621 29 608 17 q 628 44 624 32 q 635 58 633 56 q 650 66 638 61 q 664 72 663 71 q 678 115 678 90 q 679 160 679 140 q 680 180 679 165 q 678 210 681 194 q 672 237 676 225 q 657 249 667 249 q 634 235 642 249 q 621 203 626 221 q 613 169 615 186 q 606 146 610 151 q 592 138 604 143 q 578 131 579 133 q 569 117 575 128 q 563 101 564 106 l 476 101 q 463 124 472 114 q 444 144 454 135 q 426 165 433 154 q 418 189 418 176 l 418 449 q 406 456 408 451 q 403 467 403 461 q 406 478 404 472 q 408 490 408 483 q 420 492 411 490 q 432 493 429 493 q 443 490 435 493 q 461 485 451 488 q 479 480 471 482 q 490 478 488 478 q 499 480 492 478 q 516 484 507 482 q 534 489 525 486 q 549 493 543 492 q 565 501 553 494 q 590 515 576 507 q 613 531 603 524 q 622 543 622 539 q 622 547 622 544 q 621 550 621 550 q 611 562 618 554 q 597 576 604 569 q 585 589 590 583 q 578 594 579 594 q 561 595 576 594 q 538 596 546 596 q 511 595 529 596 q 490 594 493 594 q 483 587 489 593 q 476 579 478 581 l 461 579 q 440 581 454 579 q 425 594 425 583 l 425 772 q 396 771 411 772 q 367 765 381 769 q 344 750 354 760 q 331 724 335 740 q 327 701 329 717 q 323 667 325 685 q 319 632 321 649 q 317 608 317 615 q 288 593 306 600 q 254 579 271 586 q 226 562 238 572 q 214 536 214 551 q 226 508 214 517 q 258 497 239 500 q 296 490 276 493 q 331 478 315 488 q 345 470 333 475 q 360 464 357 465 q 360 435 360 457 q 361 406 361 413 q 356 359 361 379 q 345 322 351 339 q 334 285 339 304 q 329 244 329 267 q 329 224 329 235 q 331 203 329 214 q 340 185 333 193 q 360 174 346 178 q 356 125 356 150 q 358 83 356 103 q 389 0 365 35 q 397 26 388 19 q 418 32 406 32 m 404 101 l 432 101 l 432 72 l 404 72 l 404 101 m 360 651 l 389 651 l 389 624 l 360 624 l 360 651 z "},"u":{"ha":907,"x_min":100,"x_max":824,"o":"m 556 46 q 594 36 574 46 q 634 15 614 26 q 674 -6 654 4 q 714 -15 694 -15 q 790 6 756 -15 q 824 72 824 26 q 812 103 824 93 q 783 119 800 114 q 749 126 767 124 q 722 131 732 128 q 715 138 719 132 q 707 146 710 144 q 690 153 704 149 q 671 160 675 158 l 671 290 q 663 298 671 293 q 650 304 654 303 q 631 306 647 306 q 608 307 615 307 q 590 306 601 307 q 578 304 578 306 q 573 292 575 303 q 569 269 571 282 q 565 246 567 257 q 563 232 564 235 q 535 181 554 203 q 492 144 517 158 q 438 122 467 129 q 379 114 408 114 q 317 117 339 114 q 286 133 296 121 q 274 169 276 146 q 272 232 272 193 q 272 250 272 239 q 273 274 272 263 q 274 293 274 285 q 274 304 274 303 q 275 311 274 306 q 278 324 276 317 q 283 337 281 331 q 288 347 286 343 q 296 362 289 350 q 303 376 303 374 q 296 384 303 379 q 288 392 289 389 q 284 422 285 403 q 279 461 283 442 q 266 495 275 481 q 238 510 257 510 q 226 508 235 510 q 215 507 218 507 q 211 472 214 497 q 206 420 208 447 q 203 368 204 393 q 201 333 201 343 q 207 311 201 328 q 215 290 213 294 q 231 283 218 288 q 244 275 243 278 q 247 269 246 275 q 247 261 247 264 q 241 240 247 249 q 215 232 235 231 l 215 117 q 231 102 219 114 q 244 88 242 90 q 252 73 247 85 q 260 58 257 61 q 274 51 261 56 q 288 44 286 46 q 303 30 292 42 q 317 15 314 18 l 490 15 q 517 43 497 40 q 556 46 536 46 m 593 431 q 590 403 593 411 q 583 389 588 394 q 576 378 579 383 q 574 363 574 374 l 650 363 q 656 374 651 363 q 664 392 661 385 l 664 399 q 656 426 664 414 q 649 457 649 439 q 649 478 649 467 q 664 492 650 489 l 635 579 q 620 578 631 579 q 599 578 610 578 q 577 578 588 578 q 563 579 567 579 q 547 581 560 579 q 519 586 533 583 q 492 591 504 589 q 476 593 479 593 q 462 588 474 593 q 447 579 450 582 q 447 577 447 579 q 446 572 446 575 q 457 540 446 550 q 484 524 468 529 q 519 514 500 518 q 555 501 539 510 q 582 476 571 493 q 593 431 593 460 m 100 536 l 100 521 l 114 521 l 114 536 l 100 536 m 215 579 l 215 564 l 231 564 l 231 579 l 215 579 z "},"v":{"ha":904,"x_min":40,"x_max":765,"o":"m 392 194 q 375 199 389 194 q 358 203 361 204 q 351 189 356 201 q 344 174 346 176 q 339 165 343 171 q 330 153 335 160 q 321 140 325 146 q 315 131 317 133 q 296 149 308 142 q 272 160 283 156 q 267 178 269 164 q 265 196 265 192 q 267 217 265 203 q 272 232 269 231 q 285 240 275 236 q 307 245 296 243 q 329 248 318 247 q 344 246 340 249 q 339 260 343 250 q 330 283 335 271 q 321 304 325 294 q 315 318 317 314 q 310 329 314 321 q 301 347 306 338 q 292 365 296 357 q 286 376 288 374 q 285 379 286 376 q 285 383 285 382 q 293 401 285 396 q 301 419 301 406 q 289 451 301 438 q 272 485 276 465 l 171 485 l 142 586 l 40 586 l 69 622 l 228 622 l 228 608 l 171 579 l 171 568 q 181 566 176 568 q 188 564 185 564 q 193 567 190 564 q 200 579 196 569 q 308 593 263 590 q 363 594 335 594 q 417 593 389 594 q 399 622 399 601 l 432 622 q 432 607 432 619 q 431 593 432 596 q 427 570 429 585 q 423 542 425 556 q 419 517 421 528 q 417 507 417 507 q 406 500 415 504 q 388 492 397 496 q 369 483 378 488 q 358 478 360 479 q 358 473 358 478 q 357 465 357 468 q 358 456 357 463 q 358 449 358 450 q 366 434 360 446 q 372 419 372 422 q 376 403 374 417 q 380 376 378 390 q 384 349 382 361 q 388 333 386 336 q 392 322 388 331 q 401 304 396 314 q 411 285 407 294 q 417 275 415 276 q 422 261 418 271 q 431 240 426 251 q 440 217 436 228 q 446 203 444 207 q 452 202 447 203 q 460 201 457 201 q 491 227 475 201 q 522 284 507 253 q 551 343 538 315 q 575 376 564 371 l 575 478 q 526 517 539 493 q 513 579 513 542 l 735 579 q 748 568 738 579 q 764 550 758 557 q 765 547 764 550 q 765 543 765 544 q 765 538 765 540 q 764 536 764 536 q 749 528 761 533 q 735 521 736 524 q 727 507 732 519 q 719 492 722 494 q 709 487 718 490 q 690 478 700 483 q 672 469 681 474 q 663 464 664 465 q 659 451 661 461 q 655 428 657 440 q 651 405 653 415 q 647 392 649 394 q 643 381 647 389 q 633 363 639 372 q 624 344 628 353 q 618 333 619 335 q 616 320 618 331 q 612 297 614 310 q 608 274 610 285 q 604 261 606 264 q 597 253 604 258 q 590 246 590 249 q 583 226 589 243 q 575 203 578 210 q 539 92 560 144 q 489 -14 518 39 q 485 -15 488 -14 q 482 -15 482 -15 q 477 -15 479 -15 q 474 -14 475 -14 q 467 1 472 -11 q 460 15 461 13 q 446 30 457 18 q 431 44 435 42 q 415 51 428 46 q 401 58 403 56 q 389 91 392 74 q 387 126 386 108 q 390 160 388 143 q 392 194 392 178 m 185 464 q 180 460 182 465 q 178 449 178 456 q 180 438 178 443 q 185 435 182 433 q 192 449 192 438 q 185 464 192 460 m 460 521 q 455 517 457 522 q 453 506 453 513 q 455 495 453 500 q 460 492 457 490 q 467 507 467 496 q 460 521 467 518 m 633 521 l 663 521 l 663 492 l 633 492 l 633 521 z "},"w":{"ha":904,"x_min":129,"x_max":781,"o":"m 260 57 q 267 48 261 54 q 281 35 274 42 q 294 22 288 28 q 303 14 300 15 q 306 13 303 14 q 310 13 308 13 q 314 13 311 13 q 317 14 317 14 q 324 20 318 15 q 332 28 329 25 q 343 43 336 33 q 357 62 350 53 q 369 78 364 71 q 375 86 375 85 q 389 148 388 115 q 392 212 390 181 q 405 271 394 243 q 447 318 415 299 q 453 319 449 318 q 461 319 458 319 q 469 319 464 319 q 476 318 474 318 q 478 298 476 313 q 483 267 481 283 q 487 237 485 251 q 490 217 489 222 q 498 209 492 214 q 506 201 504 204 q 509 191 507 199 q 513 174 511 183 q 517 157 515 165 q 519 144 519 149 q 519 136 519 143 q 519 122 519 129 q 519 108 519 115 q 519 100 519 101 q 534 86 521 97 q 549 72 547 75 q 551 58 550 68 q 554 38 553 49 q 557 18 556 28 q 558 6 558 8 q 573 9 568 6 q 580 18 578 13 q 584 31 582 24 q 592 43 586 38 q 607 49 594 44 q 621 57 619 54 q 640 113 633 78 q 653 185 647 149 q 669 251 660 222 q 693 289 678 281 q 698 358 694 324 q 710 424 701 392 q 735 483 718 456 q 781 535 751 511 q 758 542 775 538 q 736 549 742 547 q 723 552 733 550 q 700 556 713 554 q 677 560 688 558 q 664 564 667 563 q 657 571 663 564 q 650 578 651 578 q 643 578 649 578 q 635 579 638 579 q 617 577 628 579 q 607 564 607 575 q 616 527 607 543 q 636 497 625 511 q 656 467 647 482 q 665 433 665 453 q 660 399 665 418 q 647 358 654 379 q 631 315 639 336 q 621 274 624 293 l 563 274 q 558 297 561 281 q 550 332 554 314 q 541 367 546 350 q 535 390 536 383 q 527 397 533 392 q 519 404 521 403 l 519 418 q 578 506 519 486 q 558 552 569 536 q 530 574 546 568 q 492 581 514 581 q 443 581 471 581 q 429 581 439 581 q 413 580 421 581 q 397 578 404 579 q 389 578 390 578 l 368 564 l 368 274 q 342 269 353 276 q 326 250 332 263 q 317 224 319 238 q 317 201 315 211 l 289 201 q 285 210 288 201 q 281 230 283 218 q 276 253 278 242 q 274 274 274 265 q 274 294 274 278 q 274 332 274 313 q 274 369 274 353 q 274 390 274 386 q 272 405 274 394 q 267 426 269 415 q 263 448 265 438 q 260 463 261 458 q 250 443 257 450 q 235 432 243 436 q 222 424 228 428 q 215 413 215 419 q 224 395 215 400 q 232 376 232 390 q 224 351 232 361 q 215 325 215 340 l 215 318 q 218 310 215 317 q 223 297 221 304 q 228 282 225 289 q 231 274 231 275 q 240 224 235 253 q 248 164 244 194 q 254 105 251 133 q 260 57 257 76 m 129 549 q 135 541 131 546 q 143 535 140 536 q 153 529 144 533 q 172 520 163 525 q 190 511 182 515 q 201 506 199 507 q 209 492 204 504 q 215 476 214 479 q 219 476 217 476 q 224 475 221 475 q 238 488 229 475 q 256 516 247 500 q 270 547 264 532 q 276 568 276 563 q 257 565 264 568 q 244 558 250 561 q 231 551 238 554 q 215 547 225 547 q 201 552 206 547 q 195 563 197 557 q 191 574 193 569 q 181 579 189 579 q 154 566 169 579 q 129 549 139 553 z "},"x":{"ha":904,"x_min":121,"x_max":747,"o":"m 125 28 q 131 43 121 29 q 139 57 138 53 l 153 63 q 175 72 163 67 q 198 81 188 76 q 211 86 208 85 q 244 112 233 97 q 269 144 256 126 q 280 154 271 146 q 299 172 289 163 q 318 190 310 182 q 328 201 326 199 q 331 212 329 203 q 334 231 332 221 q 338 249 336 240 q 342 260 340 257 q 356 267 343 263 q 371 274 369 271 q 368 285 374 276 q 363 297 363 294 q 338 301 356 297 q 313 303 319 304 q 306 296 311 303 q 299 289 300 289 q 292 288 297 289 q 285 288 288 288 q 277 288 282 288 q 269 289 272 289 q 292 310 279 303 q 316 326 306 318 q 334 344 326 333 q 342 375 342 354 q 336 398 342 382 q 328 418 331 414 q 308 440 321 426 q 282 468 296 454 q 256 493 268 482 q 240 506 244 504 q 217 512 233 508 q 183 517 201 515 q 149 520 165 519 q 125 519 132 521 q 157 549 138 538 q 198 568 176 561 q 242 577 219 575 q 285 579 265 579 q 323 580 303 579 q 360 576 343 581 q 389 558 378 571 q 400 519 400 546 q 393 513 400 518 l 385 506 l 385 492 q 393 453 385 464 q 416 438 401 442 q 449 437 431 435 q 486 439 467 439 l 486 506 l 457 519 l 451 650 l 551 650 l 539 638 q 501 621 528 635 q 499 609 500 619 q 499 592 499 599 q 500 578 499 589 q 501 564 500 564 q 703 581 625 564 l 703 519 q 685 519 697 521 q 659 516 672 518 q 633 511 646 514 q 617 506 621 508 q 599 491 611 503 q 573 466 586 479 q 547 439 560 453 q 529 418 535 425 q 526 408 528 417 q 522 390 524 400 q 518 371 519 379 q 515 361 517 364 q 501 353 514 358 q 486 346 486 347 l 486 333 q 499 279 486 310 q 529 231 513 249 q 544 224 532 229 q 558 217 557 218 q 567 206 560 214 q 581 188 574 197 q 594 169 588 178 q 603 158 600 160 q 638 122 615 151 q 674 94 640 119 q 710 64 690 82 q 747 28 728 49 q 726 29 742 29 q 696 29 713 29 q 665 29 681 29 q 646 28 651 29 q 637 26 643 28 q 624 22 631 24 q 610 17 617 19 q 603 14 604 14 q 596 13 601 14 q 588 13 590 13 q 541 28 564 13 q 501 57 518 44 q 517 62 506 56 q 529 72 528 68 q 531 81 531 72 q 532 93 532 89 q 531 106 532 97 q 529 115 531 114 q 515 122 528 118 q 501 129 503 126 q 498 140 500 131 q 494 158 496 149 q 490 176 492 168 q 486 188 488 185 q 462 220 475 207 q 428 233 449 233 q 420 233 425 233 q 414 231 415 232 l 342 158 l 342 150 q 340 140 340 143 q 341 126 340 135 q 342 115 342 117 q 349 108 342 113 q 357 100 356 103 q 358 83 358 96 q 360 56 358 69 q 362 28 363 42 q 363 11 361 15 q 347 14 353 11 q 337 20 342 17 q 326 26 332 24 q 313 29 321 29 q 295 26 300 29 q 285 21 290 24 q 272 15 281 18 q 243 13 263 13 q 184 15 208 13 q 125 28 160 17 m 617 361 q 651 338 632 350 q 689 318 669 325 q 617 300 653 300 l 617 361 m 357 346 q 364 339 364 344 q 357 332 364 335 q 350 339 350 329 q 357 346 350 349 m 574 433 l 574 404 l 588 404 l 574 433 m 285 794 q 299 788 288 793 q 313 781 310 783 q 327 766 317 776 q 349 744 338 756 q 371 723 361 733 q 385 708 381 713 q 386 726 386 713 q 386 744 386 740 q 384 774 386 764 q 376 790 382 785 q 358 795 369 794 q 328 796 347 796 q 306 795 322 796 q 285 794 289 794 m 603 781 q 578 771 583 781 q 572 744 572 761 q 572 733 572 742 q 574 722 572 725 q 600 748 589 733 q 617 781 611 763 l 603 781 m 718 794 q 715 799 719 797 q 703 800 710 800 q 692 799 697 800 q 689 794 688 797 q 703 788 692 788 q 718 794 715 788 z "}}}
